<?xml version="1.0" standalone="no"?>
<!DOCTYPE svg PUBLIC "-//W3C//DTD SVG 20010904//EN"
 "http://www.w3.org/TR/2001/REC-SVG-20010904/DTD/svg10.dtd">
<svg version="1.0" xmlns="http://www.w3.org/2000/svg"
 width="1500.000000pt" height="900.000000pt" viewBox="0 0 1500.000000 900.000000"
 preserveAspectRatio="xMidYMid meet">

<g transform="translate(0.000000,900.000000) scale(0.100000,-0.100000)"
fill="#64a0f8" stroke="none">
<path d="M6371 4986 c-6 -8 -37 -17 -69 -21 -137 -16 -301 -62 -335 -93 -37
-33 -82 -142 -133 -322 -14 -52 -28 -96 -29 -98 -2 -2 -61 -27 -131 -56 -192
-80 -261 -114 -244 -119 8 -3 85 -8 170 -11 169 -7 234 -16 231 -31 -1 -5 -14
-14 -30 -20 -113 -39 -158 -201 -86 -305 18 -26 47 -51 75 -64 45 -21 45 -22
45 -71 l0 -50 -40 -3 c-46 -4 -65 -17 -65 -43 0 -11 -9 -28 -20 -39 -22 -22
-26 -70 -8 -88 7 -7 13 -39 13 -71 0 -67 19 -95 87 -133 33 -19 37 -26 49 -87
43 -237 210 -525 365 -632 40 -27 42 -31 34 -60 -12 -42 -37 -79 -58 -85 -9
-3 -44 -18 -78 -35 -34 -16 -69 -29 -78 -29 -19 0 -86 -47 -86 -61 0 -5 8 -5
17 -2 16 6 16 5 0 -17 -22 -32 -21 -43 2 -30 26 14 28 13 34 -12 5 -18 8 -19
21 -9 9 8 26 11 40 7 18 -4 33 1 54 19 17 14 51 34 76 45 25 12 48 25 51 30 9
14 89 12 102 -1 9 -9 18 -8 37 5 15 9 26 12 26 6 0 -5 5 -10 10 -10 6 0 10 8
10 19 0 23 -40 51 -86 58 -30 5 -33 8 -28 32 3 14 7 36 10 49 4 22 7 22 142
21 90 -1 140 -5 144 -13 4 -6 8 -28 8 -48 0 -34 -3 -38 -25 -38 -33 0 -85 -38
-85 -63 0 -14 5 -17 16 -13 9 4 23 1 30 -5 8 -6 22 -8 31 -4 26 11 93 14 98 4
3 -4 31 -20 63 -34 31 -14 67 -35 79 -47 16 -15 29 -19 48 -14 15 4 33 2 41
-4 16 -14 34 -5 34 17 0 15 2 14 18 0 28 -25 31 -21 28 29 -3 52 -28 79 -81
89 -16 3 -52 16 -80 30 -27 13 -62 28 -78 34 -30 12 -67 65 -67 98 0 14 12 29
34 42 54 34 151 143 207 236 29 47 57 84 63 82 6 -2 16 -24 23 -50 6 -25 14
-51 18 -57 4 -6 53 -10 124 -10 91 0 133 5 181 20 60 19 63 19 92 2 37 -21 84
-86 128 -174 30 -62 36 -69 74 -79 22 -6 53 -18 69 -25 19 -11 33 -12 46 -5
17 9 22 4 41 -44 12 -31 35 -73 50 -94 15 -21 38 -70 51 -110 27 -85 33 -77
-96 -121 -111 -37 -167 -45 -225 -31 -27 6 -49 6 -54 1 -16 -16 15 -92 50
-126 l33 -32 -37 -6 c-58 -9 -131 -7 -154 5 -31 17 -45 -4 -22 -34 29 -38 84
-73 141 -90 79 -24 219 -32 288 -16 33 7 71 13 85 14 59 3 70 6 99 31 26 21
31 23 31 9 0 -39 -34 -88 -73 -105 -22 -10 -46 -16 -53 -13 -26 10 -54 -16
-54 -51 0 -33 -2 -34 -52 -46 -105 -24 -207 -63 -229 -86 -97 -103 237 -195
801 -220 l155 -6 55 -53 c31 -29 71 -60 90 -70 51 -26 156 -31 218 -11 49 17
122 75 152 124 14 20 28 24 155 37 334 35 525 94 525 161 0 42 -83 86 -225
119 -86 20 -372 55 -446 55 -32 0 -60 3 -62 8 -3 4 -7 38 -8 76 -4 68 -4 70
23 77 15 4 40 16 55 26 15 11 43 25 62 32 19 6 42 17 50 24 9 8 38 22 65 32
71 26 157 113 209 210 47 90 74 105 69 40 -11 -121 -126 -241 -260 -270 -85
-18 34 -69 145 -62 157 9 310 129 398 311 26 53 51 99 56 102 5 3 19 24 30 46
18 36 20 52 15 122 -4 45 -8 95 -10 111 -3 17 -5 40 -5 52 -1 28 -50 85 -99
115 -32 20 -48 22 -135 20 -73 -2 -108 -7 -136 -21 l-37 -19 4 66 c3 37 8 75
13 84 14 27 10 107 -7 144 -20 43 -88 99 -140 118 -36 12 -39 16 -36 46 5 44
-17 120 -34 120 -17 0 -17 0 2 -45 9 -23 13 -51 10 -70 -6 -30 -10 -33 -59
-39 -28 -3 -66 -6 -83 -6 -20 0 -51 -13 -83 -35 -34 -24 -62 -35 -85 -35 -32
0 -36 3 -41 34 -9 46 7 72 60 95 54 24 101 91 111 159 14 94 -48 204 -129 231
-33 11 -36 16 -42 64 -25 186 -202 334 -451 378 -185 33 -294 35 -399 10 -271
-66 -501 -255 -522 -429 l-5 -48 -152 -105 c-83 -59 -161 -111 -173 -118 -21
-11 -22 -10 -11 20 6 17 8 48 5 69 -3 27 -1 43 9 51 22 18 18 76 -6 91 -11 7
-20 22 -20 34 0 29 -18 42 -65 46 l-40 3 0 50 c0 49 0 50 45 71 67 32 103 89
108 170 7 101 -38 173 -123 201 -27 9 -31 15 -37 66 -7 52 -37 130 -38 98 0
-11 -4 -10 -20 4 -19 17 -19 16 -14 -21 5 -39 5 -39 -10 -14 -8 14 -15 20 -16
13 0 -8 -9 -7 -30 3 -44 22 -43 28 2 58 33 22 43 24 57 14 9 -7 6 -1 -6 13
-13 14 -23 34 -23 45 0 11 -9 53 -20 93 -60 216 -218 350 -450 381 -47 6 -86
16 -88 21 -6 14 -58 11 -71 -5z m428 -664 c5 -9 12 -35 16 -57 l7 -40 -35 49
c-20 27 -34 53 -31 58 9 14 33 9 43 -10z m-109 -23 c0 -5 -5 -7 -12 -3 -6 4
-4 -3 5 -17 17 -23 24 -74 10 -67 -37 16 -92 55 -90 63 2 6 19 15 38 22 43 15
49 15 49 2z m-55 -84 c133 -77 189 -289 116 -433 -24 -46 -94 -113 -153 -144
-62 -33 -194 -33 -256 0 -66 35 -132 101 -158 157 -29 61 -33 176 -8 247 l15
46 58 4 c57 3 58 2 45 -17 -95 -134 62 -339 225 -294 67 19 134 89 151 158 11
45 10 58 -5 96 -19 52 -61 90 -116 106 -30 10 -42 10 -51 1 -9 -9 -5 -12 16
-12 41 0 112 -73 122 -125 8 -44 -7 -112 -33 -151 -39 -60 -141 -81 -212 -44
-45 23 -91 103 -91 158 0 69 72 162 126 162 14 0 23 4 19 9 -8 14 103 101 128
101 11 0 39 -11 62 -25z m310 -6 c4 -5 -1 -19 -10 -29 -25 -28 -44 -88 -45
-145 -1 -41 -3 -46 -11 -27 -5 13 -13 20 -19 17 -6 -3 -10 4 -11 17 -1 23 -1
23 -9 -2 -7 -22 -8 -20 -9 15 -1 50 28 115 64 143 31 25 41 27 50 11z m-978
-40 c53 -45 67 -94 38 -133 -14 -19 -15 -18 -16 10 l-1 29 -12 -29 c-13 -28
-13 -27 -19 33 -4 45 -12 71 -31 96 -22 29 -23 33 -8 27 10 -4 32 -19 49 -33z
m1059 22 c-24 -26 -45 -87 -47 -136 -1 -22 -3 -31 -6 -20 -8 35 -23 41 -23 10
0 -27 -1 -28 -15 -9 -33 44 -3 111 70 155 38 24 42 24 21 0z m-943 -44 c12
-15 21 -47 23 -79 3 -38 2 -47 -5 -33 l-10 20 0 -20 c-1 -15 -3 -17 -10 -6 -6
10 -11 6 -19 -15 -10 -27 -10 -26 -12 21 -1 57 -20 117 -46 146 -17 19 -16 19
21 6 22 -8 48 -25 58 -40z m-231 -29 c19 -15 28 -73 17 -108 l-7 -25 -1 25
c-1 14 -6 42 -12 64 -10 36 -12 38 -42 32 -30 -5 -31 -5 -13 9 24 18 37 19 58
3z m1294 -3 c18 -14 17 -14 -12 -9 -35 7 -42 -3 -48 -70 -4 -43 -15 -60 -17
-25 -7 101 25 144 77 104z m1375 -50 c51 -18 153 -121 200 -200 42 -73 36 -78
-12 -9 -71 102 -163 187 -227 210 -20 7 -30 13 -21 14 9 0 36 -7 60 -15z
m-631 -78 c-82 -50 -176 -121 -206 -156 -14 -17 -30 -31 -35 -31 -45 0 103
141 195 185 90 44 118 45 46 2z m838 -14 c34 -18 62 -37 62 -42 0 -4 16 -15
35 -24 37 -18 75 -75 56 -86 -7 -5 -7 -20 2 -51 17 -60 12 -104 -11 -94 -9 4
-32 8 -49 8 -32 1 -33 2 -33 47 0 64 -73 194 -153 270 l-22 21 25 -7 c14 -4
53 -23 88 -42z m-369 -9 c53 -15 71 -24 144 -72 37 -24 114 -118 105 -128 -3
-2 -36 18 -74 45 -134 94 -217 121 -365 121 -86 -1 -210 -25 -284 -55 -22 -10
18 26 75 66 68 47 270 58 399 23z m-40 -75 c66 -21 114 -43 102 -47 -20 -7
-331 51 -331 62 0 12 181 0 229 -15z m-339 -14 c0 -3 -10 -10 -22 -16 -13 -5
-41 -21 -63 -34 -22 -14 -53 -25 -70 -25 l-29 0 23 16 c43 30 161 73 161 59z
m302 -53 l216 -39 121 -69 c66 -38 121 -72 121 -76 0 -4 -16 -33 -35 -65 -19
-32 -35 -64 -35 -71 0 -7 29 -63 65 -125 36 -62 65 -122 65 -135 0 -20 -5 -22
-62 -22 -74 0 -124 -25 -141 -70 -8 -20 -20 -31 -40 -36 -16 -3 -30 -4 -32 -2
-3 2 3 26 11 53 8 28 21 73 29 100 23 83 55 199 62 219 5 18 4 18 -28 -1 -375
-226 -488 -298 -482 -304 4 -4 58 -17 118 -29 61 -11 141 -28 178 -37 l69 -15
-36 -24 c-20 -14 -36 -28 -36 -33 0 -4 -11 -20 -25 -35 -18 -19 -34 -26 -63
-26 -21 0 -63 -7 -93 -16 -64 -19 -143 -93 -199 -188 -19 -32 -42 -62 -50 -66
-8 -4 -28 -13 -45 -20 -67 -28 -92 -40 -145 -65 l-56 -26 -59 26 c-58 26 -61
30 -99 107 -22 44 -58 99 -81 122 -50 52 -114 71 -265 81 -103 7 -189 29 -261
66 -32 16 -139 123 -139 139 0 3 57 37 126 75 70 39 150 85 178 104 28 18 72
44 97 56 44 23 125 76 279 184 73 51 75 54 102 129 15 42 28 77 28 77 0 0 46
-1 103 -3 l102 -3 90 50 c50 27 99 50 110 50 12 1 118 -16 237 -37z m-2402
-32 c0 -30 15 -40 57 -40 24 0 24 -1 -15 -46 -55 -62 -73 -118 -79 -246 -3
-60 -8 -108 -11 -108 -13 0 -74 44 -87 63 -8 12 -15 41 -15 64 0 38 3 45 28
54 28 12 27 13 -20 23 -23 5 -28 12 -28 35 0 35 19 52 48 44 25 -6 31 12 7 21
-18 7 -20 42 -2 49 7 3 25 3 39 0 40 -8 63 25 59 83 -2 31 1 44 8 40 6 -4 11
-20 11 -36z m1199 -5 c-4 -57 20 -90 59 -82 14 3 32 3 39 0 15 -6 17 -39 3
-48 -18 -11 -11 -27 9 -20 14 4 25 -1 36 -18 20 -31 10 -56 -24 -63 -45 -10
-47 -11 -20 -22 62 -25 35 -128 -43 -168 -15 -8 -29 -14 -31 -14 -3 0 -7 48
-9 108 -6 129 -32 206 -83 251 -41 36 -43 41 -11 41 37 0 56 10 56 30 0 21 10
50 17 50 2 0 3 -20 2 -45z m-1108 -102 c-49 -73 -70 -114 -93 -183 l-19 -55 6
73 c5 74 32 147 63 175 14 13 71 47 80 47 1 0 -15 -26 -37 -57z m76 43 c-4
-11 -1 -13 11 -8 15 5 15 3 -2 -23 -10 -17 -27 -39 -37 -51 -11 -11 -19 -30
-19 -43 0 -12 -7 -36 -16 -53 -32 -63 -74 -199 -75 -245 -1 -27 -4 -59 -8 -73
-7 -23 -8 -21 -14 15 -24 142 34 357 123 458 34 39 46 46 37 23z m937 -105
c19 -36 41 -91 50 -121 21 -71 26 -181 9 -187 -8 -3 -13 4 -13 19 0 30 -40
149 -69 205 -11 23 -21 52 -21 63 0 12 -14 39 -31 60 -23 28 -29 44 -24 60 7
22 7 22 35 -5 16 -15 45 -58 64 -94z m25 76 c37 -34 62 -101 67 -180 l4 -72
-13 45 c-18 58 -49 120 -98 192 l-39 57 28 -10 c15 -6 38 -20 51 -32z m-869
-21 c0 4 3 4 6 1 4 -4 -5 -23 -20 -42 -62 -81 -108 -218 -121 -360 -10 -111
-16 -145 -26 -139 -5 3 -9 -2 -9 -10 0 -31 -18 -15 -24 22 -22 137 6 280 92
455 l57 118 23 -26 c12 -14 22 -23 22 -19z m730 -6 c7 -19 19 -42 25 -50 35
-45 105 -253 105 -312 0 -20 -8 -31 -29 -43 l-30 -15 -6 48 c-16 132 -63 263
-118 334 l-28 38 28 24 c31 27 34 26 53 -24z m-630 -13 c19 -7 55 -23 80 -36
33 -18 66 -25 130 -28 89 -5 99 -3 225 50 l59 26 37 -32 c20 -18 48 -52 62
-77 23 -43 59 -183 72 -281 l6 -45 -66 -42 c-75 -49 -75 -42 5 -140 42 -52 50
-68 45 -90 -9 -42 -37 -72 -80 -87 -27 -10 -33 -14 -18 -15 51 -1 95 38 113
99 8 23 8 22 9 -12 1 -42 -18 -96 -41 -115 -13 -10 -17 -9 -22 10 -5 15 -9 18
-13 10 -3 -7 0 -19 7 -27 7 -8 8 -20 3 -29 -13 -23 -94 -106 -103 -106 -19 0
-14 39 12 98 15 34 24 62 19 62 -4 0 -17 -24 -30 -54 -31 -75 -60 -100 -108
-93 -32 5 -35 4 -21 -6 19 -15 11 -35 -30 -79 -28 -30 -87 -39 -110 -16 -8 8
-15 8 -26 -1 -8 -7 -32 -11 -52 -9 -32 2 -44 11 -71 47 -32 41 -33 44 -16 57
16 12 14 12 -17 8 -48 -8 -81 20 -110 91 -12 30 -26 55 -31 55 -4 0 4 -28 19
-62 26 -59 31 -98 13 -98 -11 0 -111 106 -111 117 0 5 5 14 11 20 6 6 9 17 6
25 -3 8 -8 5 -14 -11 l-10 -24 -24 34 c-23 33 -24 40 -24 194 1 216 33 424 81
517 9 17 99 116 99 108 0 0 16 -6 35 -13z m2618 -24 c-33 -38 -50 -87 -51
-147 l-1 -61 -12 40 c-11 40 -12 40 -15 10 l-4 -30 -19 27 c-13 19 -16 36 -11
55 7 30 94 123 115 123 10 0 9 -4 -2 -17z m50 -46 c3 -22 8 -27 31 -27 15 0
36 -7 47 -15 18 -14 18 -14 0 -15 -17 0 -16 -3 8 -34 30 -40 33 -72 9 -98 -21
-23 -55 -23 -84 1 -21 16 -24 27 -22 80 0 34 -3 59 -8 55 -5 -3 -9 -11 -9 -17
0 -23 -17 -38 -33 -31 -25 9 -21 54 9 97 29 43 47 44 52 4z m162 -163 c0 -18
-9 -42 -20 -55 l-20 -24 15 38 c9 21 13 48 10 60 -16 55 -16 63 -1 37 9 -14
15 -39 16 -56z m275 -248 c83 -38 145 -126 130 -183 -7 -26 -8 -26 -15 -8 -4
11 -19 31 -33 43 l-25 24 24 -48 c18 -36 24 -63 24 -113 0 -87 -13 -131 -50
-166 -35 -33 -36 -32 -13 32 21 61 21 148 0 189 -71 137 -266 117 -323 -32
-22 -59 -38 -57 -29 4 16 110 108 191 222 193 58 1 58 1 20 11 -93 25 -202
-28 -249 -123 -32 -63 -35 -106 -11 -193 10 -40 14 -75 9 -100 -7 -37 -7 -37
-32 -22 -31 21 -31 10 0 -23 17 -18 26 -43 31 -85 l7 -59 -34 6 c-31 6 -32 6
-14 -8 11 -8 26 -15 33 -15 9 0 13 -14 12 -42 -1 -53 -21 -143 -31 -140 -5 1
-14 2 -21 2 -16 0 -67 45 -90 80 -24 35 -22 3 3 -37 10 -18 35 -43 55 -55 37
-24 42 -37 23 -56 -9 -9 -3 -11 27 -9 35 2 41 -2 68 -39 60 -85 41 -185 -43
-233 -24 -13 -41 -20 -38 -15 53 110 57 169 15 233 -32 49 -109 101 -146 100
-26 -1 -26 -1 5 -14 42 -19 110 -96 119 -134 9 -40 -1 -112 -19 -136 -11 -16
-14 -14 -34 19 -27 45 -77 76 -122 75 -21 -1 -27 -3 -15 -6 89 -22 164 -184
141 -306 -9 -47 -54 -112 -101 -144 -33 -22 -37 -23 -30 -7 38 94 47 132 42
183 -13 121 -114 178 -249 141 -78 -22 -138 -105 -140 -194 0 -25 -2 -46 -4
-46 -9 0 -33 60 -39 100 -14 96 66 227 166 269 56 25 61 36 9 21 -19 -5 -35
-8 -37 -6 -7 6 67 57 105 72 l37 14 -38 -4 c-38 -5 -39 -4 -32 22 10 40 43 71
95 87 45 14 45 14 11 14 -36 1 -121 -34 -121 -50 0 -5 -4 -9 -10 -9 -34 0 39
142 93 181 36 26 38 29 16 29 -14 0 -35 -7 -47 -16 -13 -9 -25 -14 -27 -12 -2
2 -7 31 -10 65 l-7 62 29 -11 c17 -6 38 -8 49 -3 17 7 16 8 -9 16 -16 4 -35
13 -43 20 -19 15 -18 49 1 49 43 0 165 97 165 131 0 5 9 31 21 56 23 52 23
144 -1 166 -10 10 -11 7 -6 -17 4 -16 4 -42 0 -59 l-6 -31 -19 49 c-10 27 -26
56 -35 64 -15 15 -16 14 -9 -4 29 -75 34 -95 35 -138 0 -56 -15 -90 -62 -134
-35 -33 -75 -53 -109 -53 -17 0 -15 5 15 34 84 78 91 208 17 286 -53 56 -106
62 -206 25 -13 -4 -7 5 17 28 40 39 102 61 154 55 25 -3 31 -1 23 8 -8 9 -2
17 21 29 45 23 87 11 134 -39 33 -35 37 -37 31 -16 -17 60 -70 100 -132 100
-22 0 -25 2 -13 10 8 5 36 10 62 10 131 0 186 -97 142 -250 -9 -32 -17 -105
-19 -171 -2 -64 -8 -126 -14 -138 -7 -11 -26 -28 -44 -38 -41 -21 -20 -29 26
-9 33 13 36 13 56 -10 29 -34 46 -30 25 5 -16 26 -16 36 -5 88 7 32 22 78 33
103 13 27 23 80 28 135 9 107 37 172 99 228 43 39 63 49 40 20 -10 -12 -4 -11
24 6 77 47 147 52 222 17z m-434 2 c1 -7 1 -17 0 -22 -3 -18 23 -36 54 -36
l32 0 -29 -56 c-15 -31 -28 -64 -28 -73 0 -9 -5 -23 -11 -31 -8 -11 -9 0 -5
40 5 44 1 66 -19 114 -13 33 -22 63 -19 68 8 12 24 10 25 -4z m399 -194 c89
-76 80 -153 -49 -419 -74 -152 -127 -221 -209 -274 -27 -17 -52 -31 -56 -31
-3 0 9 24 29 53 48 71 90 214 110 376 9 73 14 135 12 138 -5 5 -16 -40 -53
-222 -14 -71 -29 -133 -33 -137 -9 -10 -3 189 9 300 15 138 44 201 105 228 50
22 100 17 135 -12z m-715 -8 c32 -21 58 -72 51 -101 -3 -13 -28 -37 -58 -56
-62 -40 -115 -85 -128 -109 -5 -9 35 12 88 47 53 34 100 63 104 63 19 0 -17
-70 -54 -104 -24 -21 -62 -56 -86 -77 -58 -53 -81 -107 -82 -194 -1 -58 -3
-66 -12 -45 -5 14 -13 66 -16 115 -4 61 -8 82 -13 65 -20 -71 -1 -194 42 -269
28 -47 18 -48 -24 -2 -49 54 -74 106 -99 204 -60 239 58 498 219 483 24 -2 54
-11 68 -20z m-256 -53 c-8 -10 -20 -24 -26 -31 -7 -7 -13 -16 -13 -20 0 -4
-20 -16 -44 -26 -41 -18 -43 -21 -36 -50 4 -17 17 -50 28 -73 28 -54 31 -147
5 -157 -32 -13 -168 -14 -275 -3 -94 9 -108 13 -108 29 0 12 7 18 24 18 15 0
26 7 29 20 3 11 10 20 17 20 7 0 14 -9 17 -20 5 -17 14 -20 59 -20 30 0 54 1
54 3 0 2 -11 18 -24 36 l-24 33 41 65 c84 134 158 190 256 192 30 1 32 -1 20
-16z m586 -56 c0 -12 -10 -36 -23 -52 l-23 -30 6 40 c5 31 26 65 40 65 0 0 1
-10 0 -23z m840 -78 c43 -20 74 -53 88 -91 6 -18 -7 -25 -17 -9 -3 5 -16 11
-28 14 -20 6 -19 4 6 -20 16 -14 34 -41 42 -59 16 -38 19 -171 4 -194 -7 -11
-10 -4 -10 26 0 49 -23 120 -48 147 -45 51 -157 72 -227 43 -19 -8 -45 -32
-61 -55 -25 -39 -26 -46 -21 -122 5 -76 4 -80 -11 -65 -13 13 -17 35 -17 89 1
104 39 169 123 212 51 25 31 29 -26 5 -64 -28 -108 -82 -127 -157 -13 -50 -13
-66 -1 -111 12 -47 11 -52 -3 -52 -30 0 -63 32 -87 84 -24 53 -32 39 -14 -23
10 -38 56 -91 77 -91 22 0 14 -27 -14 -50 l-27 -21 -12 29 c-14 34 -63 82 -83
82 -10 0 -7 -9 11 -27 61 -66 64 -109 11 -144 -26 -16 -49 -46 -73 -90 -33
-64 -66 -109 -79 -109 -3 0 -6 28 -6 63 -1 64 -18 111 -58 154 -11 13 -19 24
-16 26 2 2 22 14 44 28 91 59 172 167 226 302 13 32 32 63 44 69 11 6 41 30
66 53 25 23 56 48 69 55 14 8 7 -3 -18 -27 -23 -22 -42 -46 -42 -53 0 -6 12 1
28 17 32 35 80 61 142 79 66 18 95 17 145 -7z m-3503 -99 c9 0 31 -20 48 -45
l31 -45 -26 10 c-73 28 -105 54 -98 81 4 14 9 17 16 10 6 -6 19 -11 29 -11z
m467 -21 c1 -6 -64 -44 -101 -58 l-27 -10 30 45 c18 26 38 44 49 44 10 0 22 5
26 12 5 8 10 6 15 -8 4 -10 8 -22 8 -25z m3015 -62 c107 -60 107 -205 1 -386
-102 -174 -321 -288 -461 -240 l-39 13 55 8 c134 20 251 113 281 222 l8 31
-17 -24 c-31 -44 -82 -103 -109 -124 -22 -18 -21 -14 9 25 47 61 72 145 64
211 -16 130 -18 202 -4 220 12 16 16 8 41 -75 l27 -93 -6 109 c-4 85 -3 111 8
117 26 17 102 9 142 -14z m-1154 -1 c0 -8 -23 -34 -51 -58 -28 -24 -59 -59
-69 -78 -18 -33 -19 -33 -20 -10 0 60 20 101 68 131 51 32 72 36 72 15z m-733
-160 c-2 -5 -16 20 -31 57 -18 42 -26 73 -21 84 5 13 14 -2 31 -57 13 -41 22
-79 21 -84z m-1557 134 c13 -9 13 -12 -3 -24 -13 -10 -15 -15 -5 -19 10 -3 10
-9 2 -23 -5 -11 -10 -30 -10 -44 1 -23 4 -24 47 -21 34 2 49 -2 60 -15 9 -11
9 -15 2 -10 -8 4 -13 1 -13 -8 0 -18 -25 -22 -35 -6 -9 15 -96 12 -114 -3 -9
-8 -32 -20 -51 -27 -19 -7 -49 -26 -67 -43 l-31 -29 -20 20 c-23 23 -19 32 13
32 12 0 43 14 68 31 47 31 64 49 28 29 -27 -14 -36 -13 -21 4 8 10 -1 9 -29
-5 -49 -23 -127 -37 -117 -20 4 6 21 11 37 11 16 0 51 11 77 25 26 14 54 25
63 25 31 0 59 38 83 113 6 19 15 21 36 7z m384 -25 c8 -40 51 -95 74 -95 21 0
131 -52 131 -62 1 -9 -76 20 -99 36 -13 10 -13 9 -1 -6 15 -20 9 -23 -20 -8
-32 18 -21 4 21 -25 22 -15 53 -30 70 -34 17 -3 31 -11 32 -16 1 -6 8 -16 17
-23 13 -11 12 -11 -8 -2 -19 10 -25 9 -32 -1 -6 -11 -14 -8 -36 13 -47 44
-140 88 -188 88 -24 0 -47 -4 -50 -10 -10 -16 -35 -12 -35 6 0 9 -5 12 -12 8
-8 -5 -8 -1 1 10 11 13 26 17 59 15 33 -2 46 1 53 14 7 12 6 17 -3 17 -10 0
-10 2 0 9 11 7 11 9 -2 14 -19 7 -22 37 -3 37 6 0 4 5 -5 11 -30 17 -22 30 23
38 4 0 10 -15 13 -34z m1491 -72 c78 -24 133 -61 155 -104 11 -21 20 -40 20
-43 0 -13 -72 -26 -120 -21 -136 12 -314 64 -331 97 -16 29 -7 31 47 7 56 -25
140 -49 169 -48 12 0 5 6 -19 15 -67 24 -106 53 -106 79 0 45 75 52 185 18z
m390 17 c3 -5 2 -10 -4 -10 -5 0 -13 5 -16 10 -3 6 -2 10 4 10 5 0 13 -4 16
-10z m-5 -150 c0 -15 -7 -44 -15 -63 -8 -20 -12 -44 -9 -54 5 -15 2 -14 -14 4
-10 12 -22 41 -26 63 -4 23 -13 54 -20 69 -9 19 -10 36 -4 61 l10 35 39 -44
c25 -28 39 -53 39 -71z m-2425 50 c-3 -5 -25 -15 -48 -21 -23 -7 -47 -17 -54
-22 -7 -5 -17 -6 -23 -2 -18 11 0 25 33 25 18 1 43 7 57 15 29 17 44 19 35 5z
m740 -13 c71 -17 69 -17 57 -29 -7 -7 -15 -8 -24 -1 -7 5 -32 15 -55 22 -23 6
-45 17 -49 23 -5 8 -1 9 12 3 10 -4 37 -12 59 -18z m60 13 c3 -5 -3 -10 -14
-10 -12 0 -21 5 -21 10 0 6 6 10 14 10 8 0 18 -4 21 -10z m-920 -60 c3 -5 -1
-10 -9 -10 -9 0 -16 5 -16 10 0 6 4 10 9 10 6 0 13 -4 16 -10z m930 0 c3 -5
-1 -10 -10 -10 -9 0 -13 5 -10 10 3 6 8 10 10 10 2 0 7 -4 10 -10z m2490 -67
c-26 -64 -85 -142 -134 -177 -46 -33 -86 -53 -79 -39 2 5 16 34 32 65 15 32
41 67 58 79 16 12 40 30 52 41 27 24 80 67 84 68 1 0 -5 -17 -13 -37z m-1380
-45 c86 -25 308 -31 367 -10 32 11 41 11 70 -4 l33 -17 -34 -14 c-88 -36 -280
-44 -422 -17 -94 18 -103 23 -118 66 -10 29 -10 30 12 23 12 -4 54 -16 92 -27z
m-135 -8 c0 -5 -4 -10 -10 -10 -5 0 -10 5 -10 10 0 6 5 10 10 10 6 0 10 -4 10
-10z m-45 -16 c-35 -27 -99 -57 -134 -63 -19 -3 -36 -12 -39 -20 -4 -11 3 -13
28 -7 18 3 46 13 62 20 15 8 28 11 28 8 0 -4 -38 -27 -85 -52 -47 -25 -85 -48
-85 -52 0 -11 -38 -10 -59 2 -16 8 -51 76 -51 98 0 4 47 7 104 7 99 0 105 2
172 37 75 40 90 46 59 22z m75 -75 c0 -29 -87 -137 -127 -158 -41 -22 -40 -27
2 -11 28 11 27 3 -3 -32 -16 -19 -7 -24 15 -10 7 5 32 37 55 72 47 70 67 86
92 77 31 -12 18 -52 -30 -96 -50 -47 -91 -67 -165 -81 -73 -14 -234 12 -302
48 l-52 27 45 3 c24 2 49 7 55 12 6 5 31 12 55 15 115 15 220 67 295 144 36
38 41 40 52 24 7 -9 13 -24 13 -34z m357 -123 c57 -1 103 -4 103 -8 0 -5 -10
-18 -21 -29 -19 -19 -28 -21 -91 -15 -76 8 -128 23 -128 38 0 5 -4 6 -10 3
-11 -7 -61 17 -79 39 -9 11 3 10 56 -7 50 -15 96 -21 170 -21z m-221 -99 c-1
-62 -1 -62 27 -60 16 1 27 -3 27 -11 0 -9 -9 -12 -24 -9 l-25 5 22 -43 c12
-24 28 -49 36 -55 16 -12 7 -69 -9 -59 -6 4 -7 11 -4 17 5 7 1 9 -9 5 -12 -5
-17 -1 -17 12 0 10 -8 29 -18 41 -28 34 -60 19 -68 -31 -7 -42 -15 -47 -34
-25 -6 8 -18 12 -26 9 -24 -9 -16 14 11 31 14 9 25 21 25 27 0 6 -14 0 -31
-13 -17 -13 -37 -27 -45 -33 -9 -6 -19 -2 -34 15 -28 32 -21 43 29 52 107 18
154 107 116 219 l-15 44 34 -38 c31 -35 33 -42 32 -100z m119 27 c28 -8 75
-14 106 -14 l57 0 -5 -47 c-4 -35 -13 -56 -34 -78 -24 -25 -37 -30 -94 -33
-73 -5 -106 9 -80 34 7 8 21 11 30 8 13 -5 16 -2 13 12 -4 23 -65 65 -84 57
-15 -6 -19 23 -8 65 5 18 11 21 28 16 11 -4 44 -13 71 -20z m542 -6 c69 -32
82 -141 31 -265 -71 -176 -39 -278 87 -276 28 0 67 8 88 16 21 9 35 12 32 7
-11 -18 -78 -47 -137 -60 -70 -16 -147 -2 -202 35 -19 13 -33 18 -30 11 10
-25 87 -65 139 -71 89 -12 177 14 246 72 l33 28 -20 -34 c-58 -100 -222 -143
-332 -87 -59 31 -135 106 -161 160 -23 47 -51 177 -51 234 0 67 18 139 45 183
35 54 41 45 13 -17 -20 -42 -23 -65 -22 -159 0 -82 5 -119 17 -145 10 -19 14
-26 11 -15 -27 79 -6 272 37 342 37 60 104 75 176 41z m118 -330 c-7 -18 -68
-58 -88 -58 -30 0 -17 14 36 41 29 14 53 27 54 28 1 0 0 -5 -2 -11z"/>
<path d="M6355 4050 c-26 -28 -15 -31 12 -3 12 13 19 23 14 23 -4 0 -16 -9
-26 -20z"/>
<path d="M6576 4050 c6 -8 16 -24 22 -35 6 -11 12 -15 12 -8 0 7 -10 22 -22
35 -13 13 -18 17 -12 8z"/>
<path d="M6405 4018 c-45 -26 -47 -73 -6 -117 60 -64 171 -23 171 63 0 29 -5
38 -30 51 -34 18 -106 19 -135 3z"/>
<path d="M7045 3244 c-82 -53 -154 -99 -159 -104 -9 -9 135 -110 158 -110 35
0 271 71 290 87 53 46 166 157 166 164 0 4 -35 19 -78 33 -56 19 -97 26 -152
25 l-75 0 -150 -95z"/>
<path d="M6772 3105 c0 -16 2 -22 5 -12 2 9 2 23 0 30 -3 6 -5 -1 -5 -18z"/>
<path d="M6032 3005 c-3 -61 -1 -67 30 -100 22 -23 45 -37 68 -40 29 -4 31 -4
9 4 -48 16 -66 30 -83 65 -22 47 -20 81 7 107 15 15 17 20 6 16 -9 -3 -21 -1
-26 4 -5 5 -10 -17 -11 -56z"/>
<path d="M8113 2772 c-18 -9 -33 -20 -33 -25 0 -5 14 -38 31 -73 29 -58 35
-64 63 -64 56 0 57 9 16 93 -21 43 -39 80 -41 81 -2 2 -19 -3 -36 -12z"/>
<path d="M5688 4863 c-37 -4 -38 -5 -38 -44 0 -45 11 -72 47 -110 l24 -26 -31
-31 c-26 -26 -29 -35 -20 -52 14 -26 22 -25 47 3 45 49 45 61 3 102 -39 38
-67 96 -56 114 13 21 47 19 75 -5 44 -36 63 -32 59 14 -3 35 -5 37 -38 38 -19
1 -52 -1 -72 -3z"/>
<path d="M7147 4863 c-4 -3 -7 -21 -7 -40 0 -39 18 -43 61 -12 16 11 39 19 52
17 18 -2 22 -9 20 -37 -1 -25 -12 -45 -47 -80 l-47 -47 31 -42 c32 -44 47 -52
56 -27 4 8 11 12 16 9 21 -13 -13 35 -39 55 l-26 22 33 34 c29 30 34 43 38 92
l4 58 -69 3 c-38 1 -73 -1 -76 -5z"/>
<path d="M7380 4494 c-14 -7 -36 -16 -50 -18 -49 -11 -55 -20 -37 -58 27 -57
29 -82 12 -129 -30 -81 -30 -83 12 -106 54 -30 97 -37 112 -20 9 12 6 20 -18
40 -17 14 -45 28 -62 32 -26 6 -30 10 -24 28 3 12 9 42 12 67 8 67 33 120 61
127 12 3 26 2 30 -2 15 -14 6 -110 -13 -142 -21 -36 -13 -53 34 -77 61 -31
118 -26 105 8 -7 19 -74 56 -100 56 -12 0 -15 5 -9 23 17 50 16 112 -2 146
-21 41 -29 44 -63 25z"/>
<path d="M8982 4342 c-8 -6 -12 -24 -10 -48 4 -49 24 -54 67 -19 40 35 65 30
69 -13 3 -28 -4 -40 -42 -79 -25 -25 -46 -54 -46 -64 0 -10 17 -36 38 -59 62
-64 109 -47 63 23 -10 15 -28 35 -40 44 l-23 15 31 32 c36 38 51 74 51 127 0
38 -1 39 -37 39 -21 0 -54 3 -73 5 -19 3 -41 2 -48 -3z m138 -297 c0 -8 -4
-15 -10 -15 -5 0 -7 7 -4 15 4 8 8 15 10 15 2 0 4 -7 4 -15z"/>
<path d="M4615 4111 c-14 -24 -75 -186 -75 -202 0 -9 -14 -44 -31 -77 -29 -60
-49 -78 -49 -47 0 8 -20 44 -44 79 -29 42 -48 84 -56 121 -6 30 -15 53 -20 50
-19 -12 -36 -181 -20 -200 6 -7 4 -19 -6 -33 -18 -26 -34 -28 -34 -4 -1 9 -19
30 -41 45 -22 15 -52 48 -67 72 -29 48 -39 54 -44 28 -5 -28 10 -144 21 -157
6 -6 6 -17 2 -24 -6 -9 -12 -7 -26 8 -10 11 -21 20 -26 20 -4 0 -23 15 -41 33
-19 17 -67 58 -106 90 -61 49 -72 55 -72 37 0 -17 33 -110 78 -219 8 -21 -154
68 -202 111 -23 20 -51 55 -61 78 -25 55 -40 38 -39 -43 2 -73 35 -168 68
-194 12 -10 21 -23 19 -29 -2 -6 10 -28 27 -49 16 -21 30 -39 30 -40 0 -2 -17
1 -37 6 -26 5 -40 4 -45 -4 -5 -8 -12 -6 -26 6 -10 9 -26 17 -36 17 -25 0 -73
27 -79 45 -4 8 -15 15 -25 15 -11 0 -40 16 -65 35 -56 43 -62 43 -42 5 22 -42
19 -53 -10 -46 -24 6 -25 5 -25 -49 0 -62 9 -86 49 -128 l26 -28 -32 -29 c-27
-24 -38 -28 -70 -24 -21 3 -50 10 -65 16 -47 17 -44 58 3 43 14 -5 19 -3 15 3
-3 6 0 12 6 15 21 8 -44 29 -69 22 -14 -3 -25 -16 -29 -32 -6 -21 -1 -32 23
-53 l30 -27 -85 -33 c-97 -39 -90 -42 -142 61 -45 87 -71 176 -79 264 l-7 80
-27 -53 -28 -53 -32 25 c-40 30 -97 59 -104 53 -2 -3 2 -18 10 -34 20 -38 78
-203 71 -203 -2 0 -23 9 -45 21 -23 11 -43 18 -46 16 -2 -3 9 -46 26 -97 17
-50 31 -93 31 -95 0 -1 -20 3 -45 11 -54 16 -56 10 -20 -62 31 -60 31 -69 3
-50 -57 40 -53 -6 11 -129 20 -38 37 -73 39 -77 2 -5 -15 -8 -37 -8 -23 0 -41
-3 -41 -8 0 -9 45 -77 77 -116 l24 -29 -31 -14 -32 -13 43 -52 c23 -29 69 -81
102 -114 l59 -62 -31 -7 c-17 -4 -31 -12 -31 -18 0 -6 19 -31 42 -55 43 -43
43 -50 3 -65 -5 -2 0 -18 13 -35 26 -36 27 -42 9 -42 -7 0 -22 -6 -32 -14 -19
-14 -19 -15 -2 -34 11 -11 44 -32 74 -47 47 -22 53 -28 42 -41 -10 -12 -7 -20
15 -43 15 -16 43 -37 62 -47 36 -19 44 -34 20 -34 -8 0 -18 -4 -21 -10 -9 -14
104 -84 159 -100 54 -15 62 -23 41 -40 -22 -18 -18 -30 10 -30 17 0 23 -4 19
-14 -7 -19 103 -72 186 -89 l64 -13 27 -84 c36 -116 106 -271 163 -360 19 -30
31 -56 26 -58 -5 -2 -37 11 -70 29 l-60 32 -137 -26 c-120 -22 -148 -31 -212
-68 -40 -24 -75 -49 -78 -56 -3 -7 4 -28 15 -47 l21 -35 -35 -57 c-34 -56 -36
-71 -18 -117 3 -8 -2 -22 -11 -31 -14 -14 -14 -16 -2 -16 9 0 18 6 21 13 4 6
4 1 2 -12 -6 -28 13 -61 34 -61 9 0 23 -9 32 -19 9 -11 25 -18 35 -17 10 2 23
-3 28 -10 6 -7 23 -15 39 -18 16 -3 32 -9 35 -14 3 -5 24 -12 46 -15 73 -9
146 -40 178 -75 10 -11 54 -34 97 -51 76 -31 81 -31 122 -18 35 12 48 23 69
62 15 27 38 54 50 61 15 8 18 14 9 14 -12 0 -12 2 1 10 12 7 31 5 60 -5 31
-11 60 -14 104 -9 l60 7 -18 -21 c-18 -20 -15 -48 4 -37 5 4 24 -5 41 -19 54
-40 84 -48 147 -36 45 8 63 17 90 47 19 20 36 32 39 25 9 -28 46 -62 75 -70
42 -11 83 1 112 33 13 14 31 25 40 25 24 0 73 37 80 60 4 11 12 20 18 20 7 0
34 12 61 26 27 14 54 27 60 28 51 8 56 71 7 83 -14 3 -36 12 -48 20 -17 11
-22 12 -26 1 -3 -7 -6 4 -6 25 -1 20 1 37 4 37 3 0 40 7 82 16 93 19 140 42
188 91 41 42 43 70 5 64 -44 -6 -180 -4 -188 3 -4 4 3 15 16 24 26 20 64 114
55 138 -5 13 -14 14 -52 8 -51 -9 -109 -9 -146 0 -22 6 -25 12 -25 50 0 30 -8
55 -25 80 -14 20 -25 46 -25 57 0 18 4 19 38 13 20 -4 80 -29 132 -55 55 -29
137 -60 195 -75 91 -23 113 -25 240 -21 163 5 193 14 369 106 104 54 123 61
175 61 58 0 80 -11 94 -50 3 -8 6 -3 6 13 1 37 18 34 30 -5 5 -18 10 -25 10
-16 2 33 -19 67 -56 92 -37 25 -37 26 -11 26 36 0 88 -45 88 -76 0 -13 5 -24
10 -24 17 0 11 36 -12 65 -64 82 -211 73 -375 -24 -85 -49 -185 -81 -283 -88
-96 -7 -87 4 14 17 114 14 144 24 237 81 106 65 196 107 249 115 23 4 36 10
30 14 -40 25 156 28 227 4 26 -9 67 -30 91 -46 23 -16 42 -26 42 -23 0 25
-104 141 -159 178 l-23 15 43 10 44 10 -55 1 c-61 1 -87 8 -174 44 -54 23 -57
26 -37 36 27 15 44 47 36 71 -8 25 -49 36 -81 22 -31 -15 -22 -41 12 -34 33 6
32 -22 -1 -44 -41 -27 -230 -20 -323 11 -8 3 15 37 62 92 81 96 149 200 140
215 -4 5 -20 -4 -38 -20 -41 -40 -140 -99 -179 -108 -18 -3 -40 -13 -49 -22
-13 -11 -18 -11 -18 -3 0 9 -11 11 -42 6 l-42 -7 34 42 c25 31 30 44 20 50 -9
6 -7 10 10 15 36 12 81 120 82 200 2 86 -13 100 -42 41 -12 -25 -38 -60 -58
-76 -33 -27 -181 -110 -196 -110 -11 0 23 71 63 131 58 87 74 145 69 243 -7
105 -32 161 -108 240 -54 56 -59 65 -52 92 6 21 21 35 57 54 71 35 70 54 -2
75 l-58 17 25 20 c14 11 68 47 120 81 l95 62 0 45 0 45 -90 -4 -90 -3 25 28
c14 16 71 77 128 136 l102 107 0 52 0 52 -37 -6 c-21 -2 -44 -6 -52 -8 -23 -6
-54 67 -49 115 3 23 8 50 13 60 6 14 5 17 -3 12 -6 -4 -16 -24 -22 -44 -9 -35
-5 -65 14 -113 5 -12 -3 -18 -31 -27 -45 -13 -84 -47 -77 -65 4 -12 -55 -42
-65 -32 -3 3 5 28 16 55 l21 51 -21 13 c-12 8 -41 19 -64 25 -23 7 -45 16 -48
22 -12 18 -34 -11 -49 -61 -14 -46 -11 -84 9 -132 5 -13 2 -19 -11 -23 -11 -3
-37 -15 -58 -25 -22 -11 -40 -19 -42 -17 -2 1 8 54 22 117 36 169 64 320 64
350 0 22 -10 33 -51 59 -28 17 -54 31 -59 31 -5 0 -29 -28 -54 -62 -24 -35
-70 -88 -100 -118 -31 -30 -56 -60 -56 -68 0 -7 5 -10 10 -7 6 3 10 1 10 -4 0
-6 -9 -11 -20 -11 -13 0 -28 -12 -38 -30 -9 -16 -20 -30 -23 -30 -4 0 -10 44
-13 98 -9 132 -17 197 -25 210 -10 16 -127 27 -136 13z m103 -27 c28 -6 31
-11 37 -57 4 -27 4 -119 0 -203 -7 -149 -8 -155 -37 -200 -17 -25 -37 -62 -44
-82 -6 -20 -18 -37 -25 -37 -8 0 -15 -9 -17 -20 -2 -11 -8 -24 -13 -29 -5 -6
-9 -18 -9 -28 0 -36 21 -17 51 45 36 76 100 179 107 173 5 -6 -25 -185 -39
-231 -7 -25 -15 -31 -36 -30 -25 0 -30 -7 -60 -84 -18 -47 -33 -86 -33 -88 0
-2 10 -3 23 -3 29 0 83 -33 97 -60 11 -21 8 -31 -27 -67 -19 -21 -37 -15 -91
31 -45 38 -141 86 -173 86 -5 0 -8 23 -7 53 2 35 -1 51 -8 50 -7 -1 -35 22
-63 52 -42 44 -51 60 -51 89 0 42 13 46 36 11 9 -14 20 -25 24 -25 5 0 25 43
45 95 21 53 40 93 43 90 3 -3 9 -24 12 -48 5 -30 7 -15 6 48 0 85 3 96 43 185
23 52 53 115 65 140 13 25 29 63 37 85 l13 40 7 -40 c4 -22 9 -60 10 -85 2
-39 3 -36 10 25 4 39 5 82 3 98 -6 30 4 33 64 21z m277 -195 c13 -74 -35 -168
-133 -264 -37 -36 -70 -65 -74 -65 -17 0 -6 20 33 62 40 41 99 148 99 177 0 8
-7 23 -16 32 -16 17 -14 21 20 59 20 22 36 48 36 58 1 30 28 -14 35 -59z m22
19 c-3 -8 -6 -5 -6 6 -1 11 2 17 5 13 3 -3 4 -12 1 -19z m-569 -141 c4 -55 -8
-60 -30 -14 -12 24 -13 36 -4 50 18 28 31 14 34 -36z m-12 -112 c-3 -11 -11
-28 -19 -39 -13 -17 -15 -15 -35 27 -35 74 -37 92 -11 118 l22 22 24 -54 c13
-29 22 -63 19 -74z m851 66 c28 -53 22 -86 -18 -106 -15 -8 -30 -15 -33 -15
-13 0 -36 75 -36 115 0 49 6 57 39 53 17 -2 31 -16 48 -47z m143 -21 c0 -5 -4
-10 -10 -10 -5 0 -10 5 -10 10 0 6 5 10 10 10 6 0 10 -4 10 -10z m-59 -178
c-115 -112 -190 -191 -184 -195 6 -4 40 0 75 8 36 8 105 17 154 21 l89 6 -115
-72 c-63 -40 -137 -83 -163 -96 -45 -23 -55 -44 -21 -44 25 0 6 -19 -44 -44
-76 -38 -92 -41 -92 -17 0 40 -41 24 -224 -85 l-89 -54 -32 47 c-18 27 -30 53
-26 60 3 6 43 46 89 88 65 61 85 75 96 66 7 -6 20 -9 29 -6 11 5 200 233 269
327 12 16 350 177 373 177 6 1 -77 -84 -184 -187z m249 173 c0 -15 -62 -88
-134 -160 -23 -22 -64 -66 -93 -97 -40 -45 -60 -60 -94 -67 -24 -6 -45 -8 -47
-7 -4 5 351 346 360 346 5 0 8 -7 8 -15z m-1266 -85 c7 -24 6 -24 -18 5 -26
30 -33 55 -19 69 8 8 24 -25 37 -74z m-784 -100 l82 -90 -27 -10 c-14 -5 -44
-13 -65 -16 -35 -6 -38 -5 -33 14 4 15 -7 32 -40 64 -65 62 -77 128 -23 128
17 0 46 -24 106 -90z m750 65 c17 -20 9 -46 -17 -56 -21 -8 -23 -6 -23 31 0
42 17 53 40 25z m60 -81 c0 -3 -5 -14 -11 -26 l-11 -20 -19 21 c-26 27 -24 31
11 31 17 0 30 -3 30 -6z m-326 -156 c-55 -41 -147 -133 -190 -192 -50 -67 -58
-63 -14 8 42 65 116 144 169 178 53 33 77 38 35 6z m1483 -11 c-6 -16 -243
-167 -263 -167 -36 0 -10 22 120 101 77 47 143 84 145 83 2 -2 1 -9 -2 -17z
m-1627 -46 c0 -15 -41 -61 -55 -61 -19 0 -47 -48 -40 -69 3 -11 -4 -26 -21
-42 -14 -13 -26 -23 -27 -22 -5 6 -47 -10 -47 -18 0 -5 -5 -9 -11 -9 -7 0 -9
11 -5 30 5 28 4 30 -14 20 -16 -8 -20 -8 -20 4 0 19 55 76 73 76 9 0 22 8 29
18 12 17 114 80 131 81 4 1 7 -3 7 -8z m-612 -127 c7 -8 20 -14 28 -14 45 0
315 -148 287 -157 -6 -2 -58 21 -115 51 -76 39 -120 56 -164 61 -59 7 -94 26
-94 52 0 7 -4 13 -10 13 -5 0 -10 5 -10 11 0 14 59 1 78 -17z m1166 1 c28 -8
60 -22 73 -30 12 -8 28 -15 35 -15 37 -1 144 -140 178 -231 12 -32 27 -59 32
-59 5 0 -11 -24 -37 -52 -40 -44 -53 -53 -84 -53 -20 -1 -48 -5 -63 -9 -24 -7
-28 -5 -28 13 0 12 -4 21 -9 21 -5 0 -12 12 -16 27 -24 98 -135 200 -257 237
-23 7 -23 44 -1 68 16 18 16 18 -1 12 -9 -4 -20 -19 -23 -34 -5 -26 -10 -29
-62 -34 -31 -3 -72 -5 -92 -5 -34 1 -36 2 -25 25 6 13 14 24 18 24 11 0 58 49
56 58 -3 9 49 34 77 38 11 1 31 7 45 13 30 13 116 6 184 -14z m-1012 -181 c29
-15 63 -33 75 -41 l22 -15 -30 -25 c-25 -22 -32 -23 -46 -12 -24 19 -117 119
-121 130 -5 11 30 -1 100 -37z m1852 24 c-9 -31 -9 -31 -35 -18 l-22 13 24 13
c34 19 41 17 33 -8z m-69 -63 l40 -13 -40 -1 c-75 -2 -115 -40 -80 -75 12 -11
35 -16 77 -16 34 0 59 -3 56 -6 -9 -8 -118 -11 -118 -3 0 4 -9 5 -20 2 -22 -6
-23 -8 -14 -41 5 -18 12 -22 29 -18 15 4 32 -2 49 -15 37 -29 27 -34 -32 -13
-41 15 -51 23 -56 46 -3 15 -3 36 1 45 3 10 3 15 -2 11 -12 -11 -45 37 -44 64
0 14 3 18 6 8 3 -8 14 -23 24 -34 18 -19 18 -19 16 12 -1 16 -4 30 -7 30 -23
-2 -19 6 10 17 43 17 55 17 105 0z m-1361 -56 c13 -19 13 -25 -2 -54 l-17 -33
-22 45 c-12 25 -27 51 -34 59 -9 11 -9 14 0 14 7 0 9 5 5 11 -12 20 55 -21 70
-42z m-97 -22 c39 -36 52 -87 32 -124 l-14 -25 -12 28 c-12 29 -12 29 -13 4
-1 -14 -8 3 -15 38 -8 35 -24 79 -36 99 l-22 35 24 -12 c13 -7 39 -26 56 -43z
m1612 -48 c41 -70 46 -86 46 -166 0 -80 -1 -83 -34 -117 -35 -36 -57 -47 -48
-23 2 6 10 11 16 9 7 -1 10 2 7 7 -11 17 6 101 20 101 18 0 18 8 -1 26 -8 9
-15 27 -15 40 0 28 -26 84 -39 84 -8 0 -24 38 -22 53 1 4 -4 7 -10 7 -6 0 -1
9 12 19 23 18 25 18 39 2 8 -9 21 -28 29 -42z m-1739 -15 c13 -32 13 -95 0
-114 -7 -11 -10 -4 -10 27 0 68 -14 93 -52 93 -25 0 -29 3 -18 10 8 5 27 10
43 10 20 0 30 -7 37 -26z m1101 -97 c-21 -21 -32 7 -13 33 l17 25 3 -24 c2
-13 -1 -28 -7 -34z m580 -49 c14 -27 15 -38 6 -41 -7 -3 -6 -6 4 -6 9 -1 19
-7 22 -15 4 -10 -1 -14 -14 -13 -13 1 -22 13 -30 39 -6 23 -22 47 -39 60 -20
14 -26 24 -18 29 17 11 48 -12 69 -53z m-656 22 c10 -16 -14 -50 -35 -50 -11
0 -24 9 -30 20 -9 17 -7 22 12 30 31 12 46 12 53 0z m45 -22 c0 -7 -5 -20 -10
-28 -12 -20 -33 0 -24 23 7 20 34 23 34 5z m-119 -19 c13 -24 -3 -64 -29 -74
-12 -4 -14 1 -8 32 3 21 6 44 6 51 0 19 18 14 31 -9z m158 -60 c6 -30 21 -72
31 -92 26 -49 25 -51 -10 -30 -22 13 -30 25 -30 45 0 16 -7 45 -15 66 -15 36
-12 94 4 76 4 -5 13 -34 20 -65z m-60 5 c34 -43 36 -100 7 -183 -37 -105 -44
-111 -73 -59 -13 23 -42 61 -64 85 -43 47 -46 58 -23 91 15 22 44 30 44 12 0
-5 6 -10 14 -10 8 0 17 -7 20 -16 9 -24 19 -10 11 15 -3 12 -13 21 -21 21 -20
0 -17 12 11 43 32 34 48 34 74 1z m-503 -45 c29 -29 34 -41 28 -63 -9 -37 -41
-56 -94 -56 -69 0 -119 40 -120 97 0 45 30 64 97 61 46 -2 58 -7 89 -39z m859
31 c3 -5 17 -10 30 -10 50 0 73 -82 35 -120 -23 -23 -100 -28 -122 -7 -8 6
-22 17 -33 23 -24 13 -37 61 -24 86 17 32 99 52 114 28z m292 -32 c-3 -7 -5
-2 -5 12 0 14 2 19 5 13 2 -7 2 -19 0 -25z m-9 -55 c-14 -18 -19 -12 -11 16 4
16 8 19 14 10 4 -7 3 -19 -3 -26z m-807 -50 c13 -16 12 -17 -3 -4 -10 7 -18
15 -18 17 0 8 8 3 21 -13z m255 0 c22 -10 63 -37 91 -60 29 -23 71 -49 93 -59
22 -10 40 -21 40 -25 0 -3 -24 -17 -52 -29 -78 -33 -164 -32 -218 4 -22 15
-43 33 -46 40 -3 8 6 37 20 67 14 29 26 59 26 66 0 16 0 16 46 -4z m-1081 -63
c-52 -53 -76 -133 -83 -267 -2 -62 -7 -113 -10 -113 -2 0 -22 10 -44 22 -47
27 -68 62 -68 116 0 41 14 62 42 62 10 0 18 5 18 10 0 6 -13 10 -29 10 -29 0
-61 22 -61 41 0 27 22 49 50 49 17 0 30 5 30 10 0 6 -5 10 -11 10 -6 0 -9 12
-7 28 2 22 8 27 33 28 17 1 37 2 47 3 9 0 21 14 26 30 l10 29 46 -16 46 -17
-35 -35z m835 18 l49 -32 -32 -19 c-76 -47 -193 -72 -258 -57 -19 4 -27 8 -19
9 33 2 137 61 169 95 19 20 37 36 39 36 2 0 25 -14 52 -32z m-699 -49 c-17
-28 -40 -74 -51 -103 -10 -28 -34 -91 -53 -141 -25 -65 -37 -114 -42 -179 -11
-133 -29 -84 -23 63 4 88 12 135 31 196 31 95 93 202 128 220 41 23 45 0 10
-56z m-51 55 c0 -3 -14 -25 -30 -49 -38 -55 -100 -184 -100 -207 0 -10 -4 -18
-8 -18 -14 0 7 150 28 189 21 42 73 91 96 91 8 0 14 -3 14 -6z m141 -88 c-69
-104 -114 -247 -132 -420 -6 -61 -18 -126 -26 -145 -26 -58 -37 -23 -37 121
-1 119 2 142 27 220 15 47 49 129 76 181 26 53 51 106 54 119 l6 22 30 -28 30
-29 -28 -41z m95 -4 c-4 -11 4 -30 21 -50 26 -31 29 -32 48 -17 20 16 20 16
-2 10 -27 -7 -35 5 -18 28 9 13 20 15 46 10 33 -7 33 -7 9 -14 -23 -6 -23 -7
-6 -14 11 -5 26 -3 37 4 18 11 27 2 12 -13 -11 -10 -12 -37 -2 -30 5 3 7 10 4
15 -7 10 -6 11 58 14 27 2 47 -1 47 -7 0 -8 -13 -30 -46 -76 -5 -8 -73 11 -68
19 3 5 -5 5 -18 0 -13 -4 -24 -18 -26 -31 -3 -21 -7 -22 -49 -16 -38 5 -46 3
-50 -12 -5 -19 -70 -45 -79 -31 -3 5 3 9 13 9 15 0 14 2 -5 16 -18 12 -20 19
-11 35 7 15 7 29 0 51 -21 60 -4 67 31 13 13 -19 29 -35 37 -35 11 0 10 4 -3
19 -16 17 -16 20 -2 28 19 11 10 53 -12 53 -13 0 -12 3 3 20 22 25 38 26 31 2z
m567 3 c-3 -9 -8 -14 -10 -11 -3 3 -2 9 2 15 9 16 15 13 8 -4z m-523 -15 c0
-5 -7 -10 -16 -10 -8 0 -12 5 -9 10 3 6 10 10 16 10 5 0 9 -4 9 -10z m528 -31
c62 -21 122 -72 122 -104 0 -24 -57 -19 -70 5 -16 30 -95 28 -124 -3 -12 -13
-20 -29 -18 -35 2 -7 -1 -12 -6 -12 -6 0 -12 6 -14 12 -3 8 -19 11 -44 10 -22
-2 -53 2 -69 9 -17 7 -43 13 -60 14 -71 4 -69 2 -45 35 21 29 67 60 90 60 6 0
-1 -16 -16 -35 -32 -43 -23 -47 13 -5 15 18 34 30 49 30 13 0 24 5 24 10 0 6
10 10 23 10 12 0 29 5 37 10 22 14 39 12 108 -11z m-598 -4 c0 -8 -7 -15 -15
-15 -16 0 -20 12 -8 23 11 12 23 8 23 -8z m830 -117 c28 -65 33 -124 16 -216
-14 -78 -63 -228 -72 -219 -3 2 3 35 12 73 9 38 19 128 23 199 6 113 5 137
-11 180 -10 28 -18 54 -18 60 0 15 29 -30 50 -77z m-900 43 c0 -31 -31 -73
-38 -52 -5 16 18 81 29 81 5 0 9 -13 9 -29z m849 -54 c12 -68 5 -142 -10 -114
-14 24 -24 191 -12 184 6 -4 16 -36 22 -70z m-139 25 c0 -3 -17 -34 -37 -68
-29 -49 -40 -61 -50 -52 -7 6 -13 17 -13 24 0 8 -4 14 -10 14 -5 0 -10 5 -10
11 0 5 5 7 10 4 6 -3 10 -1 10 4 0 6 -5 11 -11 11 -11 0 -3 36 11 55 9 10 100
8 100 -3z m99 -122 c6 -55 6 -100 1 -109 -10 -19 -9 -21 -39 79 l-20 64 21 34
c11 18 22 31 24 29 2 -2 8 -46 13 -97z m-813 61 c-8 -13 -36 -15 -36 -3 0 4 5
13 12 20 14 14 34 0 24 -17z m226 6 c31 -8 61 -18 67 -22 18 -10 13 -27 -6
-21 -10 3 -38 8 -63 11 -100 12 -120 17 -120 29 0 31 12 31 122 3z m282 -29
c30 -37 33 -44 18 -50 -9 -4 -11 -7 -4 -7 19 -1 14 -21 -5 -22 -17 -1 -17 -2
0 -6 9 -2 17 -11 17 -19 0 -10 -13 -14 -46 -14 -43 0 -46 2 -40 23 3 12 6 28
6 36 0 11 5 9 22 -5 16 -13 19 -14 10 -2 -10 13 -10 17 0 21 7 3 -2 6 -19 6
-31 1 -33 -1 -33 -34 0 -31 -3 -35 -25 -35 -36 0 -43 40 -14 82 56 82 64 84
113 26z m-479 -51 c12 -49 21 -64 31 -55 3 4 1 16 -6 27 -9 17 -8 21 6 21 10
0 14 -5 10 -15 -3 -8 -1 -15 4 -15 15 0 12 -28 -4 -37 -8 -5 -13 -22 -12 -43
2 -69 -18 -39 -44 65 -22 87 -24 105 -12 103 8 -2 20 -24 27 -51z m729 3 c2
-14 16 -58 30 -99 15 -44 26 -96 26 -128 0 -48 -2 -53 -22 -53 -28 0 -42 10
-51 33 -4 10 -17 17 -32 17 -22 0 -25 4 -25 34 0 20 6 36 14 39 10 4 12 14 8
29 l-6 23 -7 -25 c-6 -17 -7 -9 -5 26 2 33 12 65 30 93 30 47 32 47 40 11z
m-604 -27 c0 -6 -62 -93 -67 -93 -3 0 6 76 12 96 3 11 55 8 55 -3z m215 -13
c3 -5 -1 -10 -10 -10 -9 0 -13 5 -10 10 3 6 8 10 10 10 2 0 7 -4 10 -10z m215
-12 c22 -28 18 -37 -15 -30 -18 3 -24 9 -21 19 3 8 6 19 6 24 0 15 11 10 30
-13z m417 -15 c-14 -15 -30 -23 -34 -19 -4 4 5 18 22 31 38 31 47 22 12 -12z
m-664 -28 c-5 -31 -3 -35 16 -35 11 0 21 -4 21 -10 0 -12 -59 -13 -76 -2 -8 5
-4 19 12 45 14 20 26 37 29 37 2 0 1 -16 -2 -35z m-394 -22 c5 -21 12 -56 16
-78 l6 -40 -25 40 c-27 43 -32 60 -15 49 8 -5 8 -1 0 14 -9 18 -6 52 5 52 2 0
7 -17 13 -37z m1197 -2 c-18 -20 -134 -71 -161 -71 -37 0 -8 21 63 44 42 15
84 31 92 36 23 15 25 12 6 -9z m-554 -153 c-11 -32 -16 -58 -11 -58 4 0 14 19
22 43 l14 42 59 0 c69 0 83 -23 24 -38 -44 -11 -69 -33 -86 -74 -21 -50 -17
-55 22 -28 47 32 77 33 72 3 -2 -15 -15 -25 -43 -34 -30 -10 -32 -12 -10 -9
17 2 40 7 52 11 16 4 22 1 25 -13 5 -25 -48 -67 -87 -70 -17 -1 -48 -12 -69
-24 -39 -23 -63 -19 -30 6 18 13 18 14 1 15 -11 0 -15 5 -11 11 3 6 1 15 -6
19 -9 6 -7 11 9 19 26 14 31 81 6 81 -11 0 -12 5 -5 26 17 43 12 81 -10 87
-28 7 -25 20 10 55 17 17 30 34 30 39 0 5 8 20 18 33 l17 25 3 -55 c2 -34 -4
-77 -16 -112z m-122 121 c0 -5 -18 -9 -40 -9 -36 0 -49 8 -35 21 8 8 75 -3 75
-12z m-20 -28 c0 -5 -7 -14 -15 -21 -16 -14 -18 -10 -9 14 6 17 24 22 24 7z
m-490 -77 c0 -19 -14 -17 -34 5 -10 11 -14 25 -10 36 7 17 9 16 26 -5 10 -12
18 -28 18 -36z m203 50 c3 -3 40 -8 83 -10 42 -1 79 -6 83 -9 3 -4 -9 -20 -27
-36 -18 -16 -28 -29 -22 -29 5 0 10 -7 10 -16 0 -9 9 -18 20 -21 31 -8 24 -20
-17 -32 -25 -7 -28 -9 -10 -7 15 2 27 -1 27 -5 0 -5 -4 -9 -10 -9 -5 0 -10 -7
-10 -15 0 -9 10 -15 26 -15 16 0 23 -4 18 -11 -4 -7 5 -10 27 -8 92 6 113 -7
57 -35 -18 -8 -26 -16 -17 -16 9 0 28 9 42 20 28 22 52 27 41 8 -5 -9 -2 -9 9
1 15 12 17 10 17 -22 0 -20 4 -47 9 -61 8 -18 5 -34 -10 -65 -10 -22 -19 -44
-19 -50 0 -8 -67 -5 -78 4 -1 1 -5 25 -9 54 -6 53 9 73 21 26 4 -14 10 -25 15
-25 13 0 0 54 -16 63 -7 5 -11 12 -8 18 4 5 -9 8 -27 8 -18 -1 -25 -3 -16 -6
11 -3 17 -13 16 -31 -1 -15 1 -48 6 -74 6 -38 4 -48 -7 -48 -8 0 -35 -11 -60
-24 -32 -17 -47 -21 -50 -13 -3 7 -8 0 -12 -15 -5 -21 -15 -29 -39 -33 -44 -8
-89 7 -101 33 -5 12 -13 22 -17 22 -5 0 -8 9 -8 20 0 21 15 27 25 10 8 -12 35
-13 35 -1 0 5 -13 11 -30 14 -31 7 -70 56 -70 90 0 29 14 19 32 -24 12 -28 26
-44 48 -52 16 -6 30 -15 30 -19 0 -19 32 -5 65 27 39 40 45 72 15 98 -19 16
-20 16 -20 -1 0 -26 -11 -34 -27 -21 -19 16 -16 39 9 66 12 13 17 23 11 23
-22 0 -44 -39 -41 -72 3 -31 5 -33 41 -32 43 1 47 -9 12 -32 -16 -11 -34 -14
-52 -10 -21 5 -24 4 -13 -4 8 -5 24 -10 34 -10 32 0 11 -11 -23 -12 -33 -1
-81 34 -81 59 0 15 16 17 25 3 15 -25 21 -6 11 41 -7 37 -7 55 2 69 10 16 9
18 -3 14 -9 -4 -15 0 -15 10 0 10 9 16 28 17 27 2 27 2 2 6 -14 3 -28 10 -31
15 -13 20 -39 -1 -38 -29 2 -24 2 -25 6 -5 5 26 18 29 20 5 0 -10 4 -39 8 -65
6 -36 4 -48 -5 -48 -22 0 -180 80 -180 91 0 7 8 6 23 -3 12 -8 30 -17 40 -21
29 -11 10 11 -26 29 -38 20 -57 38 -57 56 0 8 3 9 8 3 4 -7 16 -2 30 12 l24
22 -23 -6 c-21 -6 -21 -4 7 30 27 35 30 36 38 17 5 -11 12 -20 16 -20 4 0 10
-13 14 -30 6 -34 27 -38 82 -18 24 9 33 17 31 32 -2 19 4 21 56 24 31 2 58 6
58 10 10 58 8 61 -27 67 -110 17 -106 15 -94 31 13 15 23 18 33 8z m237 -35
c0 -24 -53 -80 -73 -77 -30 4 -31 22 -2 57 26 30 75 44 75 20z m720 -8 c0 -9
-78 -45 -122 -56 -18 -5 -28 -3 -28 4 0 12 18 21 90 44 57 18 60 19 60 8z
m-592 -19 c16 -11 5 -72 -15 -79 -8 -3 -27 -2 -44 3 l-29 9 25 38 c26 37 39
43 63 29z m-570 -32 c-12 -16 -26 -30 -32 -30 -5 0 3 14 19 30 16 17 30 30 32
30 2 0 -6 -13 -19 -30z m-28 16 c0 -3 -4 -8 -10 -11 -5 -3 -10 -1 -10 4 0 6 5
11 10 11 6 0 10 -2 10 -4z m905 -40 c19 -15 45 -46 57 -69 25 -49 35 -158 19
-201 -16 -40 -21 -30 -11 23 4 24 4 55 0 70 -5 21 -8 15 -12 -32 -4 -53 -30
-109 -52 -111 -4 -1 -14 17 -22 39 -7 22 -25 50 -39 63 -24 20 -26 26 -16 54
16 45 14 104 -5 122 -18 19 -66 21 -96 5 -16 -9 -19 -8 -13 2 6 9 3 10 -10 5
-18 -6 -18 -6 1 15 49 55 138 62 199 15z m-717 -9 c2 -17 -2 -28 -10 -29 -7 0
-17 -2 -23 -2 -5 -1 -15 -5 -22 -9 -7 -5 -16 0 -22 12 -16 29 -13 41 8 41 11
0 23 5 26 11 12 19 40 4 43 -24z m642 -67 c0 -5 -2 -10 -4 -10 -3 0 -8 5 -11
10 -3 6 -1 10 4 10 6 0 11 -4 11 -10z m-24 -107 c-10 -10 -19 5 -10 18 6 11 8
11 12 0 2 -7 1 -15 -2 -18z m-711 -15 c43 -20 20 -38 -37 -29 -12 2 -10 41 2
41 5 0 21 -5 35 -12z m687 -3 c14 -4 36 -17 48 -30 l21 -23 -45 5 c-40 5 -48
2 -76 -25 -48 -49 -36 -117 27 -147 26 -13 41 -14 63 -6 46 16 27 -14 -26 -39
-99 -49 -204 18 -204 130 0 43 18 88 44 109 22 19 88 41 106 36 8 -2 27 -7 42
-10z m-772 -39 c-1 -20 -2 -20 -15 4 -19 33 -19 46 0 30 8 -7 15 -22 15 -34z
m1015 -16 c9 -40 -27 -114 -65 -137 -15 -9 -26 -22 -23 -29 2 -7 -5 -15 -17
-19 -14 -4 -19 -12 -16 -23 7 -22 -4 -39 -34 -51 l-25 -10 26 0 c15 -1 32 6
39 14 20 24 23 11 7 -27 -8 -19 -27 -44 -43 -56 -30 -22 -18 -30 17 -12 17 10
19 7 19 -20 0 -24 -4 -30 -21 -30 -21 0 -21 0 2 -18 l22 -19 -38 -19 c-25 -12
-46 -33 -59 -59 l-21 -40 -6 30 c-11 52 -10 64 11 85 l20 20 -23 0 c-13 0 -27
4 -32 9 -6 6 -10 -7 -11 -37 0 -26 -8 -61 -17 -79 -9 -18 -17 -50 -17 -73 0
-64 -31 -114 -82 -133 -77 -28 -107 -26 -151 13 -19 17 -37 39 -40 50 -6 23 3
26 22 8 12 -11 13 -9 6 7 -15 39 -17 65 -6 65 6 0 16 -11 21 -24 28 -76 149
-71 180 8 l9 21 0 -21 c1 -31 -36 -73 -83 -96 l-41 -19 40 5 c29 4 49 15 74
42 l34 36 -7 84 c-7 78 -6 83 11 77 17 -6 17 -5 1 14 -10 11 -18 32 -18 46 0
19 5 27 18 27 16 1 16 1 0 11 -19 10 -23 57 -9 93 7 17 10 16 44 -14 46 -40
48 -33 5 16 l-33 37 33 -6 c21 -4 31 -3 27 3 -3 6 1 10 9 10 28 0 95 70 107
111 10 30 19 41 46 50 36 12 63 51 63 94 0 34 17 24 25 -15z m-957 0 c3 -7 0
-10 -6 -6 -6 3 -15 -2 -21 -11 -14 -25 -25 -9 -11 17 12 22 31 23 38 0z m25
-15 c-3 -9 -8 -14 -10 -11 -3 3 -2 9 2 15 9 16 15 13 8 -4z m756 -21 c29 -36
26 -60 -9 -96 -25 -24 -36 -29 -58 -24 -59 14 -81 80 -40 123 30 33 80 31 107
-3z m-751 -19 c11 17 11 16 6 -10 -9 -40 -18 -49 -33 -31 -8 9 -10 24 -5 38 7
22 7 22 14 3 7 -19 7 -19 18 0z m-60 -75 l58 0 15 -42 c13 -36 30 -53 102
-103 47 -33 134 -87 192 -120 159 -89 153 -83 113 -128 -39 -44 -122 -77 -195
-77 -102 0 -160 -35 -198 -120 -23 -50 -63 -68 -112 -51 -86 31 -124 53 -138
80 -23 45 -66 92 -94 103 -14 6 -69 14 -122 18 -126 9 -166 28 -198 94 l-25
50 41 75 40 76 -18 30 c-11 17 -19 35 -19 40 0 6 30 27 66 48 54 32 86 42 192
61 l127 22 57 -28 c43 -21 72 -28 116 -28z m98 41 c11 9 14 8 14 -8 0 -10 5
-24 12 -31 9 -9 6 -12 -15 -12 -15 0 -27 3 -27 8 0 4 -3 18 -5 32 -3 14 -2 19
1 12 5 -10 9 -10 20 -1z m410 -10 c-3 -5 -22 -12 -41 -15 -39 -8 -115 -75
-115 -102 0 -10 8 -6 25 13 l25 28 -16 -39 c-12 -30 -14 -56 -9 -103 6 -53 4
-62 -8 -57 -8 3 -18 15 -22 27 -4 14 -8 17 -12 9 -3 -9 -18 -5 -54 14 -27 15
-49 31 -49 36 0 15 31 71 62 110 37 47 118 88 176 88 24 0 41 -4 38 -9z m694
0 c0 -44 -52 -111 -84 -110 -12 0 -15 3 -8 6 18 7 15 23 -5 23 -20 0 -106 40
-100 47 3 2 29 -3 58 -11 62 -19 72 -20 64 -6 -3 6 -15 10 -26 10 -11 0 -30 5
-42 12 -21 11 -19 12 23 23 56 15 120 18 120 6z m-660 -43 c0 -13 -27 -9 -39
6 -10 11 -8 15 6 18 17 4 33 -8 33 -24z m-20 -29 c0 -5 -4 -9 -10 -9 -5 0 -10
-6 -10 -14 0 -8 -16 -24 -35 -36 -28 -17 -38 -19 -55 -10 l-21 11 20 32 c11
18 26 32 33 32 7 0 16 8 20 18 7 17 9 17 33 1 14 -9 25 -20 25 -25z m-395 0
c11 -17 -1 -21 -15 -4 -8 9 -8 15 -2 15 6 0 14 -5 17 -11z m79 -19 c26 -9 38
-43 14 -36 -7 3 -25 7 -40 10 -16 4 -28 13 -28 21 0 17 18 19 54 5z m382 -17
c18 -16 34 -31 34 -36 0 -4 -19 -24 -41 -44 -23 -21 -55 -61 -71 -90 -33 -58
-31 -57 -59 -43 -14 8 -19 21 -19 55 0 53 13 57 40 13 18 -30 20 -31 20 -10 0
13 -12 35 -26 49 -18 18 -22 29 -15 36 7 7 17 2 31 -16 30 -38 43 -34 20 6
l-20 34 30 26 c16 15 30 32 30 37 0 15 8 12 46 -17z m371 8 c16 -25 106 -51
176 -51 31 0 57 -5 59 -10 2 -6 27 -13 56 -17 46 -5 50 -7 35 -19 -23 -17
-124 -49 -183 -58 l-45 -6 -24 46 c-24 45 -76 94 -100 94 -8 0 -7 -9 4 -30 19
-37 19 -39 -4 -33 -13 3 -20 17 -24 46 -3 23 -3 45 -1 49 9 15 39 8 51 -11z
m-540 -74 c-6 -20 -27 -19 -27 2 0 14 5 19 15 14 9 -3 14 -10 12 -16z m219
-24 c-26 -53 -46 -136 -45 -186 0 -24 5 -14 19 38 l18 70 1 -68 c1 -83 -15
-154 -42 -184 -25 -28 -77 -31 -99 -5 -32 36 -30 52 13 104 42 49 42 49 21 64
l-22 15 30 57 c36 70 57 97 95 122 17 11 31 20 33 20 1 0 -8 -21 -22 -47z
m383 -27 c62 -127 16 -301 -85 -322 -21 -4 -36 0 -51 13 -37 31 -32 53 17 91
56 43 65 62 14 30 -63 -39 -64 -40 -64 -28 0 7 27 38 60 71 56 55 60 62 60
106 0 55 11 50 21 -10 l6 -42 2 40 c0 22 -8 60 -20 84 l-20 45 20 -18 c11 -10
29 -37 40 -60z m-69 -1 c0 -32 -22 -32 -37 0 -10 23 -9 25 13 25 19 0 24 -5
24 -25z m-543 -52 c-3 -10 -5 -2 -5 17 0 19 2 27 5 18 2 -10 2 -26 0 -35z
m523 -37 c0 -2 -7 -9 -15 -16 -13 -11 -14 -10 -9 4 5 14 24 23 24 12z m-69
-70 c-28 -30 -37 -87 -21 -127 15 -36 64 -61 101 -52 21 6 23 5 10 -10 -7 -9
-27 -17 -43 -17 -16 0 -36 -7 -44 -15 -21 -21 -46 -19 -78 6 -14 11 -26 16
-26 11 0 -13 42 -49 65 -55 11 -3 4 -5 -17 -6 -70 -2 -100 53 -74 135 13 45
15 46 15 17 1 -36 21 -56 21 -21 0 19 2 20 11 8 8 -11 9 -7 6 20 -7 51 16 98
55 115 44 19 45 19 19 -9z m-140 -79 c-17 -17 -24 -1 -10 25 12 21 14 21 17 4
2 -10 -1 -23 -7 -29z m-1002 -49 c24 -9 52 -34 81 -73 15 -19 14 -19 -10 -4
-44 28 -64 37 -137 65 -40 15 -73 29 -73 31 0 7 112 -9 139 -19z"/>
<path d="M4646 3730 c-15 -22 -21 -179 -8 -192 17 -17 23 25 20 122 -2 58 -6
80 -12 70z"/>
<path d="M3855 3240 c3 -5 8 -10 11 -10 2 0 4 5 4 10 0 6 -5 10 -11 10 -5 0
-7 -4 -4 -10z"/>
<path d="M4475 3025 c-25 -12 -26 -14 -5 -9 28 7 60 23 45 23 -5 0 -23 -6 -40
-14z"/>
<path d="M5422 2645 c0 -16 2 -22 5 -12 2 9 2 23 0 30 -3 6 -5 -1 -5 -18z"/>
<path d="M4426 2212 c-3 -6 -1 -14 5 -17 15 -10 25 3 12 16 -7 7 -13 7 -17 1z"/>
<path d="M4395 2200 c-9 -14 4 -50 17 -50 6 0 6 6 -2 15 -7 8 -10 22 -6 30 6
17 0 20 -9 5z"/>
<path d="M4091 1581 c-10 -6 1 -8 30 -4 24 3 46 7 48 9 10 9 -65 3 -78 -5z"/>
<path d="M4230 1532 c19 -11 37 -15 39 -10 4 13 1 15 -39 23 l-35 7 35 -20z"/>
<path d="M4011 1528 c-1 -10 -7 -18 -13 -18 -7 0 -5 -5 5 -11 23 -14 26 -10
16 21 -4 16 -7 19 -8 8z"/>
<path d="M4386 1465 c4 -8 10 -15 15 -15 4 0 6 7 3 15 -4 8 -10 15 -15 15 -4
0 -6 -7 -3 -15z"/>
<path d="M4234 1406 c11 -9 24 -16 30 -16 12 0 7 5 -24 19 -24 11 -24 11 -6
-3z"/>
<path d="M4591 1679 c-13 -5 -21 -12 -18 -15 3 -3 14 -1 25 5 26 14 107 14
135 0 21 -10 21 -10 3 5 -22 18 -106 21 -145 5z"/>
<path d="M4630 1379 c0 -12 -8 -23 -20 -26 -25 -7 -25 -15 -2 -36 22 -20 53
-22 70 -5 19 19 15 66 -7 78 -29 15 -41 12 -41 -11z"/>
<path d="M3390 1144 c0 -11 53 -190 61 -205 8 -15 18 -15 114 6 59 13 108 25
110 27 2 2 -61 43 -141 90 -79 48 -144 85 -144 82z"/>
<path d="M4068 1048 c-21 -6 -38 -15 -38 -20 0 -6 23 -32 52 -58 41 -37 65
-50 120 -64 77 -20 100 -17 142 17 l29 23 -89 57 c-95 61 -129 68 -216 45z"/>
<path d="M4361 1244 c0 -11 3 -14 6 -6 3 7 2 16 -1 19 -3 4 -6 -2 -5 -13z"/>
<path d="M7426 3925 c16 -44 16 -98 -1 -142 -15 -38 -15 -47 -4 -58 21 -21 90
-48 87 -34 -2 6 3 14 11 17 10 3 12 0 8 -12 -7 -17 8 -23 18 -7 8 15 -35 50
-76 63 l-37 11 14 41 c17 46 12 93 -12 122 -15 19 -15 19 -8 -1z"/>
<path d="M7260 3811 c0 -5 7 -14 16 -22 29 -24 44 -68 44 -129 0 -56 2 -61 26
-70 28 -11 94 -13 118 -4 25 10 19 33 -11 45 -16 6 -47 11 -70 11 l-43 0 0 44
c0 49 -11 76 -43 112 -21 23 -37 29 -37 13z"/>
<path d="M7314 2656 c-13 -33 57 -116 98 -116 17 0 17 2 5 28 -8 15 -12 32
-10 38 5 14 -53 64 -73 64 -8 0 -17 -6 -20 -14z"/>
<path d="M6175 1680 c10 -11 20 -20 23 -20 3 0 -3 9 -13 20 -10 11 -20 20 -23
20 -3 0 3 -9 13 -20z"/>
</g>
</svg>
