<?xml version="1.0" standalone="no"?>
<!DOCTYPE svg PUBLIC "-//W3C//DTD SVG 20010904//EN"
 "http://www.w3.org/TR/2001/REC-SVG-20010904/DTD/svg10.dtd">
<svg version="1.0" xmlns="http://www.w3.org/2000/svg"
 width="414.000000pt" height="896.000000pt" viewBox="0 0 414.000000 896.000000"
 preserveAspectRatio="xMidYMid meet">

<g transform="translate(0.000000,896.000000) scale(0.100000,-0.100000)"
fill="#051e40" stroke="none">
<path d="M350 8702 c0 -5 7 -13 16 -16 10 -4 14 -1 12 6 -5 15 -28 23 -28 10z"/>
<path d="M1440 8685 c-5 -14 -10 -34 -9 -43 0 -9 5 -2 10 16 18 61 69 24 69
-52 0 -12 4 -27 8 -33 5 -8 8 3 8 25 0 20 3 49 8 63 7 23 4 27 -21 33 -15 4
-36 9 -45 12 -13 4 -21 -3 -28 -21z"/>
<path d="M298 8689 c-14 -8 -15 -15 -8 -35 6 -14 11 -37 11 -52 1 -17 5 -8 11
23 5 27 14 55 20 62 13 16 -8 17 -34 2z"/>
<path d="M373 8619 c-15 -62 -8 -75 42 -81 53 -6 39 23 -17 37 -24 6 -26 9
-16 35 5 16 8 37 6 46 -2 9 -9 -8 -15 -37z"/>
<path d="M1444 8605 c5 -16 -3 -23 -34 -37 -22 -9 -40 -22 -39 -30 0 -7 3 -8
5 -2 2 6 17 9 32 6 18 -2 33 3 44 15 15 16 15 21 2 43 -11 19 -13 20 -10 5z"/>
<path d="M286 8551 c-10 -30 14 -51 58 -51 l31 1 -24 19 c-13 11 -29 20 -36
20 -8 0 -15 8 -17 18 -3 14 -6 12 -12 -7z"/>
<path d="M1504 8538 c-33 -8 -61 -34 -50 -45 3 -3 6 -2 6 4 0 6 10 8 23 6 24
-5 62 18 56 34 -3 6 -16 6 -35 1z"/>
<path d="M753 8446 c-170 -55 -292 -170 -293 -277 0 -19 -7 -43 -15 -53 -8
-11 -15 -28 -15 -38 0 -11 -11 -23 -27 -29 -18 -6 -23 -13 -16 -17 9 -6 9 -18
-1 -51 -11 -37 -14 -41 -25 -27 -8 10 -11 26 -7 42 10 38 -15 26 -37 -19 -15
-29 -16 -43 -8 -72 12 -43 93 -129 124 -131 12 0 41 -10 64 -22 23 -12 58 -22
78 -22 39 0 41 -4 20 -40 -8 -14 -14 -34 -14 -45 0 -11 6 -3 14 19 7 21 19 44
26 50 9 8 10 6 4 -9 -14 -38 -17 -110 -6 -185 5 -41 8 -76 6 -78 -5 -5 -30 87
-40 143 -4 22 -10 35 -12 28 -10 -28 20 -134 62 -218 65 -132 65 -132 -25
-162 -54 -18 -90 -24 -128 -21 -58 5 -64 -4 -37 -52 17 -29 19 -22 5 14 l-10
26 63 0 c40 0 78 8 107 20 45 20 45 20 20 0 -14 -11 -40 -22 -58 -26 -18 -3
-35 -10 -38 -15 -3 -5 -15 -9 -28 -9 -30 0 -39 -10 -24 -27 8 -10 8 -17 0 -25
-16 -16 -96 -22 -121 -9 -23 13 -27 5 -8 -20 20 -27 76 -50 141 -60 69 -9 215
9 241 31 21 17 29 7 21 -25 -4 -15 -21 -35 -41 -47 -19 -11 -35 -22 -35 -25 0
-4 0 -4 42 16 45 23 57 71 33 136 -5 16 -2 15 18 -7 14 -15 27 -25 30 -22 3 3
27 -2 55 -11 48 -16 83 -13 147 11 7 3 15 -3 18 -13 4 -15 5 -15 6 3 0 11 10
29 20 38 19 17 19 17 9 -21 -16 -64 23 -123 85 -127 12 -1 21 -7 20 -14 -2 -7
2 -12 7 -12 6 0 10 4 10 8 0 15 -24 32 -45 32 -25 0 -61 31 -70 60 -9 29 1 37
22 18 36 -31 234 -43 307 -18 43 14 86 47 86 66 0 11 -5 11 -24 3 -27 -13
-112 -4 -122 12 -3 5 -1 16 5 23 13 15 5 26 -21 26 -10 0 -26 4 -36 9 -9 6
-28 12 -42 15 -14 3 -36 15 -50 27 l-25 20 35 -17 c19 -9 68 -19 108 -22 39
-3 72 -7 72 -9 0 -2 -7 -18 -15 -36 l-16 -32 21 24 c18 21 21 29 20 59 0 4
-23 5 -50 4 -55 -4 -189 33 -197 54 -6 17 16 87 31 96 6 4 237 8 513 8 412 0
503 -2 510 -14 11 -19 51 -38 64 -30 7 4 4 13 -7 25 -20 22 -18 23 25 8 24 -8
35 -8 47 1 25 22 231 7 291 -21 l48 -22 -62 -7 c-129 -14 -273 -118 -273 -198
0 -10 -8 -27 -19 -36 -16 -15 -19 -15 -24 -1 -4 8 -18 15 -32 15 -18 0 -25 5
-25 19 0 10 -9 29 -20 42 l-21 24 15 -32 c9 -18 15 -42 13 -55 -2 -19 4 -24
31 -28 l34 -5 -32 -24 c-18 -13 -87 -55 -154 -93 -67 -38 -123 -72 -125 -74
-2 -2 10 -22 28 -44 l32 -40 -290 0 c-173 0 -311 -4 -343 -11 -93 -19 -177
-66 -248 -138 -70 -71 -110 -141 -135 -236 -67 -262 114 -548 383 -604 36 -7
305 -11 845 -11 l792 0 60 -29 c108 -50 177 -156 174 -265 -2 -70 -11 -90 -44
-93 -82 -5 -195 -27 -233 -43 -51 -23 -132 -80 -132 -93 0 -6 8 -3 18 5 24 22
83 51 89 44 10 -10 -58 -105 -80 -112 -12 -4 -25 -12 -29 -18 -5 -7 -8 -3 -8
9 0 20 -5 20 -892 15 -891 -5 -893 -5 -951 -27 -112 -42 -205 -116 -267 -212
-35 -55 -70 -148 -70 -185 0 -19 -13 -33 -54 -61 -58 -38 -86 -65 -68 -65 6 0
14 5 17 10 8 14 86 53 92 47 2 -3 -12 -30 -33 -61 -20 -31 -39 -54 -42 -51 -3
3 -17 -2 -30 -11 -24 -16 -25 -16 -20 4 4 14 1 19 -10 18 -19 -3 -30 -30 -31
-73 -1 -28 -7 -35 -36 -47 -51 -22 -77 -69 -72 -134 4 -56 28 -92 77 -115 18
-9 26 -22 28 -44 3 -29 1 -32 -29 -35 -26 -2 -37 -11 -56 -46 -20 -36 -22 -45
-11 -65 6 -12 11 -35 9 -50 -3 -35 20 -72 59 -92 17 -9 30 -23 30 -33 0 -32
29 -128 56 -188 42 -91 90 -163 157 -231 56 -57 60 -65 52 -89 -6 -15 -17 -30
-25 -34 -8 -4 -34 -16 -57 -28 -23 -12 -48 -22 -55 -22 -17 -1 -67 -39 -50
-40 10 0 10 -5 1 -22 -12 -22 -11 -22 8 -6 25 23 32 23 26 0 -4 -16 0 -18 29
-14 18 2 40 10 48 17 46 37 96 57 130 52 19 -3 44 -2 55 3 20 8 68 -14 110
-51 19 -16 71 -18 830 -19 786 -1 907 -5 956 -30 51 -27 106 -80 133 -130 34
-62 45 -156 26 -216 -19 -60 -68 -128 -119 -162 -51 -35 -61 -38 -61 -19 0 8
-12 24 -27 38 -20 17 -23 18 -11 3 17 -20 17 -21 -10 -47 l-28 -27 -545 -1
c-608 0 -621 -1 -733 -69 -233 -140 -312 -431 -184 -672 64 -121 202 -223 332
-247 39 -7 275 -11 678 -11 l618 0 39 -82 c47 -101 118 -199 171 -236 45 -31
45 -31 26 -77 -10 -22 -22 -35 -33 -35 -10 0 -29 -7 -41 -16 -13 -9 -35 -20
-50 -25 -27 -9 -27 -9 3 -5 16 2 38 0 48 -6 13 -7 23 -6 30 1 11 11 -1 16 -28
12 -5 -1 -1 6 9 14 11 8 26 15 33 15 7 0 21 13 31 29 13 22 22 27 32 20 10 -6
11 -12 5 -16 -6 -5 -10 -14 -9 -20 1 -7 2 -17 3 -22 0 -5 10 -7 21 -4 26 7 56
-5 44 -17 -5 -5 -25 -5 -44 -1 -27 6 -45 2 -80 -16 -25 -13 -50 -30 -56 -38
-7 -9 -19 -13 -28 -9 -25 10 -19 21 16 28 44 9 21 23 -33 20 -47 -2 -51 -5
-55 -41 -3 -25 -2 -26 10 -10 17 22 25 22 19 -1 -4 -16 0 -18 29 -14 18 2 40
10 48 17 31 25 110 56 137 54 15 -1 39 -1 53 0 l25 2 -24 19 c-13 11 -32 20
-42 20 -12 0 -19 7 -19 19 0 43 10 51 69 51 31 1 74 7 96 15 26 9 41 11 46 4
3 -6 16 4 28 23 19 28 21 29 15 8 -9 -32 -6 -77 7 -101 11 -21 59 -49 84 -49
18 0 20 -26 2 -33 -6 -2 -23 4 -36 15 -13 10 -27 16 -30 12 -3 -3 3 -12 13
-20 11 -8 14 -14 7 -14 -7 0 -9 -4 -6 -10 3 -5 1 -10 -5 -10 -6 0 -16 13 -21
30 -7 19 -18 30 -30 30 -10 0 -19 -4 -19 -8 0 -5 -9 -19 -20 -32 -19 -22 -20
-23 -20 -2 0 11 3 22 8 24 16 7 42 68 41 95 -1 23 -2 24 -6 5 -3 -12 -12 -22
-22 -22 -28 0 -43 -21 -25 -35 14 -10 14 -14 -3 -43 -17 -29 -17 -32 -1 -48
19 -19 36 -12 48 22 12 29 30 32 30 4 0 -26 41 -44 53 -24 4 8 22 14 38 14 28
0 30 2 27 32 -3 28 -8 33 -38 39 -38 8 -70 40 -70 70 0 18 2 18 24 4 13 -8 52
-17 87 -20 58 -3 60 -3 24 6 -44 10 -115 62 -115 84 0 21 19 28 37 14 9 -8 26
-31 39 -51 14 -21 29 -38 35 -38 8 0 7 5 -2 16 -11 13 -9 14 17 9 28 -7 28 -6
-6 12 -43 23 -95 95 -86 119 6 15 11 13 39 -14 33 -32 130 -82 159 -82 30 0 9
27 -33 44 -41 17 -55 32 -18 21 15 -5 19 -4 15 4 -4 6 -14 11 -22 11 -18 0
-78 30 -71 36 2 2 20 -3 40 -11 20 -8 61 -15 92 -15 60 0 67 -9 40 -48 -14
-19 -14 -21 -1 -16 12 5 36 53 36 74 0 3 -26 5 -57 2 -40 -2 -75 3 -113 16
-30 10 -63 18 -73 16 -17 -2 -18 2 -12 34 3 20 15 55 25 76 11 22 17 43 14 47
-2 4 1 20 7 36 21 56 30 197 15 247 -18 58 -11 59 14 3 31 -67 24 -145 -25
-272 -6 -14 -5 -17 3 -10 21 20 52 135 52 192 0 32 -7 71 -15 87 -22 41 -19
46 23 46 20 0 53 10 72 21 19 12 45 22 59 24 15 2 46 25 78 58 57 59 67 96 42
151 -17 37 -39 41 -39 8 0 -53 -16 -56 -32 -7 -14 41 -14 46 0 40 12 -4 13 -3
2 10 -7 8 -19 15 -26 15 -8 0 -14 6 -14 13 0 7 -8 29 -19 50 -14 28 -16 40 -7
50 11 13 109 56 138 61 25 3 89 46 84 55 -3 5 -20 11 -37 15 -38 7 -37 8 49
66 53 35 67 50 67 70 0 24 -3 25 -52 25 -29 -1 -53 1 -53 4 0 2 33 39 74 81
63 64 75 82 74 108 -1 21 -6 32 -16 32 -15 0 -155 -59 -206 -87 -22 -12 -30
-13 -36 -3 -4 7 -9 8 -11 4 -2 -5 -19 -17 -38 -27 l-33 -17 4 27 c3 16 15 75
27 132 27 127 25 146 -16 172 l-32 20 -81 -115 c-45 -64 -84 -116 -86 -116 -3
0 -2 5 1 11 8 12 -4 181 -14 197 -3 6 -24 12 -45 14 l-40 3 -70 -175 c-67
-166 -73 -176 -103 -184 -24 -7 -34 -17 -39 -39 -7 -32 -9 -33 -81 -42 l-52
-6 29 62 c65 138 64 283 -4 425 -42 88 -130 182 -212 226 -107 58 -113 58
-785 58 l-617 0 5 21 c5 19 4 20 -17 9 -14 -8 -40 -10 -69 -6 -32 4 -41 3 -31
-4 8 -5 27 -10 43 -10 15 0 27 -4 27 -10 0 -11 -93 -40 -131 -40 -27 0 -54 21
-42 33 3 4 -2 7 -13 7 -33 0 -82 38 -104 80 -28 55 -18 65 27 24 48 -44 189
-98 168 -64 -3 6 1 10 9 10 17 0 40 31 50 67 7 21 5 21 -47 16 -41 -4 -71 0
-123 17 -38 12 -73 26 -78 31 -11 10 9 84 34 119 9 14 27 50 39 81 22 52 26
56 75 70 47 14 54 20 85 77 19 34 39 58 44 55 6 -3 7 -1 3 5 -4 6 4 18 18 27
22 15 27 15 63 -1 35 -16 102 -18 805 -22 l767 -4 -12 -25 c-7 -16 -33 -35
-77 -55 -36 -16 -75 -34 -86 -40 -14 -6 -21 -19 -20 -34 0 -14 5 -19 10 -13
16 15 25 11 19 -9 -4 -16 0 -18 29 -14 18 2 42 12 53 21 39 32 94 53 125 49
33 -5 26 13 -7 19 -21 3 -116 -42 -134 -63 -9 -11 -15 -12 -26 -3 -11 10 -6
15 27 30 23 10 39 23 35 29 -3 5 -8 10 -11 10 -3 0 -3 -4 0 -8 3 -5 -11 -9
-32 -10 l-37 -1 45 19 c25 10 53 21 63 24 10 3 26 23 35 44 21 47 45 46 31 -1
-15 -51 -12 -57 27 -57 28 0 35 -3 30 -15 -4 -11 1 -15 17 -15 l21 0 -20 20
c-11 12 -30 22 -42 23 -15 1 -22 8 -22 22 0 41 13 47 105 47 92 0 105 -6 105
-47 0 -14 -7 -21 -22 -22 -12 -1 -30 -11 -41 -22 -20 -20 -20 -20 2 -18 13 1
20 6 17 14 -4 9 5 13 29 13 38 0 41 6 26 57 -14 49 12 50 34 1 9 -22 24 -42
34 -45 9 -3 36 -13 61 -23 l45 -19 -37 1 c-22 1 -35 5 -31 11 4 6 1 7 -7 2
-17 -10 13 -34 53 -42 25 -5 26 -7 10 -19 -15 -10 -21 -10 -33 1 -29 26 -110
65 -130 62 -33 -5 -35 -17 -4 -17 30 0 93 -27 123 -53 19 -17 81 -28 81 -15 0
23 -23 48 -43 49 -21 0 -21 1 -2 9 27 12 47 12 40 1 -3 -5 6 -22 20 -38 18
-19 23 -22 17 -8 -5 11 -8 25 -5 31 4 11 -2 14 -108 62 -51 24 -69 38 -79 62
-13 31 -12 33 21 58 103 80 190 226 232 386 19 75 25 86 54 101 35 19 59 71
48 104 -3 11 -1 22 5 26 15 9 11 46 -9 80 -13 22 -26 31 -49 33 -29 3 -32 6
-32 37 0 28 5 36 37 52 96 48 94 198 -4 242 -25 11 -32 21 -36 54 -6 43 -39
82 -45 54 -6 -27 -57 3 -91 52 -17 26 -31 50 -31 54 0 13 42 -3 78 -30 18 -14
35 -23 38 -21 6 6 -64 61 -104 82 -28 15 -33 21 -28 44 23 124 12 223 -40 329
-57 119 -153 204 -290 255 -59 23 -61 23 -889 28 -789 5 -832 6 -865 24 -64
34 -106 74 -136 128 -26 47 -29 62 -29 138 0 68 5 93 22 126 36 67 70 101 135
133 l61 31 503 0 c470 0 503 1 507 18 2 9 3 4 1 -11 -3 -19 0 -26 8 -21 7 4 8
3 4 -5 -4 -6 -3 -17 2 -24 5 -7 14 -27 20 -45 18 -52 7 -58 -115 -69 -35 -3
-63 -7 -63 -10 0 -2 7 -17 15 -34 14 -26 14 -30 0 -35 -9 -4 -29 -4 -46 0 -37
7 -35 -8 5 -38 24 -18 42 -21 131 -21 71 0 108 5 119 14 13 11 16 11 16 -1 0
-19 -29 -45 -55 -50 -28 -5 -34 -48 -6 -48 11 0 23 -4 26 -10 11 -18 35 -11
44 12 l8 22 12 -22 c13 -24 37 -29 44 -9 2 6 0 20 -5 31 -7 13 -6 21 2 26 15
9 4 30 -16 30 -8 0 -14 9 -14 21 0 15 5 19 15 15 8 -3 37 -8 65 -12 35 -5 54
-13 61 -25 8 -15 6 -19 -9 -19 -18 0 -42 -18 -42 -32 0 -4 3 -7 8 -7 33 5 72
-3 72 -15 0 -8 4 -18 10 -21 7 -4 7 3 0 20 -6 15 -10 43 -10 63 0 28 -3 33
-10 22 -7 -11 -10 -7 -10 18 0 25 9 42 32 65 18 18 31 35 30 40 -1 4 3 7 9 7
5 0 7 5 3 12 -4 6 1 17 11 25 11 7 14 13 9 13 -6 0 -15 -5 -22 -12 -23 -23
-13 14 11 40 17 20 18 24 5 19 -14 -5 -17 0 -16 28 1 21 6 35 14 35 23 0 54
51 54 89 0 27 -3 32 -10 21 -5 -8 -10 -27 -10 -41 0 -14 -8 -33 -18 -42 -27
-25 -32 -21 -16 13 21 41 2 83 -41 90 -35 6 -25 15 28 25 24 5 42 3 52 -5 20
-16 19 -6 -1 14 -13 13 -13 16 -1 16 30 0 38 -25 31 -101 -4 -41 -11 -79 -16
-85 -5 -8 -1 -13 12 -17 11 -3 18 -1 14 4 -3 5 2 32 10 61 8 29 18 65 21 80
11 54 94 81 134 44 15 -14 19 -29 17 -77 -2 -56 0 -60 19 -53 11 3 36 8 56 11
46 6 57 -8 64 -82 1 -16 0 -20 -2 -8 -9 46 -70 68 -105 36 -10 -9 -18 -11 -18
-5 0 6 10 18 22 26 12 9 17 16 11 16 -20 0 -53 -52 -53 -83 0 -29 0 -30 -20
-12 -25 22 -25 36 -2 66 25 34 21 97 -8 121 -26 21 -56 16 -82 -14 -20 -23
-23 -17 -7 13 6 12 25 27 42 34 18 8 26 14 19 15 -27 0 -72 -31 -78 -56 -4
-13 -4 -38 -1 -53 3 -16 3 -31 0 -35 -9 -9 -9 -76 0 -76 5 0 6 -15 2 -32 -5
-22 -4 -29 3 -23 14 15 32 75 31 104 -1 25 -2 25 -9 -4 -7 -26 -8 -24 -9 20 0
28 5 61 12 75 23 47 87 34 87 -17 0 -34 -53 -143 -83 -172 -25 -22 -26 -22
-54 -5 l-28 18 20 -23 20 -24 -23 8 -24 7 21 -21 c21 -21 29 -71 12 -71 -5 0
-14 7 -21 15 -7 8 -17 15 -23 15 -5 0 -3 -8 6 -18 28 -31 36 -65 22 -99 -17
-39 -40 -56 -31 -22 4 18 2 16 -9 -6 -18 -37 -19 -67 -3 -83 17 -17 28 -15 28
4 0 8 5 12 10 9 6 -4 8 -10 5 -15 -3 -4 2 -11 11 -14 8 -3 12 -11 8 -17 -5 -8
-3 -9 5 -5 7 5 10 10 7 13 -3 3 2 12 10 20 8 9 12 18 9 21 -3 3 -12 -3 -20
-14 -13 -17 -14 -18 -16 -1 -3 33 -4 36 -16 49 -10 10 -13 9 -13 -4 0 -9 -7
-18 -15 -22 -15 -5 -22 9 -7 16 21 9 62 73 62 97 0 21 8 31 35 44 18 9 42 29
52 44 19 29 73 82 85 83 3 0 9 -8 12 -17 3 -10 3 6 0 35 -6 55 1 67 16 30 8
-20 9 -18 9 15 1 41 13 46 49 21 39 -27 27 -93 -29 -160 -33 -38 -33 -39 -3
-12 17 16 43 51 58 79 24 44 27 59 21 101 -8 58 -37 78 -99 70 l-39 -5 7 42
c5 36 3 45 -18 66 -14 14 -30 25 -36 25 -5 0 -10 12 -10 28 0 35 -26 72 -51
72 -10 0 -19 6 -19 14 0 15 26 46 39 46 13 0 41 58 41 88 0 16 -8 40 -18 53
-10 13 -24 57 -31 97 -26 149 -126 289 -251 352 -120 61 -112 60 -831 60
l-656 0 -6 43 c-5 45 -25 103 -32 95 -3 -2 3 -23 12 -47 14 -36 15 -51 5 -105
-12 -61 -51 -171 -59 -163 -2 2 3 19 11 38 24 57 35 217 19 257 -8 19 -9 31
-4 27 6 -3 11 -1 11 4 0 6 16 11 35 11 20 0 55 10 78 22 23 12 52 22 64 23 30
1 110 81 124 123 12 37 5 78 -18 105 -23 24 -30 21 -25 -11 2 -18 -2 -33 -12
-41 -14 -12 -16 -10 -16 8 0 12 -5 32 -11 43 -8 16 -8 22 2 29 10 6 6 11 -14
18 -19 7 -27 18 -27 35 0 13 -7 29 -15 36 -9 7 -15 29 -15 52 0 80 -75 172
-189 232 -134 70 -284 85 -418 42z m-104 -74 c-71 -46 -118 -92 -150 -146 -16
-28 -29 -44 -29 -36 0 20 53 111 77 132 22 21 124 78 137 78 6 0 -10 -13 -35
-28z m593 -27 c53 -39 94 -94 103 -140 5 -27 4 -26 -15 10 -26 50 -82 107
-142 147 -27 16 -48 32 -48 34 0 9 61 -21 102 -51z m-167 25 c34 -13 95 -52
95 -61 0 -3 -24 2 -52 12 -79 27 -336 27 -413 0 -30 -11 -55 -18 -55 -16 0 2
18 17 39 34 29 23 55 34 98 39 82 11 252 6 288 -8z m35 -60 c32 -10 78 -31
102 -45 44 -28 108 -84 108 -95 0 -4 -24 -16 -54 -29 -33 -14 -71 -40 -95 -66
-59 -64 -50 -70 13 -9 67 65 122 85 160 60 14 -9 28 -26 30 -39 3 -12 13 -56
22 -98 20 -92 14 -137 -27 -183 -57 -65 -159 -88 -212 -46 l-25 20 20 49 c20
47 21 48 47 35 83 -43 188 29 177 121 -8 69 -88 118 -136 84 -13 -9 -12 -10 3
-5 10 3 34 -1 53 -9 39 -16 69 -72 60 -110 -17 -66 -89 -101 -149 -73 -23 11
-33 24 -42 60 -12 50 -9 64 29 108 l21 25 -27 -24 c-15 -13 -30 -33 -34 -43
-4 -13 -11 -17 -25 -13 -14 5 -31 -3 -55 -24 -19 -17 -36 -31 -38 -31 -2 0 1
16 7 35 7 25 7 42 -1 62 -11 26 -10 26 19 -7 24 -27 28 -29 18 -10 -30 61
-142 180 -167 180 -25 0 -143 -125 -174 -184 -11 -20 42 34 118 122 20 23 44
42 53 42 20 0 69 -50 99 -101 52 -86 0 -188 -96 -189 -73 0 -130 65 -119 137
3 18 2 31 -3 28 -15 -9 -22 -63 -10 -85 18 -34 5 -34 -34 0 -47 42 -72 34 -89
-27 -18 -67 -74 -91 -137 -58 -51 26 -65 86 -35 144 15 31 65 54 92 44 11 -4
14 -3 9 5 -10 17 -68 15 -94 -4 -27 -18 -52 -65 -52 -95 0 -35 40 -90 76 -105
43 -18 72 -18 107 1 25 13 28 13 34 -3 3 -9 12 -32 20 -51 7 -19 12 -35 11
-36 -2 -1 -14 -9 -28 -18 -53 -36 -162 -10 -208 48 -40 51 -46 90 -27 179 26
121 29 130 57 145 22 13 31 13 69 -2 45 -17 100 -62 132 -107 l17 -25 -14 30
c-22 45 -74 91 -136 118 l-55 24 45 43 c44 42 160 104 210 112 14 3 87 5 163
6 110 1 150 -3 197 -18z m-779 -347 c-12 -20 -14 -14 -5 12 4 9 9 14 11 11 3
-2 0 -13 -6 -23z m1169 -1 c0 -15 -2 -15 -10 -2 -13 20 -13 33 0 25 6 -3 10
-14 10 -23z m-769 -9 c11 -13 11 -17 2 -20 -7 -3 -13 -9 -13 -14 0 -6 8 -5 20
1 44 23 53 -16 16 -64 -25 -34 -56 -90 -56 -103 0 -4 9 3 19 17 l19 24 45 -22
c63 -31 191 -31 254 0 45 22 45 22 59 3 8 -11 22 -20 32 -20 13 0 19 -14 26
-55 l10 -55 6 40 c4 30 7 35 12 20 15 -47 17 -73 9 -100 l-9 -30 -3 30 c-1 17
-5 -22 -9 -85 -4 -72 -15 -143 -30 -190 -25 -85 -56 -150 -70 -150 -6 0 -10
-6 -10 -14 0 -20 -60 -68 -76 -62 -8 3 -14 1 -14 -4 0 -13 -56 -22 -91 -15
-22 5 -29 11 -24 22 4 13 3 14 -10 3 -12 -10 -20 -9 -40 4 -13 9 -30 26 -36
38 -6 12 -20 31 -31 42 -25 28 -77 196 -84 277 -8 80 13 268 32 290 12 13 11
24 -7 74 -12 36 -18 68 -14 84 13 51 41 65 66 34z m419 -9 c14 -37 13 -57 -11
-120 l-21 -56 -29 50 c-16 28 -33 53 -39 57 -15 9 -12 45 5 51 8 4 22 1 30 -6
10 -9 15 -9 15 -1 0 6 -5 11 -10 11 -7 0 -7 6 0 20 15 29 48 25 60 -6z m-250
-72 c35 -3 57 0 74 12 32 20 36 20 36 -3 0 -11 14 -31 31 -46 17 -14 30 -27
28 -28 -47 -33 -72 -41 -139 -45 -63 -4 -85 0 -128 18 -29 12 -52 24 -52 27 0
2 14 16 30 30 19 16 30 34 30 50 0 25 1 26 20 8 11 -10 42 -20 70 -23z m-259
-254 l-9 -33 -1 45 c0 25 3 56 7 70 6 23 7 22 10 -12 2 -20 -1 -51 -7 -70z m9
-223 c0 -5 -5 -3 -10 5 -5 8 -10 20 -10 25 0 6 5 3 10 -5 5 -8 10 -19 10 -25z
m2155 -135 c11 -12 21 -16 25 -10 3 5 27 -4 56 -24 46 -31 50 -36 52 -79 1
-40 -1 -44 -18 -40 -11 3 -20 14 -20 25 0 11 -16 34 -35 51 -19 17 -35 35 -35
41 0 6 9 0 20 -14 11 -14 20 -21 20 -16 0 16 -31 45 -44 40 -7 -3 -23 7 -36
21 -13 14 -19 25 -13 25 5 0 18 -9 28 -20z m-329 -13 c-10 -7 -42 -30 -70 -51
l-51 -39 34 36 c19 20 48 43 65 51 37 18 49 20 22 3z m254 -26 c19 -10 36 -25
38 -33 2 -13 -7 -11 -45 9 -43 22 -57 24 -128 20 -44 -3 -89 -8 -100 -13 -15
-5 -14 -2 5 14 15 11 39 22 55 25 50 8 138 -3 175 -22z m-2027 -14 c9 -24 -52
-105 -89 -119 -19 -6 -34 -18 -34 -25 0 -7 -5 -13 -11 -13 -5 0 -8 -4 -5 -9 8
-12 -67 -3 -126 16 -56 17 -71 33 -31 33 76 0 252 76 267 116 7 18 22 18 29 1z
m474 -26 c45 -41 177 -91 237 -91 15 0 25 -4 21 -9 -12 -20 -187 -60 -183 -43
3 16 -16 42 -30 42 -25 0 -102 87 -102 115 0 14 3 25 6 25 3 0 26 -18 51 -39z
m1518 14 c29 -13 29 -13 -20 -8 -27 4 -61 10 -75 14 -20 6 -16 7 20 8 25 0 59
-6 75 -14z m-209 -20 c-11 -8 -27 -15 -35 -15 -10 1 -7 6 9 15 33 19 50 18 26
0z m168 -5 c76 -14 124 -29 162 -51 l54 -30 -15 -29 c-20 -39 -20 -41 16 -101
l30 -52 -17 -40 c-25 -55 -49 -67 -153 -77 -111 -12 -140 -26 -177 -84 -22
-35 -41 -50 -86 -70 -76 -32 -105 -24 -136 39 -28 58 -72 85 -138 85 -69 0
-135 24 -174 65 l-32 33 33 18 c19 9 45 24 59 32 37 23 11 -1 -32 -30 l-38
-25 36 -25 35 -25 64 16 c48 12 75 27 111 59 26 23 45 44 43 46 -12 10 -77 26
-108 27 -32 0 -34 2 -17 12 127 80 166 111 176 143 11 32 14 34 58 34 37 1
108 26 138 50 0 0 49 -9 108 -20z m260 -107 c-7 -16 -14 -36 -14 -46 0 -22
-24 -18 -28 4 -3 16 34 69 48 69 5 0 2 -12 -6 -27z m36 -3 c0 -5 6 -10 13 -10
19 0 42 -59 28 -73 -17 -17 -45 4 -49 38 -3 21 -6 25 -12 15 -14 -22 -23 -4
-10 19 11 22 30 28 30 11z m-2323 -16 c-3 -3 -12 -4 -19 -1 -8 3 -5 6 6 6 11
1 17 -2 13 -5z m590 0 c-3 -3 -12 -4 -19 -1 -8 3 -5 6 6 6 11 1 17 -2 13 -5z
m1760 -194 c20 0 24 -4 20 -20 -3 -13 0 -20 9 -20 8 0 14 -7 14 -15 0 -18 -36
-38 -55 -31 -8 3 -16 0 -18 -7 -3 -7 -10 1 -16 17 -6 16 -14 26 -17 23 -3 -3
-1 -15 6 -27 6 -11 8 -30 4 -42 -5 -18 -9 -15 -25 22 -10 23 -19 51 -19 62 0
18 2 19 17 7 15 -13 15 -12 4 9 -17 31 3 28 29 -5 13 -18 17 -20 11 -7 -5 11
-18 27 -27 35 -15 13 -15 14 7 19 15 4 25 1 27 -7 2 -7 15 -13 29 -13z m-103
-66 c4 -9 4 -19 1 -22 -7 -8 -35 19 -29 29 8 14 21 11 28 -7z m-44 -8 c0 -3
-4 -8 -10 -11 -5 -3 -10 -1 -10 4 0 6 5 11 10 11 6 0 10 -2 10 -4z m-119 -25
c-11 -7 -11 -16 -3 -38 13 -38 -1 -65 -17 -35 -6 11 -11 30 -11 41 0 18 -3 19
-25 9 -14 -6 -25 -18 -25 -27 0 -9 11 -33 25 -53 41 -61 38 -63 -80 -60 -58 2
-105 6 -105 8 0 3 8 13 17 22 12 12 18 13 21 4 2 -6 15 -12 28 -12 22 0 23 2
13 21 -8 17 -8 24 3 35 12 12 16 9 27 -21 8 -24 19 -35 32 -35 10 0 19 5 19
10 0 15 -31 74 -42 81 -5 3 5 18 22 33 23 19 43 26 73 26 28 0 37 -3 28 -9z
m66 -8 c2 -6 -3 -13 -12 -16 -10 -5 -15 0 -15 14 0 21 21 22 27 2z m-468 -74
c12 -20 21 -39 21 -43 0 -23 -217 45 -235 74 -4 6 17 10 52 11 32 1 69 4 83 8
32 9 53 -4 79 -50z m489 9 c20 -26 10 -66 -24 -99 -19 -18 -34 -40 -34 -48 0
-13 2 -14 9 -2 14 22 45 -32 35 -61 -4 -13 -7 -27 -6 -31 4 -16 -69 -37 -130
-37 -76 0 -134 15 -142 36 -5 12 -2 15 11 9 44 -16 130 -26 172 -19 25 5 53 7
63 6 14 -1 15 4 7 33 -5 19 -16 47 -24 62 l-15 28 0 -27 c0 -15 4 -38 10 -52
16 -42 1 -30 -20 17 -24 51 -25 108 -5 147 24 46 71 65 93 38z m103 -39 c-9
-23 -10 -23 -10 -2 -1 12 2 30 6 40 6 15 8 15 11 2 1 -8 -2 -26 -7 -40z m-256
-102 c22 -12 41 -31 43 -41 4 -17 -2 -18 -65 -14 -63 4 -153 32 -141 43 3 3
24 -2 48 -10 57 -20 62 -19 22 5 -18 11 -30 25 -27 30 11 18 79 10 120 -13z
m442 -29 c-3 -7 -5 -2 -5 12 0 14 2 19 5 13 2 -7 2 -19 0 -25z m-27 -42 c0 -5
-10 -1 -21 10 -22 19 -22 19 -10 -4 11 -20 10 -27 -3 -40 -9 -10 -25 -28 -36
-42 l-19 -25 -1 25 c0 14 -4 31 -9 39 -6 9 2 25 28 51 l36 37 17 -21 c10 -12
18 -25 18 -30z m-110 -47 c12 -22 6 -69 -9 -69 -4 0 -8 12 -8 28 0 15 -3 35
-7 45 -12 25 11 22 24 -4z m-473 -75 c-21 -26 -37 -51 -37 -56 0 -19 -141 0
-155 21 -2 5 22 14 56 20 42 7 75 21 107 44 62 45 75 31 29 -29z m-69 42 c12
-1 22 -2 22 -3 0 -2 -17 -12 -39 -22 -37 -19 -39 -19 -55 -2 -27 30 -20 45 17
36 17 -4 42 -8 55 -9z m122 -41 c0 -14 -58 -61 -65 -53 -3 2 7 21 22 41 25 35
43 40 43 12z m148 -15 c17 0 32 -4 32 -10 0 -15 -63 -12 -104 5 -46 20 -46 25
2 14 20 -5 52 -9 70 -9z m-108 -41 c0 -16 6 -29 13 -30 9 0 9 -2 0 -6 -10 -4
-10 -10 2 -26 8 -12 15 -28 14 -37 0 -11 -5 -9 -16 8 -18 25 -43 29 -43 7 0
-8 -7 -15 -15 -15 -8 0 -15 5 -15 10 0 6 5 10 12 10 6 0 8 3 5 6 -4 4 -13 1
-21 -5 -8 -7 -20 -10 -26 -6 -17 10 -11 25 10 25 34 0 63 37 58 75 -3 27 -1
32 9 23 7 -6 13 -23 13 -39z m170 -57 c0 -4 -9 -8 -20 -9 -11 -1 -20 2 -20 8
0 5 9 9 20 9 11 0 20 -4 20 -8z m318 -892 c-14 -11 -49 -45 -77 -76 -28 -30
-51 -51 -51 -44 0 16 123 140 139 140 8 0 2 -9 -11 -20z m385 -29 c29 -27 61
-64 71 -83 22 -39 20 -37 -27 20 -20 24 -55 58 -78 77 -22 19 -36 35 -29 35 6
0 35 -22 63 -49z m-253 -18 c0 -5 -26 -26 -56 -48 -31 -22 -77 -62 -101 -90
-42 -47 -45 -48 -38 -21 13 57 60 105 143 147 41 20 52 23 52 12z m196 -60
c38 -30 74 -85 74 -113 0 -7 -21 12 -47 41 -31 34 -67 61 -103 77 -50 22 -53
25 -36 37 22 17 53 6 112 -42z m-131 3 c10 -7 26 -12 34 -9 9 2 21 0 26 -4 12
-9 49 -65 50 -75 0 -3 3 -10 8 -14 4 -4 7 -16 7 -26 0 -18 -2 -18 -40 2 -21
11 -49 20 -60 20 -12 0 -18 5 -15 10 3 6 2 10 -3 10 -6 0 -12 -7 -16 -15 -3
-8 -12 -15 -21 -15 -9 0 -18 7 -21 15 -4 8 -10 15 -16 15 -5 0 -6 -4 -3 -10 3
-6 -4 -10 -17 -10 -13 0 -38 -9 -56 -20 -18 -11 -35 -20 -37 -20 -10 0 -5 36
7 48 7 7 8 12 4 12 -4 0 7 18 25 41 20 26 38 39 49 36 9 -2 25 2 35 9 10 8 24
14 30 14 6 0 20 -6 30 -14z m76 -142 c91 -46 133 -198 83 -295 -36 -70 -148
-128 -218 -113 -65 14 -134 63 -161 114 -47 92 -8 238 77 290 37 23 178 26
219 4z m-433 -44 c23 -22 28 -55 12 -80 -8 -12 -10 -12 -11 5 0 20 0 20 -8 0
-6 -15 -9 -8 -13 28 -3 26 -14 57 -24 69 -19 21 -19 21 1 10 11 -6 30 -20 43
-32z m45 31 c16 -2 40 -69 33 -95 -9 -36 -36 -34 -36 2 0 15 -8 44 -18 64 -16
31 -17 35 -3 33 9 -2 19 -4 24 -4z m585 -30 c-10 -19 -18 -48 -18 -63 0 -36
-27 -38 -36 -3 -11 44 23 102 60 102 8 0 7 -11 -6 -36z m68 20 c-10 -11 -20
-38 -23 -61 -4 -28 -9 -37 -14 -28 -6 10 -9 8 -9 -7 0 -17 -2 -17 -10 -5 -18
29 -10 58 25 89 40 35 58 41 31 12z m-774 -70 c2 -16 1 -37 -3 -47 -5 -14 -8
-8 -8 19 -1 29 -6 40 -23 47 -22 9 -22 9 3 9 22 1 27 -4 31 -28z m843 20 c-13
-5 -22 -21 -26 -47 l-6 -39 -2 48 c-1 45 0 47 27 46 23 0 24 -1 7 -8z m-2234
-53 l2 -23 4 23 c3 15 11 22 28 22 27 0 45 -25 45 -62 0 -13 5 -30 10 -38 7
-11 8 -7 4 15 -3 17 -1 42 5 58 l11 27 575 0 575 0 0 -28 c0 -42 33 -94 73
-115 32 -16 37 -24 37 -53 0 -31 -3 -34 -30 -34 -19 0 -33 -7 -40 -20 -6 -11
-7 -20 -3 -20 4 0 0 -5 -9 -11 -18 -10 -24 -49 -10 -63 4 -4 7 -25 8 -47 0
-40 30 -83 64 -94 11 -3 22 -30 34 -79 9 -41 33 -107 52 -146 19 -39 34 -76
34 -81 0 -5 -211 -9 -520 -9 -443 0 -520 2 -520 14 0 8 -57 47 -127 87 -220
124 -270 159 -228 159 11 0 15 12 15 45 0 25 7 58 16 73 l16 27 -21 -25 c-11
-14 -21 -39 -21 -56 0 -29 -3 -32 -36 -36 -53 -6 -102 33 -124 97 -11 32 -23
51 -35 54 -10 2 -32 16 -49 32 -71 67 -229 129 -328 129 -26 0 -48 4 -48 9 0
24 70 110 114 139 69 46 92 50 269 51 156 1 157 1 158 -21z m1427 -188 l26 0
-27 -28 c-39 -41 -33 -49 8 -13 44 38 53 39 29 4 -10 -16 -32 -53 -47 -83
l-29 -55 5 49 c4 39 3 46 -6 31 -6 -11 -13 -55 -15 -97 -3 -43 -7 -78 -11 -78
-12 1 -49 36 -60 58 -14 27 -6 62 15 62 8 0 14 4 14 10 0 5 -6 7 -13 4 -18 -7
-41 22 -33 41 3 8 15 15 27 15 18 0 19 3 9 15 -16 19 -4 35 25 35 13 0 27 6
32 13 8 12 9 15 13 45 2 12 4 11 7 -5 3 -17 11 -23 31 -23z m818 -30 c29 -5
48 -39 22 -41 -7 -1 -2 -4 12 -8 32 -9 33 -41 2 -57 l-23 -11 22 -6 c19 -5 21
-11 15 -39 -5 -29 -48 -78 -68 -78 -5 0 -8 26 -8 58 0 76 -22 147 -56 183 -28
29 -28 29 -5 29 15 0 25 7 29 22 5 20 7 19 17 -12 9 -27 19 -36 41 -40z m-745
-28 c-11 -17 -21 -34 -21 -39 0 -4 -14 -41 -30 -82 -17 -40 -30 -89 -31 -110
0 -20 -4 -45 -9 -56 -13 -29 -12 99 1 155 11 49 52 135 77 163 26 29 38 3 13
-31z m632 -15 c37 -63 57 -143 56 -221 l-1 -71 -12 65 c-7 36 -25 95 -39 131
-15 36 -27 69 -27 73 0 4 -9 21 -21 37 -11 16 -17 34 -14 39 9 15 29 -3 58
-53z m51 -1 c9 -19 16 -49 16 -66 0 -32 -1 -31 -28 21 -15 30 -36 67 -47 83
l-19 29 31 -16 c17 -9 38 -32 47 -51z m-620 4 c-17 -20 -60 -117 -68 -155 -3
-16 -11 -65 -16 -108 -5 -43 -16 -88 -25 -100 -14 -20 -15 -15 -15 69 0 103
16 165 68 271 34 69 37 72 53 55 14 -14 14 -19 3 -32z m515 -13 c57 -116 71
-172 71 -276 0 -89 -1 -94 -15 -73 -9 12 -20 60 -26 107 -12 109 -57 240 -88
260 -8 4 15 45 25 45 1 0 16 -28 33 -63z m-2304 -6 c55 -32 87 -61 65 -61 -10
0 -93 54 -124 82 -21 18 11 7 59 -21z m1900 7 c32 -18 56 -23 120 -23 64 0 88
5 120 23 22 12 45 22 52 22 14 0 58 -42 73 -71 27 -50 62 -260 59 -351 -1 -32
-2 -32 -8 -6 -5 21 -9 25 -21 18 -10 -6 -11 -10 -2 -10 7 0 12 -14 12 -35 0
-38 -28 -75 -57 -75 -9 0 -14 -3 -10 -6 12 -12 49 9 68 39 l19 32 -6 -35 c-8
-42 -22 -62 -37 -53 -6 4 -8 0 -4 -10 4 -10 -8 -31 -33 -59 -32 -36 -39 -40
-45 -26 -4 10 0 27 9 40 9 12 16 29 16 38 -1 8 -9 -1 -20 -21 -24 -46 -45 -63
-69 -56 -14 3 -18 1 -14 -9 3 -8 -2 -25 -11 -39 -14 -22 -22 -24 -91 -24 -69
0 -77 2 -91 24 -9 14 -14 31 -11 39 4 10 0 12 -14 9 -24 -7 -53 18 -69 58 -7
16 -15 28 -17 25 -3 -2 3 -21 13 -41 27 -57 4 -65 -39 -15 -30 36 -34 45 -24
61 6 10 19 19 27 19 8 1 1 7 -16 14 -17 8 -34 21 -38 31 -11 28 -7 75 7 75 8
0 7 4 -3 10 -12 7 -16 3 -21 -18 -6 -26 -7 -26 -8 6 -2 51 19 221 34 279 16
60 28 84 58 117 28 31 43 31 92 4z m-2434 -25 c-11 -16 -30 -39 -41 -53 l-21
-25 12 25 c11 23 58 80 67 80 2 0 -6 -12 -17 -27z m377 22 c-2 -3 -56 -14
-119 -25 -63 -11 -125 -22 -139 -25 l-25 -6 25 20 c14 11 41 24 60 29 36 10
207 16 198 7z m73 -25 l24 -21 -32 16 c-32 15 -42 25 -24 25 5 0 19 -9 32 -20z
m2 -35 c55 -30 73 -35 130 -35 l65 0 16 -47 c14 -43 26 -55 102 -108 48 -33
111 -73 140 -90 150 -84 254 -147 254 -154 0 -16 -73 -82 -108 -97 -20 -9 -85
-22 -143 -29 -59 -7 -120 -19 -135 -26 -31 -15 -103 -113 -104 -140 0 -10 -17
-23 -44 -33 -43 -16 -44 -16 -107 12 -35 16 -72 32 -81 35 -9 3 -32 30 -51 59
-65 100 -96 117 -232 125 -157 9 -214 39 -244 130 -13 40 -13 41 32 119 l45
78 -21 40 c-12 23 -22 44 -22 48 0 4 32 27 70 50 61 36 88 45 215 69 80 15
148 27 152 28 4 1 36 -15 71 -34z m-552 -176 c32 -22 36 -44 14 -73 -13 -17
-14 -15 -21 20 -3 22 -13 47 -22 57 -20 23 -7 22 29 -4z m-63 -76 c2 -24 -1
-43 -7 -43 -5 0 -11 17 -13 38 -2 30 -7 36 -22 34 -11 -2 -15 1 -11 8 4 6 17
10 28 8 18 -2 23 -11 25 -45z m29 -204 l25 -9 -26 -31 c-31 -36 -45 -84 -48
-167 -2 -34 -4 -62 -5 -62 -1 0 -13 5 -26 11 -47 21 -64 96 -24 107 22 6 22 6
-3 12 -33 8 -41 49 -11 57 16 4 19 9 11 18 -12 15 13 41 30 30 19 -12 40 16
41 54 1 24 3 28 6 13 3 -13 16 -27 30 -33z m2430 -7 c-14 -18 -37 4 -37 34 l0
23 23 -22 c16 -15 20 -26 14 -35z m-2412 -73 c-15 -23 -33 -58 -40 -78 -12
-31 -14 -33 -14 -11 -1 44 20 102 47 128 35 36 39 13 7 -39z m55 31 c0 -6 -16
-52 -36 -103 -20 -50 -40 -119 -45 -152 -7 -53 -7 -49 -5 36 2 86 5 103 35
163 29 59 51 83 51 56z m43 -68 c-34 -78 -45 -120 -58 -212 -7 -52 -13 -88
-14 -80 -1 13 -3 13 -10 1 -15 -23 -24 88 -12 141 24 106 72 201 96 192 13 -5
12 -11 -2 -42z m227 7 c85 -12 104 -25 155 -105 25 -40 44 -55 85 -73 l53 -23
-7 -74 c-5 -71 -19 -125 -53 -221 -14 -39 -43 -72 -88 -101 -19 -13 -19 -13 3
-8 19 4 21 2 11 -10 -7 -8 -21 -20 -32 -26 -16 -8 -23 -7 -35 8 -13 18 -14 18
-7 -3 4 -17 2 -23 -9 -23 -8 0 -23 -3 -33 -7 -16 -6 -17 -5 -3 13 14 18 14 18
-6 2 -26 -23 -62 -23 -86 -1 -20 18 -24 43 -6 43 6 0 8 3 4 8 -4 4 -22 7 -39
7 -28 0 -35 6 -58 48 -14 27 -40 57 -58 68 -17 10 -36 31 -42 45 -10 28 -4 64
12 64 5 0 9 5 9 11 0 5 -4 8 -9 5 -5 -3 -14 1 -20 8 -14 17 3 204 19 220 6 6
10 23 10 38 0 30 25 88 43 100 12 7 71 3 187 -13z m2210 -9 c21 -11 46 -50 33
-50 -18 0 -74 41 -68 50 8 12 12 12 35 0z m302 -5 c1 -12 -61 -50 -69 -42 -3
3 7 18 21 32 26 26 47 30 48 10z m-437 -195 c16 -7 17 -9 3 -9 -9 -1 -23 -3
-31 -6 -8 -4 -14 0 -14 10 0 17 12 18 42 5z m-1736 -32 c0 -13 -9 -41 -20 -63
-11 -22 -17 -31 -13 -20 3 11 9 39 11 63 6 43 24 60 22 20z m-569 -265 c0 -7
7 -13 14 -13 8 0 26 -15 40 -33 24 -31 33 -57 21 -57 -9 0 -69 70 -92 109 -28
45 -31 78 -3 36 11 -16 20 -36 20 -42z m657 -42 l71 -6 -14 -30 c-8 -16 -12
-22 -9 -12 3 13 -2 17 -25 17 -16 0 -31 4 -34 9 -3 4 -23 11 -44 15 -22 3 -46
13 -53 23 -13 15 -12 15 11 3 14 -8 57 -16 97 -19z m-497 -106 c0 -2 -13 1
-30 6 -16 6 -30 15 -30 20 0 5 14 3 30 -6 17 -9 30 -17 30 -20z m248 4 c-21
-60 27 -139 85 -139 8 0 17 -6 20 -14 7 -18 -35 -15 -58 4 -9 7 -19 10 -23 6
-4 -4 1 -12 10 -17 20 -11 13 -40 -8 -32 -8 3 -14 16 -14 29 0 19 -5 24 -24
24 -16 0 -27 -7 -31 -20 -3 -11 -11 -20 -16 -20 -6 0 -7 -6 -3 -12 5 -10 4
-10 -6 -1 -11 10 -11 16 1 30 8 10 21 30 29 46 7 15 17 27 21 27 5 0 4 11 -1
24 -10 28 -9 43 8 74 18 32 23 27 10 -9z m-268 -33 c0 -3 -4 -8 -10 -11 -5 -3
-10 -1 -10 4 0 6 5 11 10 11 6 0 10 -2 10 -4z m364 -31 c11 -1 25 -3 29 -4 5
0 7 -11 5 -23 -5 -34 -57 -37 -93 -5 -33 28 -26 50 12 41 14 -4 35 -8 47 -9z
m-377 -22 c-2 -25 1 -28 36 -31 24 -2 37 -8 37 -17 0 -11 -8 -13 -32 -8 -18 3
-37 9 -42 14 -5 5 -17 -1 -27 -12 -10 -11 -19 -19 -21 -18 -5 5 -68 -35 -68
-43 0 -14 -16 -9 -40 12 l-23 20 31 -6 c22 -4 40 -1 57 10 27 18 26 39 -2 29
-11 -4 -14 -2 -9 5 4 6 21 15 39 20 18 4 36 18 42 30 13 30 24 28 22 -5z m53
-13 c0 -5 -7 -10 -15 -10 -8 0 -15 5 -15 10 0 6 7 10 15 10 8 0 15 -4 15 -10z
m-197 -57 c-7 -2 -19 -2 -25 0 -7 3 -2 5 12 5 14 0 19 -2 13 -5z m2837 -213
c12 -7 15 -33 14 -127 0 -110 -2 -121 -27 -163 l-27 -45 0 173 c0 178 2 186
40 162z m-55 -240 c-4 -63 -9 -125 -12 -137 -11 -47 18 -20 53 48 19 39 37 69
39 68 3 -4 -9 -85 -21 -137 -3 -14 -11 -22 -21 -20 -13 2 -24 -15 -43 -64 -14
-37 -29 -71 -33 -74 -4 -4 -25 1 -48 11 -41 19 -41 20 -36 63 3 25 10 48 16
52 8 4 11 38 10 101 -2 88 1 99 34 174 19 44 39 94 43 110 8 28 9 26 16 -25 5
-30 6 -107 3 -170z m453 -91 c-65 -61 -118 -116 -118 -121 0 -6 11 -7 28 -3
34 9 156 25 160 21 3 -4 -123 -80 -161 -97 -19 -9 -26 -18 -22 -29 4 -13 -4
-22 -29 -34 -42 -20 -46 -20 -46 -1 0 19 -30 8 -121 -46 -38 -23 -71 -40 -72
-38 -39 55 -39 53 14 105 28 28 59 49 71 49 15 0 45 30 102 101 l81 101 110
51 c61 28 112 51 115 51 3 1 -48 -49 -112 -110z m142 92 c0 -18 -176 -191
-195 -191 -14 0 8 27 80 100 95 95 115 111 115 91z m-967 -226 c-18 -14 -50
-47 -72 -73 -23 -26 -41 -43 -41 -39 0 13 122 137 134 137 6 0 -3 -12 -21 -25z
m927 15 c0 -5 -32 -28 -70 -51 -39 -23 -73 -45 -76 -50 -8 -13 -26 -11 -22 2
2 6 40 33 83 59 94 56 85 52 85 40z m-812 -82 c2 -9 -13 -22 -39 -33 -22 -10
-61 -42 -85 -69 -47 -54 -58 -45 -21 17 24 39 113 110 131 104 6 -2 12 -10 14
-19z m-263 -20 c31 -14 28 -27 -13 -51 -32 -19 -32 -19 -32 3 0 12 -4 18 -10
15 -16 -10 -12 7 7 27 19 21 16 21 48 6z m450 -22 c61 -29 96 -65 134 -138
l29 -57 -24 -22 c-13 -12 -29 -37 -36 -55 -18 -49 -36 -50 -57 -4 -10 22 -20
38 -23 35 -2 -3 -26 22 -51 55 -25 32 -61 67 -79 76 -18 9 -39 24 -46 33 -8 9
-11 11 -8 5 3 -7 -7 -14 -25 -18 -17 -3 -45 -16 -61 -28 l-31 -22 6 32 c5 26
4 30 -11 25 -11 -3 -9 1 6 11 12 10 19 22 16 28 -4 7 -2 8 4 4 6 -4 19 5 28
19 32 49 147 60 229 21z m-539 -62 c-3 -9 -6 -27 -6 -40 0 -15 -6 -24 -15 -24
-50 0 -104 -89 -91 -151 8 -43 40 -84 76 -99 28 -11 31 -17 28 -49 -3 -32 -6
-36 -31 -36 -27 -1 -51 -21 -41 -36 2 -4 -3 -12 -11 -19 -16 -13 -20 -42 -7
-54 4 -4 7 -25 8 -47 l0 -39 -566 0 c-651 0 -629 -3 -716 84 -59 59 -84 121
-84 206 0 86 25 147 86 206 88 86 67 84 698 85 406 1 566 4 606 14 75 17 73
17 66 -1z m430 -69 c23 -13 55 -45 70 -69 16 -25 31 -43 34 -41 10 6 3 -90 -8
-112 -45 -83 -166 -82 -206 2 -36 76 3 152 86 166 l43 6 -43 2 c-84 2 -130
-48 -119 -130 12 -90 117 -146 196 -104 28 14 29 13 35 -10 3 -13 20 -33 36
-45 l31 -22 -37 -20 c-84 -45 -197 -32 -265 29 -46 41 -63 72 -73 125 -15 81
39 198 106 231 45 22 64 21 114 -8z m-282 -26 c26 -30 31 -53 20 -83 -11 -30
-31 -16 -37 25 -3 22 -12 48 -21 58 -15 16 -13 31 5 31 4 0 19 -14 33 -31z
m-62 -6 c28 -27 38 -76 18 -88 -5 -3 -10 0 -10 7 0 9 -3 9 -10 -2 -7 -11 -10
-7 -10 18 0 18 -7 46 -15 62 -19 37 -10 38 27 3z m775 -15 c30 -34 61 -189 49
-252 -7 -36 -42 -77 -91 -107 -40 -25 -122 -25 -154 0 l-24 18 18 47 c16 41
21 46 39 40 12 -4 43 -8 69 -8 44 -1 52 3 83 36 28 31 34 46 34 80 0 45 -19
78 -57 97 -26 13 -63 14 -82 2 -10 -6 -2 -9 24 -9 49 0 85 -34 92 -88 4 -33 1
-45 -22 -72 -31 -38 -81 -50 -122 -30 -37 18 -59 80 -44 123 l11 30 -20 -25
c-23 -30 -26 -11 -5 30 17 33 65 72 115 94 48 21 63 20 87 -6z m-846 -42 c5
-16 4 -36 -1 -45 -7 -12 -9 -6 -10 22 0 31 -4 37 -21 37 -11 0 -17 4 -14 11
12 19 38 5 46 -25z m186 -18 c-3 -8 -6 -5 -6 6 -1 11 2 17 5 13 3 -3 4 -12 1
-19z m391 -85 c-2 -9 -12 -22 -23 -29 -19 -13 -20 -11 -20 42 l0 55 23 -27
c13 -14 22 -33 20 -41z m422 -28 c0 -5 -5 -3 -10 5 -5 8 -10 20 -10 25 0 6 5
3 10 -5 5 -8 10 -19 10 -25z m-360 6 c14 -28 12 -70 -6 -124 -14 -41 -34 -64
-34 -38 0 5 -16 32 -35 60 -31 45 -43 71 -31 71 2 0 11 3 19 6 8 3 22 -2 31
-11 14 -14 16 -14 16 -2 0 9 -6 17 -12 20 -10 3 -10 7 1 20 18 22 38 21 51 -2z
m-450 -74 c0 -20 -24 1 -25 23 -2 21 -1 22 12 5 7 -11 13 -23 13 -28z m-152
-22 c23 -6 25 -8 12 -18 -20 -15 -50 -58 -50 -72 0 -5 9 4 20 22 17 29 47 53
66 53 4 0 0 -8 -9 -17 -8 -10 -29 -45 -46 -78 l-30 -60 -2 35 c-1 32 -2 33 -9
10 -4 -14 -8 -51 -9 -82 -1 -32 -5 -58 -10 -58 -19 0 -59 41 -66 67 -5 21 -2
31 14 45 l21 17 -22 3 c-34 5 -32 52 1 56 17 3 20 6 11 12 -22 14 -4 41 24 34
23 -5 39 6 42 31 6 49 7 51 11 28 3 -13 15 -24 31 -28z m87 -26 c-3 -12 -11
-29 -20 -39 -8 -9 -15 -21 -15 -26 0 -5 -13 -43 -30 -84 -16 -41 -30 -93 -30
-115 0 -22 -5 -47 -10 -55 -15 -23 -12 106 4 165 15 56 39 107 70 147 26 33
36 35 31 7z m42 14 c-10 -9 14 -34 26 -26 13 8 1 -14 -23 -42 -32 -37 -68
-148 -79 -244 -6 -51 -15 -98 -20 -105 -6 -7 -8 -23 -5 -37 4 -21 3 -22 -5 -4
-16 33 -13 196 5 256 17 58 90 209 101 209 3 0 3 -3 0 -7z m124 -74 c24 -17
44 -20 119 -20 74 0 96 3 124 20 42 26 52 26 59 0 3 -12 12 -19 23 -17 20 3
28 -21 44 -145 8 -54 8 -102 1 -151 -13 -92 -56 -228 -81 -258 -11 -13 -31
-37 -45 -55 -29 -36 -98 -63 -162 -63 -34 0 -46 5 -58 24 -9 13 -13 31 -9 41
5 13 4 16 -5 11 -27 -17 -57 4 -81 54 -13 27 -30 50 -37 50 -25 0 -63 48 -63
79 0 16 5 33 10 36 6 4 3 13 -9 23 -19 16 -19 23 -10 107 5 50 14 101 19 115
4 14 11 42 15 63 7 46 60 106 93 107 13 0 37 -9 53 -21z m395 -105 c4 -29 2
-50 -5 -57 -8 -8 -11 -3 -11 20 0 17 -3 45 -7 63 -4 23 -3 31 5 26 6 -3 14
-27 18 -52z m-544 -424 c-4 -12 -2 -13 9 -2 23 21 36 13 53 -31 23 -62 21 -75
-10 -46 -36 34 -84 104 -84 124 0 14 4 13 19 -6 10 -13 16 -30 13 -39z m148
-125 c7 -8 11 -17 9 -20 -9 -9 -54 21 -57 39 -3 15 -1 16 15 7 11 -5 26 -17
33 -26z m-5 -55 c3 -5 1 -10 -4 -10 -6 0 -11 5 -11 10 0 6 2 10 4 10 3 0 8 -4
11 -10z"/>
<path d="M893 8113 c9 -2 25 -2 35 0 9 3 1 5 -18 5 -19 0 -27 -2 -17 -5z"/>
<path d="M630 8035 c13 -14 26 -25 28 -25 3 0 -5 11 -18 25 -13 14 -26 25 -28
25 -3 0 5 -11 18 -25z"/>
<path d="M886 8025 c-21 -21 -20 -38 3 -66 l20 -24 22 22 c19 19 21 27 13 50
-11 33 -35 40 -58 18z m44 -25 c0 -5 -9 -10 -20 -10 -11 0 -20 5 -20 10 0 6 9
10 20 10 11 0 20 -4 20 -10z"/>
<path d="M540 7994 c-18 -20 -2 -64 26 -75 25 -9 64 14 64 37 0 20 -37 54 -59
54 -10 0 -24 -7 -31 -16z"/>
<path d="M1218 7998 c-25 -21 -28 -44 -7 -67 11 -12 23 -21 27 -21 20 0 52 34
52 54 0 41 -39 60 -72 34z"/>
<path d="M2725 6969 c-44 -27 -96 -59 -115 -71 l-35 -21 48 -13 c27 -7 70 -15
97 -19 l49 -7 21 74 c12 40 24 81 26 91 8 25 -2 21 -91 -34z"/>
<path d="M2769 6613 c-13 -15 -12 -15 9 -4 23 12 28 21 13 21 -5 0 -15 -7 -22
-17z"/>
<path d="M3163 5039 c-68 -20 -95 -108 -53 -176 19 -31 66 -63 92 -63 7 1 -1
7 -19 15 -87 37 -95 168 -13 210 17 9 30 18 30 20 0 3 -1 5 -2 4 -2 0 -17 -5
-35 -10z"/>
<path d="M3250 5045 c0 -3 13 -11 30 -20 34 -18 60 -62 60 -102 0 -40 -35 -92
-73 -108 -17 -8 -26 -14 -19 -15 26 0 73 32 92 63 28 45 26 109 -2 142 -19 21
-88 53 -88 40z"/>
<path d="M3178 4959 c-24 -13 -23 -61 0 -82 54 -49 153 22 102 73 -22 22 -73
26 -102 9z"/>
<path d="M1444 4925 c5 -16 -3 -23 -34 -37 -22 -9 -40 -22 -39 -30 0 -7 3 -8
5 -2 2 6 17 9 32 6 18 -2 33 3 44 15 15 16 15 21 2 43 -11 19 -13 20 -10 5z"/>
<path d="M2564 4873 c-4 -14 -2 -39 3 -54 10 -26 9 -29 -25 -46 -35 -18 -54
-43 -32 -43 6 0 8 5 5 10 -4 7 2 9 17 5 13 -3 31 0 42 8 18 13 19 18 7 55 -8
22 -11 52 -7 66 3 14 4 26 1 26 -2 0 -8 -12 -11 -27z"/>
<path d="M1504 4858 c-33 -8 -61 -34 -50 -45 3 -3 6 -2 6 4 0 5 13 8 28 5 17
-2 33 2 41 12 20 24 9 34 -25 24z"/>
<path d="M682 4419 c3 -8 20 -65 38 -126 24 -82 37 -113 48 -113 28 0 227 42
235 50 5 4 -60 49 -143 99 -168 102 -186 111 -178 90z"/>
<path d="M1441 4313 l-43 -15 58 -59 c56 -55 65 -61 153 -85 l93 -25 49 33
c27 18 49 36 49 39 0 3 -45 34 -99 67 -93 58 -103 62 -157 61 -33 0 -79 -8
-103 -16z"/>
<path d="M695 3929 c-4 -6 -5 -12 -2 -15 2 -3 7 2 10 11 7 17 1 20 -8 4z"/>
<path d="M911 3724 c0 -11 3 -14 6 -6 3 7 2 16 -1 19 -3 4 -6 -2 -5 -13z"/>
<path d="M2565 2128 c-4 -18 -2 -44 3 -58 8 -22 5 -26 -29 -42 -36 -16 -53
-38 -29 -38 6 0 10 6 10 13 0 9 2 9 8 0 14 -22 58 9 54 38 -2 13 -4 45 -4 72
-1 26 -3 47 -4 47 -2 0 -6 -15 -9 -32z"/>
<path d="M3157 2240 c-20 -16 -27 -30 -27 -55 0 -26 4 -33 14 -29 13 5 42 -31
38 -46 -1 -3 17 -5 39 -4 46 1 66 17 75 60 13 68 -82 119 -139 74z m112 -14
c13 -14 12 -15 -10 -9 -47 12 -91 7 -105 -12 -8 -10 -14 -13 -14 -7 0 7 10 22
21 33 17 17 29 20 57 15 20 -3 42 -12 51 -20z m-19 -40 c0 -3 -4 -8 -10 -11
-5 -3 -10 -1 -10 4 0 6 5 11 10 11 6 0 10 -2 10 -4z"/>
<path d="M3562 2213 c14 -2 31 -10 37 -17 8 -9 2 -11 -25 -8 -20 3 -41 -1 -51
-9 -15 -13 -15 -12 -4 11 11 24 11 24 -3 6 -20 -25 -20 -60 -1 -76 8 -7 15
-21 15 -31 0 -28 51 -25 78 4 45 48 15 129 -45 126 l-28 -2 27 -4z"/>
<path d="M3375 1930 c-4 -12 -5 -24 -2 -27 3 -2 8 5 12 17 4 12 5 24 2 27 -3
2 -8 -5 -12 -17z"/>
<path d="M3001 1764 c0 -11 3 -14 6 -6 3 7 2 16 -1 19 -3 4 -6 -2 -5 -13z"/>
<path d="M3372 1420 c0 -14 2 -19 5 -12 2 6 2 18 0 25 -3 6 -5 1 -5 -13z"/>
<path d="M284 8250 c9 -13 16 -44 16 -67 0 -36 4 -45 24 -55 28 -12 60 -4 54
15 -3 6 -19 13 -36 15 -29 3 -32 6 -32 37 0 19 -9 43 -21 56 l-21 24 16 -25z"/>
<path d="M1526 8245 c-9 -13 -16 -38 -16 -55 0 -24 -4 -30 -22 -30 -32 0 -68
-11 -68 -20 0 -11 45 -18 75 -12 22 4 25 9 25 49 0 24 7 55 16 68 9 14 14 25
11 25 -2 0 -12 -11 -21 -25z"/>
<path d="M270 7635 c0 -28 21 -33 40 -10 18 22 39 18 50 -7 8 -21 9 -21 9 8 1
30 0 31 -49 33 -47 1 -50 0 -50 -24z"/>
<path d="M326 7551 c-29 -31 -27 -51 9 -81 19 -16 32 -6 17 13 -7 8 -10 16 -7
19 3 3 -2 11 -10 18 -14 12 -13 15 6 37 13 12 20 23 18 23 -3 0 -18 -13 -33
-29z"/>
<path d="M2977 7390 c-5 -21 16 -29 28 -10 10 16 35 11 35 -7 0 -9 -10 -27
-21 -39 -24 -26 -20 -47 10 -64 17 -9 21 -8 21 6 0 10 -7 25 -15 34 -14 15
-14 18 0 30 8 7 15 25 15 41 0 26 -3 29 -34 29 -25 0 -35 -5 -39 -20z"/>
<path d="M790 7019 c0 -15 34 -79 42 -79 4 0 8 -9 8 -20 0 -29 -17 -24 -35 10
-20 38 -44 39 -51 1 -6 -26 -8 -28 -25 -18 -18 11 -18 13 -2 24 9 7 14 15 11
18 -3 3 -16 -3 -30 -14 -27 -21 -43 -17 -51 14 -3 13 -5 9 -6 -12 -1 -30 2
-33 29 -33 16 0 33 -6 37 -14 13 -22 53 -2 46 23 -8 29 24 28 33 -1 8 -27 22
-38 41 -31 18 7 17 48 -2 63 -20 17 -19 27 6 35 15 5 17 10 9 20 -12 15 -60
26 -60 14z"/>
<path d="M974 7005 c-17 -13 -17 -14 -2 -15 25 0 32 -19 14 -39 -19 -21 -21
-45 -3 -59 17 -14 33 -3 46 31 12 30 31 28 31 -3 0 -28 31 -42 51 -24 9 8 26
16 38 17 11 1 21 5 21 10 0 5 -8 6 -19 2 -10 -3 -24 1 -31 10 -7 8 -17 15 -22
15 -7 0 -7 -5 0 -13 6 -7 8 -17 4 -22 -14 -20 -30 -13 -36 15 -7 39 -31 38
-51 0 -9 -17 -20 -28 -25 -25 -12 7 -13 32 -2 37 4 2 18 20 31 41 l23 37 -24
0 c-13 0 -33 -7 -44 -15z"/>
<path d="M3118 6931 c2 -16 -1 -38 -8 -50 -10 -19 -8 -23 22 -35 18 -8 36 -12
41 -9 11 7 -12 33 -29 33 -10 0 -14 13 -14 45 0 25 -4 45 -8 45 -5 0 -7 -13
-4 -29z"/>
<path d="M3063 6393 c-17 -19 -25 -33 -18 -33 18 0 75 49 75 63 0 8 -4 7 -9
-2 -5 -7 -10 -9 -12 -5 -2 5 -18 -6 -36 -23z"/>
<path d="M3005 6350 c3 -5 11 -10 16 -10 6 0 7 5 4 10 -3 6 -11 10 -16 10 -6
0 -7 -4 -4 -10z"/>
<path d="M3070 6350 c-21 -7 -21 -8 -5 -9 11 0 27 4 35 9 18 11 5 11 -30 0z"/>
<path d="M2784 6340 c-30 -12 -33 -19 -24 -70 l7 -45 2 38 c1 26 9 46 26 62
25 26 23 29 -11 15z"/>
<path d="M2851 6323 c7 -12 15 -20 18 -17 3 2 -3 12 -13 22 -17 16 -18 16 -5
-5z"/>
<path d="M2789 6138 c26 -29 72 -44 95 -31 11 6 3 8 -24 8 -27 0 -47 8 -67 25
l-28 25 24 -27z"/>
<path d="M2838 6133 c12 -2 32 -2 45 0 12 2 2 4 -23 4 -25 0 -35 -2 -22 -4z"/>
<path d="M2670 5501 c0 -15 11 -44 24 -63 23 -35 23 -36 5 -54 -23 -24 -10
-56 15 -35 30 25 29 50 -3 87 -17 19 -31 41 -31 50 0 22 28 28 49 10 25 -23
41 -20 41 9 0 23 -3 25 -50 25 -48 0 -50 -1 -50 -29z"/>
<path d="M3680 5505 c0 -29 16 -32 41 -9 21 18 49 12 49 -10 0 -9 -14 -31 -31
-50 -32 -37 -33 -62 -3 -87 25 -21 38 11 15 35 -18 18 -18 19 5 54 13 19 24
48 24 63 0 28 -2 29 -50 29 -47 0 -50 -2 -50 -25z"/>
<path d="M360 4891 c0 -24 8 -43 25 -61 l25 -27 -20 -18 c-11 -10 -20 -24 -20
-32 0 -22 28 -15 46 12 17 25 16 27 -15 58 -47 49 -36 107 14 71 29 -21 45
-17 45 11 0 24 -2 25 -50 23 -50 -3 -50 -3 -50 -37z"/>
<path d="M3875 4850 c0 -26 3 -43 7 -37 4 7 8 23 8 37 0 14 -4 30 -8 37 -4 6
-7 -11 -7 -37z"/>
<path d="M3860 4776 c0 -19 37 -39 57 -31 9 3 20 0 25 -7 6 -10 8 -10 8 -1 0
14 -33 37 -67 48 -17 5 -23 2 -23 -9z"/>
<path d="M253 4245 c0 -22 2 -30 4 -17 2 12 2 30 0 40 -3 9 -5 -1 -4 -23z"/>
<path d="M259 4194 c-2 -5 -17 -16 -33 -24 -16 -8 -31 -22 -33 -30 -4 -12 -3
-12 5 -1 7 9 12 10 16 2 7 -12 66 12 66 27 0 13 -18 34 -21 26z"/>
<path d="M1483 3873 c16 -18 16 -21 2 -33 -9 -7 -13 -15 -11 -18 3 -2 1 -13
-5 -23 -14 -26 3 -24 29 4 29 30 27 48 -6 71 l-27 20 18 -21z"/>
<path d="M3768 2888 c-5 -11 0 -18 15 -22 12 -3 28 -20 36 -37 l14 -32 12 29
c11 24 10 31 -3 42 -9 6 -26 12 -38 12 -12 0 -24 5 -26 12 -3 8 -7 6 -10 -4z"/>
<path d="M3753 2825 c0 -22 2 -30 4 -17 2 12 2 30 0 40 -3 9 -5 -1 -4 -23z"/>
<path d="M2698 2783 c-30 -5 -38 -33 -18 -63 8 -11 9 -8 5 11 -8 33 19 47 45
24 24 -22 40 -18 40 10 0 26 -7 28 -72 18z"/>
<path d="M3822 2368 c-2 -21 -8 -27 -29 -30 -39 -4 -38 -34 1 -31 37 3 38 4
33 49 -2 26 -4 30 -5 12z"/>
<path d="M3765 1821 c-4 -10 1 -12 19 -7 15 4 28 0 36 -9 21 -25 50 -19 50 11
0 24 -2 25 -50 22 -30 -2 -52 -8 -55 -17z"/>
<path d="M3771 1782 c-1 -8 9 -27 20 -44 13 -18 18 -33 12 -37 -5 -3 -13 -18
-17 -33 -5 -22 -3 -26 9 -22 9 4 22 19 30 34 13 25 12 29 -12 51 -14 13 -29
33 -33 44 -5 11 -9 14 -9 7z"/>
<path d="M3618 1343 c7 -3 16 -2 19 1 4 3 -2 6 -13 5 -11 0 -14 -3 -6 -6z"/>
<path d="M3678 1278 c9 -4 30 -7 47 -7 26 -1 28 -3 14 -16 -8 -9 -44 -22 -80
-29 -64 -14 -64 -14 -19 -15 49 -1 115 25 142 55 16 18 15 19 -52 19 -38 0
-62 -3 -52 -7z"/>
</g>
</svg>
