<svg xmlns="http://www.w3.org/2000/svg" xmlns:xlink="http://www.w3.org/1999/xlink" width="500" zoomAndPan="magnify" viewBox="0 0 375 374.999991" height="500" preserveAspectRatio="xMidYMid meet" version="1.0"><defs><clipPath id="id1"><path d="M 81.835938 216 L 293.335938 216 L 293.335938 263.480469 L 81.835938 263.480469 Z M 81.835938 216 " clip-rule="nonzero"/></clipPath><clipPath id="id2"><path d="M 81.835938 158 L 293.335938 158 L 293.335938 217 L 81.835938 217 Z M 81.835938 158 " clip-rule="nonzero"/></clipPath><clipPath id="id3"><path d="M 81.835938 111.230469 L 293.335938 111.230469 L 293.335938 159 L 81.835938 159 Z M 81.835938 111.230469 " clip-rule="nonzero"/></clipPath></defs><g clip-path="url(#id1)"><path fill="#138808" d="M 81.898438 240.054688 C 81.898438 252.992188 92.414062 263.480469 105.382812 263.480469 L 269.785156 263.480469 C 282.753906 263.480469 293.269531 252.992188 293.269531 240.054688 L 293.269531 216.632812 L 81.898438 216.632812 Z M 81.898438 240.054688 " fill-opacity="1" fill-rule="nonzero"/></g><g clip-path="url(#id2)"><path fill="#eeeeee" d="M 81.898438 158.074219 L 293.269531 158.074219 L 293.269531 216.632812 L 81.898438 216.632812 Z M 81.898438 158.074219 " fill-opacity="1" fill-rule="nonzero"/></g><g clip-path="url(#id3)"><path fill="#ff9933" d="M 293.269531 158.074219 L 293.269531 134.652344 C 293.269531 121.714844 282.753906 111.230469 269.785156 111.230469 L 105.382812 111.230469 C 92.414062 111.230469 81.898438 121.714844 81.898438 134.652344 L 81.898438 158.074219 Z M 293.269531 158.074219 " fill-opacity="1" fill-rule="nonzero"/></g><path fill="#000080" d="M 211.070312 187.355469 C 211.070312 188.121094 211.03125 188.886719 210.957031 189.648438 C 210.882812 190.414062 210.769531 191.171875 210.621094 191.921875 C 210.46875 192.675781 210.28125 193.417969 210.058594 194.152344 C 209.835938 194.886719 209.578125 195.609375 209.28125 196.316406 C 208.988281 197.027344 208.660156 197.71875 208.296875 198.394531 C 207.933594 199.070312 207.539062 199.730469 207.113281 200.367188 C 206.683594 201.003906 206.226562 201.621094 205.738281 202.214844 C 205.25 202.804688 204.734375 203.375 204.191406 203.917969 C 203.648438 204.457031 203.078125 204.972656 202.484375 205.460938 C 201.890625 205.945312 201.273438 206.402344 200.632812 206.828125 C 199.992188 207.253906 199.335938 207.648438 198.65625 208.011719 C 197.976562 208.371094 197.28125 208.699219 196.574219 208.992188 C 195.863281 209.289062 195.136719 209.546875 194.402344 209.769531 C 193.667969 209.992188 192.921875 210.175781 192.167969 210.328125 C 191.414062 210.476562 190.652344 210.589844 189.886719 210.664062 C 189.121094 210.738281 188.355469 210.777344 187.585938 210.777344 C 186.816406 210.777344 186.046875 210.738281 185.28125 210.664062 C 184.515625 210.589844 183.757812 210.476562 183.003906 210.328125 C 182.25 210.175781 181.503906 209.992188 180.765625 209.769531 C 180.03125 209.546875 179.308594 209.289062 178.597656 208.992188 C 177.886719 208.699219 177.191406 208.371094 176.511719 208.011719 C 175.835938 207.648438 175.175781 207.253906 174.535156 206.828125 C 173.898438 206.402344 173.28125 205.945312 172.683594 205.460938 C 172.089844 204.972656 171.523438 204.457031 170.976562 203.917969 C 170.433594 203.375 169.917969 202.804688 169.429688 202.214844 C 168.941406 201.621094 168.484375 201.003906 168.058594 200.367188 C 167.628906 199.730469 167.234375 199.070312 166.871094 198.394531 C 166.507812 197.71875 166.179688 197.027344 165.886719 196.316406 C 165.59375 195.609375 165.332031 194.886719 165.109375 194.152344 C 164.886719 193.417969 164.699219 192.675781 164.550781 191.921875 C 164.398438 191.171875 164.289062 190.414062 164.210938 189.648438 C 164.136719 188.886719 164.097656 188.121094 164.097656 187.355469 C 164.097656 186.585938 164.136719 185.820312 164.210938 185.058594 C 164.289062 184.292969 164.398438 183.535156 164.550781 182.785156 C 164.699219 182.03125 164.886719 181.289062 165.109375 180.554688 C 165.332031 179.820312 165.59375 179.097656 165.886719 178.390625 C 166.179688 177.679688 166.507812 176.988281 166.871094 176.3125 C 167.234375 175.636719 167.628906 174.980469 168.058594 174.339844 C 168.484375 173.703125 168.941406 173.085938 169.429688 172.496094 C 169.917969 171.902344 170.433594 171.332031 170.976562 170.792969 C 171.523438 170.25 172.089844 169.734375 172.683594 169.246094 C 173.28125 168.761719 173.898438 168.304688 174.535156 167.878906 C 175.175781 167.453125 175.835938 167.058594 176.511719 166.695312 C 177.191406 166.335938 177.886719 166.007812 178.597656 165.714844 C 179.308594 165.421875 180.03125 165.160156 180.765625 164.9375 C 181.503906 164.714844 182.25 164.53125 183.003906 164.382812 C 183.757812 164.230469 184.515625 164.117188 185.28125 164.042969 C 186.046875 163.96875 186.816406 163.929688 187.585938 163.929688 C 188.355469 163.929688 189.121094 163.96875 189.886719 164.042969 C 190.652344 164.117188 191.414062 164.230469 192.167969 164.382812 C 192.921875 164.53125 193.667969 164.714844 194.402344 164.9375 C 195.136719 165.160156 195.863281 165.421875 196.574219 165.714844 C 197.28125 166.007812 197.976562 166.335938 198.65625 166.695312 C 199.335938 167.058594 199.992188 167.453125 200.632812 167.878906 C 201.273438 168.304688 201.890625 168.761719 202.484375 169.246094 C 203.078125 169.734375 203.648438 170.25 204.191406 170.792969 C 204.734375 171.332031 205.25 171.902344 205.738281 172.496094 C 206.226562 173.085938 206.683594 173.703125 207.113281 174.339844 C 207.539062 174.980469 207.933594 175.636719 208.296875 176.3125 C 208.660156 176.988281 208.988281 177.679688 209.28125 178.390625 C 209.578125 179.097656 209.835938 179.820312 210.058594 180.554688 C 210.28125 181.289062 210.46875 182.03125 210.621094 182.785156 C 210.769531 183.535156 210.882812 184.292969 210.957031 185.058594 C 211.03125 185.820312 211.070312 186.585938 211.070312 187.355469 Z M 211.070312 187.355469 " fill-opacity="1" fill-rule="nonzero"/><path fill="#eeeeee" d="M 205.199219 187.355469 C 205.199219 187.929688 205.171875 188.503906 205.113281 189.074219 C 205.058594 189.648438 204.972656 190.21875 204.859375 190.78125 C 204.75 191.34375 204.609375 191.902344 204.441406 192.453125 C 204.273438 193.003906 204.078125 193.546875 203.859375 194.078125 C 203.636719 194.609375 203.390625 195.128906 203.121094 195.636719 C 202.847656 196.140625 202.550781 196.636719 202.230469 197.113281 C 201.910156 197.59375 201.566406 198.054688 201.199219 198.5 C 200.835938 198.941406 200.449219 199.367188 200.039062 199.777344 C 199.632812 200.183594 199.207031 200.570312 198.757812 200.933594 C 198.3125 201.296875 197.851562 201.640625 197.371094 201.960938 C 196.890625 202.28125 196.398438 202.574219 195.886719 202.847656 C 195.378906 203.117188 194.859375 203.363281 194.324219 203.582031 C 193.792969 203.804688 193.25 203.996094 192.699219 204.164062 C 192.144531 204.332031 191.585938 204.472656 191.019531 204.582031 C 190.457031 204.695312 189.886719 204.78125 189.3125 204.835938 C 188.738281 204.894531 188.160156 204.921875 187.585938 204.921875 C 187.007812 204.921875 186.433594 204.894531 185.859375 204.835938 C 185.285156 204.78125 184.714844 204.695312 184.148438 204.582031 C 183.582031 204.472656 183.023438 204.332031 182.472656 204.164062 C 181.917969 203.996094 181.378906 203.804688 180.84375 203.582031 C 180.3125 203.363281 179.789062 203.117188 179.28125 202.847656 C 178.773438 202.574219 178.277344 202.28125 177.796875 201.960938 C 177.320312 201.640625 176.855469 201.296875 176.410156 200.933594 C 175.964844 200.570312 175.539062 200.183594 175.128906 199.777344 C 174.722656 199.367188 174.335938 198.941406 173.96875 198.5 C 173.601562 198.054688 173.257812 197.59375 172.9375 197.113281 C 172.617188 196.636719 172.320312 196.140625 172.050781 195.636719 C 171.777344 195.128906 171.53125 194.609375 171.3125 194.078125 C 171.089844 193.546875 170.894531 193.003906 170.730469 192.453125 C 170.5625 191.902344 170.421875 191.34375 170.308594 190.78125 C 170.195312 190.21875 170.113281 189.648438 170.054688 189.074219 C 170 188.503906 169.96875 187.929688 169.96875 187.355469 C 169.96875 186.777344 170 186.203125 170.054688 185.632812 C 170.113281 185.058594 170.195312 184.492188 170.308594 183.925781 C 170.421875 183.363281 170.5625 182.804688 170.730469 182.253906 C 170.894531 181.703125 171.089844 181.164062 171.3125 180.632812 C 171.53125 180.101562 171.777344 179.582031 172.050781 179.074219 C 172.320312 178.566406 172.617188 178.074219 172.9375 177.59375 C 173.257812 177.117188 173.601562 176.652344 173.96875 176.210938 C 174.335938 175.765625 174.722656 175.339844 175.128906 174.933594 C 175.539062 174.523438 175.964844 174.140625 176.410156 173.773438 C 176.855469 173.410156 177.320312 173.066406 177.796875 172.746094 C 178.277344 172.425781 178.773438 172.132812 179.28125 171.859375 C 179.789062 171.589844 180.3125 171.34375 180.84375 171.125 C 181.378906 170.902344 181.917969 170.710938 182.472656 170.542969 C 183.023438 170.375 183.582031 170.238281 184.148438 170.125 C 184.714844 170.011719 185.285156 169.925781 185.859375 169.871094 C 186.433594 169.816406 187.007812 169.785156 187.585938 169.785156 C 188.160156 169.785156 188.738281 169.816406 189.3125 169.871094 C 189.886719 169.925781 190.457031 170.011719 191.019531 170.125 C 191.585938 170.238281 192.144531 170.375 192.699219 170.542969 C 193.25 170.710938 193.792969 170.902344 194.324219 171.125 C 194.859375 171.34375 195.378906 171.589844 195.886719 171.859375 C 196.398438 172.132812 196.890625 172.425781 197.371094 172.746094 C 197.851562 173.066406 198.3125 173.410156 198.757812 173.773438 C 199.207031 174.140625 199.632812 174.523438 200.039062 174.933594 C 200.449219 175.339844 200.835938 175.765625 201.199219 176.210938 C 201.566406 176.652344 201.910156 177.117188 202.230469 177.59375 C 202.550781 178.074219 202.847656 178.566406 203.121094 179.074219 C 203.390625 179.582031 203.636719 180.101562 203.859375 180.632812 C 204.078125 181.164062 204.273438 181.703125 204.441406 182.253906 C 204.609375 182.804688 204.75 183.363281 204.859375 183.925781 C 204.972656 184.492188 205.058594 185.058594 205.113281 185.632812 C 205.171875 186.203125 205.199219 186.777344 205.199219 187.355469 Z M 205.199219 187.355469 " fill-opacity="1" fill-rule="nonzero"/><path fill="#6666b3" d="M 187.585938 169.785156 L 188.441406 183.042969 L 194.320312 171.128906 L 190.03125 183.699219 L 200.039062 174.929688 L 191.25 184.910156 L 203.855469 180.632812 L 191.90625 186.5 L 205.199219 187.355469 L 191.90625 188.207031 L 203.855469 194.070312 L 191.25 189.796875 L 200.039062 199.773438 L 190.03125 191.007812 L 194.320312 203.582031 L 188.441406 191.664062 L 187.585938 204.921875 L 186.726562 191.664062 L 180.84375 203.582031 L 185.136719 191.007812 L 175.125 199.773438 L 183.921875 189.796875 L 171.316406 194.070312 L 183.261719 188.207031 L 169.96875 187.355469 L 183.261719 186.5 L 171.316406 180.632812 L 183.921875 184.910156 L 175.125 174.929688 L 185.136719 183.699219 L 180.84375 171.128906 L 186.726562 183.042969 Z M 187.585938 169.785156 " fill-opacity="1" fill-rule="nonzero"/><path fill="#000080" d="M 193.457031 187.355469 C 193.457031 187.738281 193.417969 188.121094 193.34375 188.496094 C 193.269531 188.875 193.15625 189.238281 193.007812 189.59375 C 192.863281 189.949219 192.679688 190.289062 192.464844 190.605469 C 192.253906 190.925781 192.007812 191.222656 191.738281 191.496094 C 191.464844 191.765625 191.167969 192.007812 190.847656 192.222656 C 190.527344 192.4375 190.1875 192.617188 189.832031 192.765625 C 189.476562 192.910156 189.109375 193.023438 188.730469 193.097656 C 188.351562 193.171875 187.96875 193.210938 187.585938 193.210938 C 187.199219 193.210938 186.816406 193.171875 186.4375 193.097656 C 186.0625 193.023438 185.695312 192.910156 185.335938 192.765625 C 184.980469 192.617188 184.644531 192.4375 184.324219 192.222656 C 184.003906 192.007812 183.707031 191.765625 183.433594 191.496094 C 183.160156 191.222656 182.917969 190.925781 182.703125 190.605469 C 182.488281 190.289062 182.308594 189.949219 182.160156 189.59375 C 182.011719 189.238281 181.902344 188.875 181.824219 188.496094 C 181.75 188.121094 181.714844 187.738281 181.714844 187.355469 C 181.714844 186.96875 181.75 186.589844 181.824219 186.210938 C 181.902344 185.835938 182.011719 185.46875 182.160156 185.113281 C 182.308594 184.757812 182.488281 184.421875 182.703125 184.101562 C 182.917969 183.78125 183.160156 183.484375 183.433594 183.214844 C 183.707031 182.941406 184.003906 182.699219 184.324219 182.484375 C 184.644531 182.269531 184.980469 182.089844 185.335938 181.945312 C 185.695312 181.796875 186.0625 181.6875 186.4375 181.609375 C 186.816406 181.535156 187.199219 181.5 187.585938 181.5 C 187.96875 181.5 188.351562 181.535156 188.730469 181.609375 C 189.109375 181.6875 189.476562 181.796875 189.832031 181.945312 C 190.1875 182.089844 190.527344 182.269531 190.847656 182.484375 C 191.167969 182.699219 191.464844 182.941406 191.738281 183.214844 C 192.007812 183.484375 192.253906 183.78125 192.464844 184.101562 C 192.679688 184.421875 192.863281 184.757812 193.007812 185.113281 C 193.15625 185.46875 193.269531 185.835938 193.34375 186.210938 C 193.417969 186.589844 193.457031 186.96875 193.457031 187.355469 Z M 193.457031 187.355469 " fill-opacity="1" fill-rule="nonzero"/></svg>