<svg xmlns="http://www.w3.org/2000/svg" xmlns:xlink="http://www.w3.org/1999/xlink" width="500" zoomAndPan="magnify" viewBox="0 0 375 374.999991" height="500" preserveAspectRatio="xMidYMid meet" version="1.0"><defs><clipPath id="id1"><path d="M 81.835938 216 L 293.335938 216 L 293.335938 263.480469 L 81.835938 263.480469 Z M 81.835938 216 " clip-rule="nonzero"/></clipPath><clipPath id="id2"><path d="M 81.835938 158 L 293.335938 158 L 293.335938 217 L 81.835938 217 Z M 81.835938 158 " clip-rule="nonzero"/></clipPath><clipPath id="id3"><path d="M 81.835938 111.230469 L 293.335938 111.230469 L 293.335938 159 L 81.835938 159 Z M 81.835938 111.230469 " clip-rule="nonzero"/></clipPath></defs><g clip-path="url(#id1)"><path fill="#ce2028" d="M 293.269531 240.054688 C 293.269531 252.992188 282.753906 263.480469 269.785156 263.480469 L 105.382812 263.480469 C 92.414062 263.480469 81.898438 252.992188 81.898438 240.054688 L 81.898438 216.632812 L 293.269531 216.632812 Z M 293.269531 240.054688 " fill-opacity="1" fill-rule="nonzero"/></g><g clip-path="url(#id2)"><path fill="#22408c" d="M 81.898438 158.074219 L 293.269531 158.074219 L 293.269531 216.632812 L 81.898438 216.632812 Z M 81.898438 158.074219 " fill-opacity="1" fill-rule="nonzero"/></g><g clip-path="url(#id3)"><path fill="#eeeeee" d="M 269.785156 111.230469 L 105.382812 111.230469 C 92.414062 111.230469 81.898438 121.714844 81.898438 134.652344 L 81.898438 158.074219 L 293.269531 158.074219 L 293.269531 134.652344 C 293.269531 121.714844 282.753906 111.230469 269.785156 111.230469 Z M 269.785156 111.230469 " fill-opacity="1" fill-rule="nonzero"/></g></svg>