<svg xmlns="http://www.w3.org/2000/svg" xmlns:xlink="http://www.w3.org/1999/xlink" width="500" zoomAndPan="magnify" viewBox="0 0 375 374.999991" height="500" preserveAspectRatio="xMidYMid meet" version="1.0"><defs><clipPath id="id1"><path d="M 81.835938 111.230469 L 293.335938 111.230469 L 293.335938 263.480469 L 81.835938 263.480469 Z M 81.835938 111.230469 " clip-rule="nonzero"/></clipPath><clipPath id="id2"><path d="M 81.835938 122 L 293.335938 122 L 293.335938 252 L 81.835938 252 Z M 81.835938 122 " clip-rule="nonzero"/></clipPath><clipPath id="id3"><path d="M 81.835938 111.230469 L 188 111.230469 L 188 194 L 81.835938 194 Z M 81.835938 111.230469 " clip-rule="nonzero"/></clipPath></defs><g clip-path="url(#id1)"><path fill="#b22334" d="M 290.011719 122.941406 C 285.945312 115.964844 278.457031 111.230469 269.785156 111.230469 L 187.585938 111.230469 L 187.585938 122.941406 Z M 81.898438 228.34375 L 293.269531 228.34375 L 293.269531 240.054688 L 81.898438 240.054688 Z M 187.585938 181.5 L 293.269531 181.5 L 293.269531 193.210938 L 187.585938 193.210938 Z M 187.585938 158.074219 L 293.269531 158.074219 L 293.269531 169.785156 L 187.585938 169.785156 Z M 81.898438 204.921875 L 293.269531 204.921875 L 293.269531 216.632812 L 81.898438 216.632812 Z M 105.382812 263.480469 L 269.785156 263.480469 C 278.457031 263.480469 285.945312 258.742188 290.011719 251.765625 L 85.15625 251.765625 C 89.226562 258.742188 96.710938 263.480469 105.382812 263.480469 Z M 187.585938 134.652344 L 293.269531 134.652344 L 293.269531 146.363281 L 187.585938 146.363281 Z M 187.585938 134.652344 " fill-opacity="1" fill-rule="nonzero"/></g><g clip-path="url(#id2)"><path fill="#eeeeee" d="M 82.296875 244.03125 C 82.398438 244.578125 82.507812 245.121094 82.644531 245.652344 C 82.796875 246.246094 82.984375 246.8125 83.183594 247.386719 C 83.707031 248.902344 84.339844 250.367188 85.140625 251.738281 L 85.15625 251.765625 L 290.011719 251.765625 L 290.023438 251.742188 C 290.816406 250.378906 291.449219 248.914062 291.972656 247.40625 C 292.171875 246.824219 292.367188 246.246094 292.519531 245.640625 C 292.65625 245.113281 292.765625 244.578125 292.867188 244.03125 C 293.105469 242.742188 293.269531 241.421875 293.269531 240.054688 L 81.898438 240.054688 C 81.898438 241.421875 82.0625 242.738281 82.296875 244.03125 Z M 81.898438 216.632812 L 293.269531 216.632812 L 293.269531 228.34375 L 81.898438 228.34375 Z M 81.898438 193.210938 L 81.898438 204.921875 L 293.269531 204.921875 L 293.269531 193.210938 Z M 187.585938 169.785156 L 293.269531 169.785156 L 293.269531 181.5 L 187.585938 181.5 Z M 187.585938 146.363281 L 293.269531 146.363281 L 293.269531 158.074219 L 187.585938 158.074219 Z M 81.898438 134.652344 C 81.898438 133.289062 82.074219 131.976562 82.296875 130.675781 C 82.0625 131.96875 81.898438 133.289062 81.898438 134.652344 Z M 85.15625 122.941406 L 85.140625 122.96875 Z M 82.648438 129.054688 C 82.796875 128.457031 83.003906 127.886719 83.191406 127.316406 C 82.992188 127.886719 82.800781 128.460938 82.648438 129.054688 Z M 187.585938 134.652344 L 293.269531 134.652344 C 293.269531 133.289062 293.105469 131.964844 292.867188 130.671875 C 292.765625 130.132812 292.660156 129.59375 292.519531 129.066406 C 292.359375 128.460938 292.171875 127.875 291.96875 127.296875 C 291.445312 125.785156 290.8125 124.328125 290.019531 122.964844 C 290.023438 122.957031 290.019531 122.945312 290.011719 122.941406 L 187.585938 122.941406 Z M 187.585938 134.652344 " fill-opacity="1" fill-rule="nonzero"/></g><g clip-path="url(#id3)"><path fill="#3c3b6e" d="M 187.585938 111.230469 L 105.382812 111.230469 C 92.414062 111.230469 81.898438 121.714844 81.898438 134.652344 L 81.898438 193.210938 L 187.585938 193.210938 Z M 187.585938 111.230469 " fill-opacity="1" fill-rule="nonzero"/></g><path fill="#ffffff" d="M 93.648438 127.191406 L 97.277344 129.820312 L 95.890625 134.066406 L 99.511719 131.441406 L 103.140625 134.066406 L 101.753906 129.820312 L 105.382812 127.191406 L 100.898438 127.191406 L 99.511719 122.941406 L 98.132812 127.191406 Z M 105.390625 138.902344 L 109.019531 141.53125 L 107.632812 145.777344 L 111.253906 143.15625 L 114.882812 145.777344 L 113.5 141.53125 L 117.128906 138.902344 L 112.640625 138.902344 L 111.253906 134.652344 L 109.875 138.902344 Z M 128.875 138.902344 L 132.503906 141.53125 L 131.117188 145.777344 L 134.742188 143.15625 L 138.371094 145.777344 L 136.984375 141.53125 L 140.613281 138.902344 L 136.128906 138.902344 L 134.742188 134.652344 L 133.363281 138.902344 Z M 152.363281 138.902344 L 155.992188 141.53125 L 154.605469 145.777344 L 158.226562 143.15625 L 161.855469 145.777344 L 160.46875 141.53125 L 164.097656 138.902344 L 159.613281 138.902344 L 158.226562 134.652344 L 156.847656 138.902344 Z M 105.390625 162.328125 L 109.019531 164.957031 L 107.632812 169.199219 L 111.253906 166.578125 L 114.882812 169.199219 L 113.5 164.957031 L 117.128906 162.328125 L 112.640625 162.328125 L 111.253906 158.074219 L 109.875 162.328125 Z M 128.875 162.328125 L 132.503906 164.957031 L 131.117188 169.199219 L 134.742188 166.578125 L 138.371094 169.199219 L 136.984375 164.957031 L 140.613281 162.328125 L 136.128906 162.328125 L 134.742188 158.074219 L 133.363281 162.328125 Z M 152.363281 162.328125 L 155.992188 164.957031 L 154.605469 169.199219 L 158.226562 166.578125 L 161.855469 169.199219 L 160.46875 164.957031 L 164.097656 162.328125 L 159.613281 162.328125 L 158.226562 158.074219 L 156.847656 162.328125 Z M 117.132812 127.191406 L 120.761719 129.820312 L 119.375 134.066406 L 123 131.441406 L 126.628906 134.066406 L 125.242188 129.820312 L 128.871094 127.191406 L 124.382812 127.191406 L 123 122.941406 L 121.617188 127.191406 Z M 140.617188 127.191406 L 144.246094 129.820312 L 142.863281 134.066406 L 146.484375 131.441406 L 150.113281 134.066406 L 148.726562 129.820312 L 152.355469 127.191406 L 147.871094 127.191406 L 146.484375 122.941406 L 145.105469 127.191406 Z M 164.105469 127.191406 L 167.734375 129.820312 L 166.347656 134.066406 L 169.96875 131.441406 L 173.597656 134.066406 L 172.214844 129.820312 L 175.84375 127.191406 L 171.355469 127.191406 L 169.96875 122.941406 L 168.589844 127.191406 Z M 93.648438 150.613281 L 97.277344 153.242188 L 95.890625 157.488281 L 99.511719 154.867188 L 103.140625 157.488281 L 101.753906 153.242188 L 105.382812 150.613281 L 100.898438 150.613281 L 99.511719 146.363281 L 98.132812 150.613281 Z M 119.375 157.488281 L 123 154.867188 L 126.628906 157.488281 L 125.242188 153.242188 L 128.871094 150.613281 L 124.382812 150.613281 L 123 146.363281 L 121.617188 150.613281 L 117.132812 150.613281 L 120.761719 153.242188 Z M 140.617188 150.613281 L 144.246094 153.242188 L 142.863281 157.488281 L 146.484375 154.867188 L 150.113281 157.488281 L 148.726562 153.242188 L 152.355469 150.613281 L 147.871094 150.613281 L 146.484375 146.363281 L 145.105469 150.613281 Z M 164.105469 150.613281 L 167.734375 153.242188 L 166.347656 157.488281 L 169.96875 154.867188 L 173.597656 157.488281 L 172.214844 153.242188 L 175.84375 150.613281 L 171.355469 150.613281 L 169.96875 146.363281 L 168.589844 150.613281 Z M 93.648438 174.039062 L 97.277344 176.667969 L 95.890625 180.914062 L 99.511719 178.289062 L 103.140625 180.914062 L 101.753906 176.667969 L 105.382812 174.039062 L 100.898438 174.039062 L 99.511719 169.785156 L 98.132812 174.039062 Z M 119.375 180.914062 L 123 178.289062 L 126.628906 180.914062 L 125.242188 176.667969 L 128.871094 174.039062 L 124.382812 174.039062 L 123 169.785156 L 121.617188 174.039062 L 117.132812 174.039062 L 120.761719 176.667969 Z M 140.617188 174.039062 L 144.246094 176.667969 L 142.863281 180.914062 L 146.484375 178.289062 L 150.113281 180.914062 L 148.726562 176.667969 L 152.355469 174.039062 L 147.871094 174.039062 L 146.484375 169.785156 L 145.105469 174.039062 Z M 164.105469 174.039062 L 167.734375 176.667969 L 166.347656 180.914062 L 169.96875 178.289062 L 173.597656 180.914062 L 172.214844 176.667969 L 175.84375 174.039062 L 171.355469 174.039062 L 169.96875 169.785156 L 168.589844 174.039062 Z M 164.105469 174.039062 " fill-opacity="1" fill-rule="nonzero"/></svg>