<svg xmlns="http://www.w3.org/2000/svg" xmlns:xlink="http://www.w3.org/1999/xlink" width="500" zoomAndPan="magnify" viewBox="0 0 375 374.999991" height="500" preserveAspectRatio="xMidYMid meet" version="1.0"><defs><clipPath id="id1"><path d="M 81.835938 111.230469 L 293.335938 111.230469 L 293.335938 263.480469 L 81.835938 263.480469 Z M 81.835938 111.230469 " clip-rule="nonzero"/></clipPath></defs><g clip-path="url(#id1)"><path fill="#de2910" d="M 293.269531 240.054688 C 293.269531 252.992188 282.753906 263.480469 269.785156 263.480469 L 105.382812 263.480469 C 92.414062 263.480469 81.898438 252.992188 81.898438 240.054688 L 81.898438 134.652344 C 81.898438 121.714844 92.414062 111.230469 105.382812 111.230469 L 269.785156 111.230469 C 282.753906 111.230469 293.269531 121.714844 293.269531 134.652344 Z M 293.269531 240.054688 " fill-opacity="1" fill-rule="nonzero"/></g><path fill="#ffde02" d="M 147.28125 134.515625 L 151.605469 136.601562 L 155.0625 133.289062 L 154.410156 138.03125 L 158.636719 140.292969 L 153.917969 141.132812 L 153.074219 145.84375 L 150.804688 141.625 L 146.050781 142.277344 L 149.375 138.828125 Z M 174.671875 151.738281 L 172.582031 156.042969 L 175.90625 159.496094 L 171.15625 158.84375 L 168.890625 163.0625 L 168.042969 158.351562 L 163.316406 157.507812 L 167.550781 155.246094 L 166.894531 150.507812 L 170.359375 153.824219 Z M 169.054688 173.867188 L 170.628906 178.390625 L 175.425781 178.488281 L 171.601562 181.375 L 172.996094 185.960938 L 169.054688 183.226562 L 165.113281 185.960938 L 166.5 181.375 L 162.679688 178.488281 L 167.476562 178.390625 Z M 147.28125 193.074219 L 151.605469 195.160156 L 155.0625 191.84375 L 154.410156 196.589844 L 158.636719 198.847656 L 153.917969 199.691406 L 153.074219 204.398438 L 150.804688 200.183594 L 146.050781 200.832031 L 149.375 197.386719 Z M 123 146.078125 L 128.453125 161.71875 L 145.046875 162.058594 L 131.816406 172.058594 L 136.625 187.90625 L 123 178.449219 L 109.371094 187.90625 L 114.179688 172.058594 L 100.953125 162.058594 L 117.542969 161.71875 Z M 123 146.078125 " fill-opacity="1" fill-rule="nonzero"/></svg>