<svg xmlns="http://www.w3.org/2000/svg" xmlns:xlink="http://www.w3.org/1999/xlink" width="500" zoomAndPan="magnify" viewBox="0 0 375 374.999991" height="500" preserveAspectRatio="xMidYMid meet" version="1.0"><defs><clipPath id="id1"><path d="M 81.835938 158 L 293.335938 158 L 293.335938 217 L 81.835938 217 Z M 81.835938 158 " clip-rule="nonzero"/></clipPath><clipPath id="id2"><path d="M 81.835938 216 L 293.335938 216 L 293.335938 263.480469 L 81.835938 263.480469 Z M 81.835938 216 " clip-rule="nonzero"/></clipPath><clipPath id="id3"><path d="M 81.835938 111.230469 L 293.335938 111.230469 L 293.335938 246 L 81.835938 246 Z M 81.835938 111.230469 " clip-rule="nonzero"/></clipPath></defs><g clip-path="url(#id1)"><path fill="#0c4076" d="M 81.898438 158.074219 L 293.269531 158.074219 L 293.269531 216.632812 L 81.898438 216.632812 Z M 81.898438 158.074219 " fill-opacity="1" fill-rule="nonzero"/></g><g clip-path="url(#id2)"><path fill="#eeeeee" d="M 81.898438 240.054688 C 81.898438 252.992188 92.414062 263.480469 105.382812 263.480469 L 269.785156 263.480469 C 282.753906 263.480469 293.269531 252.992188 293.269531 240.054688 L 293.269531 216.632812 L 81.898438 216.632812 Z M 81.898438 240.054688 " fill-opacity="1" fill-rule="nonzero"/></g><g clip-path="url(#id3)"><path fill="#c6363c" d="M 293.269531 134.652344 C 293.269531 121.714844 282.753906 111.230469 269.785156 111.230469 L 105.382812 111.230469 C 92.414062 111.230469 81.898438 121.714844 81.898438 134.652344 L 81.898438 158.074219 L 293.269531 158.074219 Z M 123 158.074219 L 123 213.703125 C 123 231.488281 137.453125 245.910156 155.292969 245.910156 C 173.128906 245.910156 187.585938 231.488281 187.585938 213.703125 L 187.585938 158.074219 Z M 123 158.074219 " fill-opacity="1" fill-rule="nonzero"/></g><path fill="#edb92e" d="M 155.292969 123.304688 C 132.167969 123.304688 124.925781 133.09375 126.851562 136.753906 C 128.777344 140.414062 134.554688 149.835938 134.554688 149.835938 C 134.554688 149.835938 132.722656 150.566406 134.554688 154.226562 C 136.386719 157.886719 143.542969 155.417969 155.285156 155.417969 C 167.027344 155.417969 174.1875 157.886719 176.019531 154.226562 C 177.851562 150.566406 176.019531 149.835938 176.019531 149.835938 C 176.019531 149.835938 181.796875 140.414062 183.726562 136.753906 C 185.660156 133.09375 178.414062 123.304688 155.292969 123.304688 Z M 135.105469 140.6875 C 133.445312 141.203125 135.105469 146.269531 134.519531 144.078125 C 134.035156 142.269531 132.167969 141.515625 132.167969 142.523438 C 132.167969 143.53125 131.4375 142.523438 131.617188 140.695312 C 131.800781 138.863281 131.253906 137.765625 130.148438 136.210938 C 129.050781 134.652344 129.050781 133.28125 130.433594 132.363281 C 131.804688 131.449219 134.835938 130.71875 134.835938 130.71875 C 134.835938 130.71875 136.027344 135.933594 136.667969 137.125 C 137.308594 138.3125 138.5 139.089844 138.5 139.089844 C 138.5 139.089844 137.949219 139.957031 138.5 140.414062 C 139.050781 140.871094 139.691406 141.972656 139.691406 141.972656 C 139.691406 141.972656 137.675781 140.328125 137.3125 140.6875 C 136.949219 141.050781 137.769531 141.515625 137.675781 142.152344 C 137.582031 142.796875 136.574219 140.234375 135.105469 140.6875 Z M 153.824219 140.78125 C 153.367188 141.238281 152.996094 140.414062 152.078125 139.777344 C 151.164062 139.136719 150.613281 139.507812 150.792969 140.238281 C 150.976562 140.96875 149.691406 140.875 149.691406 141.976562 C 149.691406 143.078125 148.5 142.617188 148.5 142.617188 C 148.5 142.617188 149.964844 138.773438 147.488281 138.863281 C 146.085938 138.914062 146.574219 141.789062 147.488281 142.796875 C 147.082031 142.183594 145.925781 142.160156 144.964844 141.425781 C 144 140.695312 145.097656 139.5 144.363281 139.777344 C 143.632812 140.050781 143.171875 141.238281 142.4375 141.515625 C 141.707031 141.789062 142.074219 140.683594 142.4375 139.777344 C 142.804688 138.863281 142.015625 138.40625 142.015625 138.40625 C 142.015625 138.40625 142.074219 137.765625 142.625 137.398438 C 143.179688 137.035156 143.359375 136.390625 142.625 135.660156 C 141.894531 134.925781 139.238281 130.8125 140.0625 129.433594 C 140.890625 128.0625 143.636719 126.507812 151.347656 126.6875 C 152.71875 133 150.613281 136.109375 150.613281 136.109375 C 150.613281 136.109375 152.175781 137.117188 152.632812 137.667969 C 151.527344 138.128906 152.355469 138.585938 153.089844 139.226562 C 153.824219 139.871094 154.28125 140.328125 153.824219 140.78125 Z M 168.136719 139.777344 C 168.503906 140.6875 168.871094 141.789062 168.136719 141.515625 C 167.40625 141.238281 166.945312 140.050781 166.210938 139.777344 C 165.480469 139.5 166.578125 140.695312 165.613281 141.425781 C 164.652344 142.160156 163.5 142.183594 163.089844 142.796875 C 164.003906 141.789062 164.492188 138.914062 163.089844 138.863281 C 160.609375 138.769531 162.078125 142.617188 162.078125 142.617188 C 162.078125 142.617188 160.886719 143.074219 160.886719 141.976562 C 160.886719 140.882812 159.601562 140.96875 159.785156 140.238281 C 159.964844 139.507812 159.417969 139.136719 158.496094 139.777344 C 157.582031 140.414062 157.210938 141.238281 156.753906 140.78125 C 156.296875 140.328125 156.753906 139.871094 157.488281 139.226562 C 158.226562 138.585938 159.054688 138.128906 157.953125 137.671875 C 158.410156 137.125 159.972656 136.117188 159.972656 136.117188 C 159.972656 136.117188 157.863281 133.007812 159.238281 126.695312 C 166.941406 126.511719 169.695312 128.0625 170.523438 129.441406 C 171.351562 130.8125 168.691406 134.933594 167.949219 135.660156 C 167.210938 136.386719 167.398438 137.03125 167.949219 137.398438 C 168.503906 137.761719 168.5625 138.40625 168.5625 138.40625 C 168.5625 138.40625 167.769531 138.863281 168.136719 139.777344 Z M 180.425781 136.210938 C 179.324219 137.765625 178.777344 138.863281 178.960938 140.695312 C 179.140625 142.523438 178.40625 143.53125 178.40625 142.523438 C 178.40625 141.515625 176.539062 142.277344 176.058594 144.078125 C 175.472656 146.269531 177.132812 141.210938 175.472656 140.6875 C 174.003906 140.234375 172.078125 144.625 172.535156 144.167969 C 172.996094 143.710938 173.640625 141.058594 173.269531 140.6875 C 172.90625 140.320312 170.886719 141.972656 170.886719 141.972656 C 170.886719 141.972656 171.527344 140.871094 172.078125 140.414062 C 172.628906 139.957031 172.078125 139.089844 172.078125 139.089844 C 172.078125 139.089844 173.269531 138.3125 173.910156 137.125 C 174.550781 135.933594 175.742188 130.71875 175.742188 130.71875 C 175.742188 130.71875 178.773438 131.449219 180.144531 132.363281 C 181.519531 133.277344 181.53125 134.652344 180.425781 136.210938 Z M 180.425781 136.210938 " fill-opacity="1" fill-rule="nonzero"/><path fill="#ffac33" d="M 155.933594 124.359375 C 155.933594 124.9375 155.457031 125.410156 154.875 125.410156 C 154.292969 125.410156 153.816406 124.9375 153.816406 124.359375 L 153.816406 115.117188 C 153.816406 114.539062 154.292969 114.0625 154.875 114.0625 C 155.457031 114.0625 155.933594 114.539062 155.933594 115.117188 Z M 155.933594 124.359375 " fill-opacity="1" fill-rule="nonzero"/><path fill="#edb92e" d="M 158.046875 117.589844 C 158.046875 118.121094 157.617188 118.546875 157.082031 118.546875 L 152.496094 118.546875 C 151.960938 118.546875 151.535156 118.121094 151.535156 117.589844 C 151.535156 117.054688 151.960938 116.628906 152.496094 116.628906 L 157.082031 116.628906 C 157.617188 116.628906 158.046875 117.054688 158.046875 117.589844 Z M 158.046875 117.589844 " fill-opacity="1" fill-rule="nonzero"/><path fill="#0c4076" d="M 158.320312 123.304688 C 158.320312 125.246094 156.742188 126.828125 154.785156 126.828125 C 152.835938 126.828125 151.253906 125.246094 151.253906 123.304688 C 151.253906 121.359375 152.832031 119.777344 154.785156 119.777344 C 156.734375 119.785156 158.320312 121.359375 158.320312 123.304688 Z M 138.289062 153.835938 C 138.289062 154.695312 137.296875 155.394531 136.070312 155.394531 C 134.839844 155.394531 133.847656 154.695312 133.847656 153.835938 C 133.847656 152.980469 134.839844 152.285156 136.070312 152.285156 C 137.296875 152.285156 138.289062 152.976562 138.289062 153.835938 Z M 138.289062 153.835938 " fill-opacity="1" fill-rule="nonzero"/><path fill="#c6363c" d="M 147.21875 153.300781 C 147.21875 154.164062 146.226562 154.859375 145 154.859375 C 143.773438 154.859375 142.78125 154.164062 142.78125 153.300781 C 142.78125 152.449219 143.773438 151.75 145 151.75 C 146.21875 151.75 147.21875 152.449219 147.21875 153.300781 Z M 167.035156 153.300781 C 167.035156 154.164062 166.042969 154.859375 164.816406 154.859375 C 163.589844 154.859375 162.597656 154.164062 162.597656 153.300781 C 162.597656 152.449219 163.589844 151.75 164.816406 151.75 C 166.035156 151.75 167.035156 152.449219 167.035156 153.300781 Z M 167.035156 153.300781 " fill-opacity="1" fill-rule="nonzero"/><path fill="#0c4076" d="M 176.207031 153.835938 C 176.207031 154.695312 175.214844 155.394531 173.988281 155.394531 C 172.757812 155.394531 171.765625 154.695312 171.765625 153.835938 C 171.765625 152.980469 172.757812 152.285156 173.988281 152.285156 C 175.214844 152.285156 176.207031 152.976562 176.207031 153.835938 Z M 157.101562 153.191406 C 157.101562 154.050781 156.109375 154.75 154.878906 154.75 C 153.652344 154.75 152.660156 154.050781 152.660156 153.191406 C 152.660156 152.332031 153.652344 151.640625 154.878906 151.640625 C 156.109375 151.640625 157.101562 152.332031 157.101562 153.191406 Z M 157.101562 153.191406 " fill-opacity="1" fill-rule="nonzero"/><path fill="#edb92e" d="M 142.292969 214.066406 C 140.285156 218.613281 140.074219 220.847656 137.695312 220.691406 C 135.3125 220.53125 133.632812 220.128906 133.632812 221.089844 C 133.632812 222.042969 137.417969 221.644531 137.417969 221.644531 C 137.417969 221.644531 133.84375 223.167969 134.546875 224.917969 C 135.246094 226.675781 138.335938 222.6875 138.335938 222.6875 C 138.335938 222.6875 138.964844 222.847656 140.15625 221.886719 C 141.347656 220.929688 144.5 216.304688 144.5 216.304688 Z M 168.195312 214.066406 C 170.207031 218.613281 170.417969 220.847656 172.792969 220.691406 C 175.179688 220.53125 176.859375 220.128906 176.859375 221.089844 C 176.859375 222.042969 173.078125 221.644531 173.078125 221.644531 C 173.078125 221.644531 176.652344 223.167969 175.949219 224.917969 C 175.25 226.675781 172.160156 222.6875 172.160156 222.6875 C 172.160156 222.6875 171.53125 222.847656 170.339844 221.886719 C 169.148438 220.929688 165.996094 216.304688 165.996094 216.304688 Z M 168.195312 214.066406 " fill-opacity="1" fill-rule="nonzero"/><path fill="#ffffff" d="M 182.382812 173.816406 C 181.347656 166.742188 174.671875 168.9375 171.835938 173.816406 C 169 178.691406 166.554688 181.621094 163.929688 178.207031 C 161.304688 174.792969 159.570312 171.132812 163.363281 166.496094 L 167.15625 161.859375 C 166.617188 159.054688 164.34375 159.660156 161.09375 161.003906 C 157.839844 162.34375 155.785156 161.734375 156.109375 163.199219 C 156.4375 164.664062 157.621094 164.785156 157.621094 164.785156 C 157.621094 164.785156 155.574219 166.777344 155.035156 173.644531 C 154.492188 166.777344 152.445312 164.785156 152.445312 164.785156 C 152.445312 164.785156 153.636719 164.664062 153.957031 163.199219 C 154.28125 161.734375 152.226562 162.34375 148.972656 161.003906 C 145.722656 159.660156 143.449219 159.054688 142.910156 161.859375 L 146.703125 166.496094 C 150.496094 171.132812 148.761719 174.792969 146.136719 178.207031 C 143.519531 181.621094 141.066406 179.0625 138.230469 174.179688 C 135.394531 169.300781 128.710938 167.105469 127.683594 174.179688 C 126.652344 181.253906 127.847656 193.574219 127.847656 193.574219 C 127.847656 193.574219 127.195312 200.285156 128.5 206.015625 C 129.796875 211.75 130.5625 216.871094 128.5 221.265625 C 130.773438 220.65625 132.179688 217.726562 132.179688 217.726562 C 132.179688 217.726562 131.425781 221.265625 132.832031 220.902344 C 134.242188 220.539062 134.566406 217.851562 135.644531 216.871094 C 136.730469 215.902344 137.601562 213.703125 137.601562 213.703125 C 137.601562 213.703125 139.878906 212.851562 137.601562 216.632812 C 139.445312 216.753906 140.636719 215.53125 140.636719 215.53125 L 141.28125 218.953125 L 142.367188 217.125 L 142.910156 220.414062 L 144.859375 217.242188 L 146.136719 218.707031 C 146.136719 218.707031 146.378906 212.488281 148.109375 213.703125 C 149.84375 214.921875 149.949219 218.953125 148.761719 221.386719 C 147.570312 223.824219 148.761719 224.808594 148.761719 224.808594 C 148.761719 224.808594 147.03125 227.371094 146.144531 228.835938 C 145.257812 230.300781 146.601562 232.003906 146.601562 232.003906 C 146.601562 232.003906 143.242188 237.003906 144.175781 238.960938 C 145.082031 240.835938 150.675781 242.027344 154.769531 242.117188 L 154.804688 242.132812 L 155.035156 242.128906 L 155.261719 242.132812 L 155.296875 242.117188 C 159.390625 242.027344 164.984375 240.835938 165.890625 238.960938 C 166.828125 237.011719 163.464844 232.003906 163.464844 232.003906 C 163.464844 232.003906 164.804688 230.300781 163.921875 228.835938 C 163.035156 227.371094 161.296875 224.808594 161.296875 224.808594 C 161.296875 224.808594 162.488281 223.824219 161.296875 221.386719 C 160.113281 218.953125 160.21875 214.921875 161.949219 213.703125 C 163.683594 212.488281 163.917969 218.707031 163.917969 218.707031 L 165.195312 217.242188 L 167.144531 220.414062 L 167.6875 217.125 L 168.773438 218.953125 L 169.417969 215.53125 C 169.417969 215.53125 170.609375 216.75 172.453125 216.632812 C 170.175781 212.851562 172.453125 213.703125 172.453125 213.703125 C 172.453125 213.703125 173.324219 215.902344 174.402344 216.878906 C 175.484375 217.855469 175.8125 220.539062 177.222656 220.90625 C 178.628906 221.269531 177.875 217.734375 177.875 217.734375 C 177.875 217.734375 179.28125 220.660156 181.554688 221.269531 C 179.5 216.878906 180.257812 211.75 181.554688 206.023438 C 182.859375 200.289062 182.207031 193.578125 182.207031 193.578125 C 182.207031 193.578125 183.417969 180.890625 182.382812 173.816406 Z M 182.382812 173.816406 " fill-opacity="1" fill-rule="nonzero"/><path fill="#edb92e" d="M 151.714844 165.757812 C 149.132812 163.285156 142.6875 160.082031 140.546875 160.539062 C 138.410156 161.003906 136.695312 162.46875 138.289062 164.757812 C 139.878906 167.046875 140.546875 166.953125 140.546875 166.953125 C 140.546875 166.953125 143.089844 164.664062 144.195312 165.945312 C 145.296875 167.226562 144.375 167.683594 142.363281 167.867188 C 140.34375 168.046875 138.292969 166.675781 138.292969 166.675781 C 138.292969 166.675781 138.957031 169.054688 141.757812 169.328125 C 143.644531 171.15625 146.019531 169.785156 147.21875 169.785156 C 148.417969 169.785156 154.003906 167.960938 151.714844 165.757812 Z M 158.355469 165.757812 C 160.941406 163.285156 167.386719 160.082031 169.523438 160.539062 C 171.660156 160.996094 173.375 162.460938 171.785156 164.75 C 170.195312 167.039062 169.523438 166.945312 169.523438 166.945312 C 169.523438 166.945312 166.980469 164.65625 165.878906 165.9375 C 164.773438 167.222656 165.695312 167.679688 167.710938 167.859375 C 169.730469 168.042969 171.777344 166.671875 171.777344 166.671875 C 171.777344 166.671875 171.117188 169.046875 168.316406 169.324219 C 166.429688 171.15625 164.050781 169.785156 162.855469 169.785156 C 161.65625 169.785156 156.0625 167.960938 158.355469 165.757812 Z M 140.429688 229.507812 C 141.234375 227.660156 140.671875 227.394531 140.027344 226.75 C 139.375 226.113281 139.050781 225.21875 139.050781 225.21875 C 139.050781 225.21875 138.726562 226.105469 138.078125 226.75 C 137.425781 227.390625 136.859375 227.652344 137.664062 229.507812 C 135.710938 228.355469 135.386719 230.46875 136.285156 231.753906 C 136.539062 230.597656 138.078125 230.863281 138.078125 232.269531 C 138.078125 233.671875 136.800781 233.035156 136.957031 233.609375 C 137.113281 234.1875 138.277344 235.402344 139.046875 235.402344 C 139.816406 235.402344 140.984375 234.1875 141.136719 233.609375 C 141.292969 233.027344 140.019531 233.671875 140.019531 232.269531 C 140.019531 230.863281 141.550781 230.597656 141.8125 231.753906 C 142.714844 230.46875 142.390625 228.355469 140.429688 229.507812 Z M 172.359375 229.507812 C 173.164062 227.660156 172.601562 227.394531 171.949219 226.75 C 171.296875 226.113281 170.972656 225.21875 170.972656 225.21875 C 170.972656 225.21875 170.652344 226.105469 170 226.75 C 169.347656 227.390625 168.785156 227.652344 169.589844 229.507812 C 167.632812 228.355469 167.3125 230.46875 168.207031 231.753906 C 168.460938 230.597656 170 230.863281 170 232.269531 C 170 233.671875 168.726562 233.035156 168.882812 233.609375 C 169.035156 234.1875 170.207031 235.402344 170.972656 235.402344 C 171.742188 235.402344 172.910156 234.1875 173.066406 233.609375 C 173.222656 233.027344 171.949219 233.671875 171.949219 232.269531 C 171.949219 230.863281 173.480469 230.597656 173.738281 231.753906 C 174.636719 230.46875 174.320312 228.355469 172.359375 229.507812 Z M 172.359375 229.507812 " fill-opacity="1" fill-rule="nonzero"/><path fill="#c6363c" d="M 142.046875 180.765625 L 142.046875 203.363281 C 142.046875 210.582031 147.917969 216.445312 155.164062 216.445312 C 162.40625 216.445312 168.28125 210.582031 168.28125 203.363281 L 168.28125 180.765625 Z M 142.046875 180.765625 " fill-opacity="1" fill-rule="nonzero"/><path fill="#eeeeee" d="M 168.28125 194.21875 L 157.992188 194.21875 L 157.992188 180.765625 L 152.34375 180.765625 L 152.34375 194.21875 L 142.050781 194.21875 L 142.050781 199.855469 L 152.34375 199.855469 L 152.34375 216.128906 C 153.253906 216.328125 154.195312 216.453125 155.167969 216.453125 C 156.144531 216.453125 157.082031 216.328125 158 216.128906 L 158 199.855469 L 168.292969 199.855469 L 168.292969 194.21875 Z M 168.28125 194.21875 " fill-opacity="1" fill-rule="nonzero"/></svg>