<?xml version="1.0" standalone="no"?>
<!DOCTYPE svg PUBLIC "-//W3C//DTD SVG 20010904//EN"
 "http://www.w3.org/TR/2001/REC-SVG-20010904/DTD/svg10.dtd">
<svg version="1.0" xmlns="http://www.w3.org/2000/svg"
 width="512.000000pt" height="512.000000pt" viewBox="0 0 512.000000 512.000000"
 preserveAspectRatio="xMidYMid meet">

<g transform="translate(0.000000,512.000000) scale(0.100000,-0.100000)"
fill="#000000" stroke="none">
<path d="M2770 3735 l-186 -104 -218 10 c-120 5 -221 7 -225 4 -5 -2 -34 -78
-65 -167 l-57 -163 -297 -206 c-163 -113 -364 -243 -447 -289 -169 -94 -568
-322 -692 -396 -45 -27 -83 -55 -83 -62 0 -22 134 -193 204 -260 45 -43 90
-75 150 -103 61 -29 88 -48 91 -63 3 -11 12 -56 20 -100 9 -50 21 -83 32 -92
27 -21 470 -20 509 1 16 8 38 15 49 15 11 0 32 6 47 14 15 8 42 17 60 21 18 4
36 13 41 19 5 8 9 8 15 -1 4 -6 20 -15 35 -18 67 -17 192 -184 282 -375 14
-30 31 -66 38 -79 9 -19 37 -34 122 -63 196 -69 168 -68 297 -13 62 26 182 77
267 111 154 63 212 101 227 148 4 11 12 26 18 33 26 29 36 43 36 48 0 6 51 86
60 95 3 3 17 21 32 41 50 67 105 118 162 148 92 50 291 79 548 80 70 1 129 5
132 10 3 4 24 11 46 15 51 8 228 78 278 110 34 22 69 56 100 97 14 19 152 422
152 445 0 17 -25 64 -146 269 l-84 144 81 137 c44 75 78 143 75 150 -3 8 -36
29 -73 47 -37 19 -165 90 -284 160 l-216 126 -309 56 c-170 30 -327 59 -349
64 -51 13 -244 42 -270 41 -11 0 -103 -47 -205 -105z m330 14 c63 -11 153 -26
200 -34 101 -17 214 -37 370 -65 63 -12 133 -24 155 -27 22 -3 54 -12 70 -21
26 -12 454 -260 463 -268 2 -1 -30 -61 -72 -133 -42 -72 -76 -136 -76 -142 0
-14 54 -113 177 -323 51 -87 93 -162 93 -166 0 -23 -56 -174 -91 -243 -64
-128 -120 -176 -261 -221 -127 -41 -217 -54 -403 -60 -213 -6 -368 -32 -460
-77 -34 -17 -88 -57 -123 -92 -63 -62 -179 -223 -228 -318 -30 -56 -85 -92
-124 -82 -15 4 -21 2 -17 -4 8 -13 -59 -47 -79 -39 -8 3 -23 -3 -32 -12 -19
-19 -102 -56 -102 -46 0 3 -12 -3 -27 -14 -16 -10 -49 -26 -75 -36 -26 -10
-50 -22 -53 -27 -10 -16 -51 -10 -111 17 -33 14 -68 30 -79 34 -11 5 -37 16
-57 24 -29 12 -38 21 -38 39 0 28 -72 171 -128 255 -98 149 -190 214 -347 247
-83 17 -355 36 -399 28 -30 -6 -245 64 -354 114 -48 22 -96 54 -134 91 -58 55
-175 199 -167 206 2 2 56 33 119 68 497 278 534 300 525 310 -3 3 59 38 137
78 133 67 235 131 399 248 36 26 120 85 187 132 66 47 123 92 125 100 8 24 99
285 101 287 2 2 90 -1 197 -6 l194 -9 110 58 c61 32 148 79 195 104 47 25 90
46 95 46 6 0 62 -9 125 -21z"/>
<path d="M3995 2975 c-120 -74 -248 -151 -570 -345 -93 -56 -186 -112 -205
-124 -19 -12 -55 -35 -78 -50 -24 -15 -42 -30 -39 -32 5 -5 100 -26 492 -106
323 -66 311 -64 317 -41 3 10 22 74 43 143 20 69 47 162 61 208 13 45 36 121
50 170 14 48 36 122 48 164 21 72 22 90 7 87 -3 0 -60 -34 -126 -74z"/>
<path d="M1353 2733 c-45 -4 -70 -15 -185 -88 -73 -47 -210 -133 -305 -192
-95 -60 -172 -112 -173 -118 0 -5 69 -56 154 -113 l153 -103 259 70 c142 38
266 71 276 73 22 4 389 358 383 369 -3 4 -76 31 -163 59 -166 53 -201 57 -399
43z"/>
</g>
</svg>
