<?xml version="1.0" standalone="no"?>
<!DOCTYPE svg PUBLIC "-//W3C//DTD SVG 20010904//EN"
 "http://www.w3.org/TR/2001/REC-SVG-20010904/DTD/svg10.dtd">
<svg version="1.0" xmlns="http://www.w3.org/2000/svg"
 width="500.000000pt" height="500.000000pt" viewBox="0 0 500.000000 500.000000"
 preserveAspectRatio="xMidYMid meet">

<g transform="translate(0.000000,500.000000) scale(0.100000,-0.100000)"
fill="#000000" stroke="none">
<path d="M541 4484 c-51 -36 -51 -30 -51 -789 0 -759 0 -753 51 -789 20 -13
55 -16 230 -16 l206 0 383 -390 382 -390 -197 0 c-214 0 -241 -6 -264 -57 -8
-17 -11 -251 -11 -757 0 -724 0 -734 20 -759 12 -15 38 -31 58 -37 52 -14
3023 -14 3075 1 26 7 44 21 57 42 19 31 20 57 20 766 l0 733 -34 34 c-34 34
-34 34 -130 34 l-96 0 0 863 c0 844 0 863 -20 895 -11 18 -32 37 -46 42 -14 6
-119 10 -234 10 l-209 0 -3 261 -3 261 -33 29 -32 29 -1548 0 c-1415 0 -1550
-1 -1571 -16z m529 -551 l-515 -518 -3 500 c-2 500 -2 500 19 518 20 16 60 17
517 17 l497 0 -515 -517z m2582 500 c16 -15 18 -37 18 -265 l0 -248 -480 0
c-518 0 -522 0 -552 -53 -8 -14 -15 -79 -18 -179 l-5 -158 -460 460 -460 460
969 0 c888 0 971 -1 988 -17z m-1509 -511 l477 -477 0 -253 0 -252 -813 0
-813 0 -197 198 c-148 149 -197 204 -197 223 0 36 1004 1039 1040 1039 20 0
126 -101 503 -478z m1527 -506 l0 -445 -22 -15 c-19 -13 -59 -16 -233 -16
l-210 0 -262 262 -263 263 0 185 c0 131 4 190 12 198 9 9 133 12 495 12 l483
0 0 -444z m498 432 c9 -9 12 -217 12 -875 l0 -863 -181 0 -181 0 31 35 c33 38
40 79 20 118 -6 12 -147 158 -312 325 l-302 302 202 0 203 0 32 29 33 29 3
456 3 456 212 0 c152 0 216 -3 225 -12z m-1263 -688 l220 -220 -223 0 -222 0
0 220 c0 121 1 220 3 220 1 0 101 -99 222 -220z m-2146 -218 c-224 -4 -209
-18 -209 201 l0 172 185 -185 185 -185 -161 -3z m1861 -442 l0 -390 -398 0
-397 0 -390 390 -390 390 788 0 787 0 0 -390z m877 68 c250 -250 323 -328 323
-348 0 -15 -16 -40 -42 -67 l-42 -43 -528 0 -528 0 0 390 0 390 247 0 248 0
322 -322z m-1285 -925 l407 -408 3 -242 3 -243 33 -32 32 -33 734 0 c608 0
737 2 759 14 58 31 57 21 57 715 l0 636 88 0 c48 0 94 -5 102 -10 13 -8 15
-102 18 -729 2 -711 2 -721 -18 -741 -20 -20 -28 -20 -1545 -20 -1512 0 -1525
0 -1545 20 -20 20 -20 33 -20 731 0 470 3 717 10 730 10 18 24 19 243 19 l232
0 407 -407z m408 42 c0 -201 -1 -365 -3 -365 -1 0 -166 164 -367 365 l-365
365 368 0 367 0 0 -365z m620 -70 c-316 -316 -441 -435 -457 -435 -13 0 -41
16 -63 36 l-40 36 0 399 0 399 497 0 498 0 -435 -435z m940 -204 c0 -568 -2
-641 -16 -655 -14 -14 -94 -16 -731 -16 -653 0 -718 1 -735 17 -16 15 -18 35
-18 215 l0 199 37 -26 c23 -15 52 -25 73 -25 32 0 64 29 500 465 l465 465 213
0 212 0 0 -639z"/>
</g>
</svg>
